<?xml version="1.0" standalone="no"?>
<!DOCTYPE svg PUBLIC "-//W3C//DTD SVG 20010904//EN"
 "http://www.w3.org/TR/2001/REC-SVG-20010904/DTD/svg10.dtd">
<svg version="1.0" xmlns="http://www.w3.org/2000/svg"
 width="200.000000pt" height="200.000000pt" viewBox="0 0 200.000000 200.000000"
 preserveAspectRatio="xMidYMid meet">

<g transform="translate(0.000000,200.000000) scale(0.100000,-0.100000)"
fill="#000000" stroke="none">
<path d="M876 1728 c-107 -23 -254 -146 -301 -252 -39 -89 -45 -145 -45 -429
0 -150 -4 -278 -9 -286 -5 -8 -22 -20 -38 -27 -26 -11 -22 -12 44 -13 l73 -1
2 282 3 282 50 13 c93 24 85 51 85 -282 l0 -295 35 0 35 0 0 349 c0 266 4 368
15 426 15 78 53 175 81 207 24 26 13 35 -30 26z m-31 -52 c-51 -51 -104 -197
-105 -288 0 -40 4 -37 -77 -53 -16 -3 -36 -8 -47 -11 -16 -5 -17 -2 -11 37 9
57 56 160 97 211 35 45 136 128 155 128 7 0 1 -11 -12 -24z"/>
<path d="M993 1718 c-31 -34 -61 -99 -79 -170 -13 -50 -17 -140 -21 -445 l-5
-383 36 0 36 0 2 303 3 302 105 -2 c119 -2 279 -31 343 -62 24 -12 46 -21 49
-21 9 0 -3 102 -19 159 -23 86 -67 162 -125 217 -64 62 -106 87 -177 108 -78
23 -123 21 -148 -6z m181 -42 c97 -57 197 -208 212 -320 7 -46 6 -49 -12 -42
-48 19 -170 38 -284 44 l-125 7 3 75 c4 99 19 186 42 236 l18 41 52 -8 c28 -4
71 -19 94 -33z"/>
<path d="M1390 955 l0 -235 71 0 c44 0 68 4 64 10 -3 6 -12 10 -19 10 -33 0
-38 28 -36 199 0 93 -2 181 -6 196 -5 21 -47 55 -69 55 -3 0 -5 -106 -5 -235z"/>
<path d="M527 593 c255 -2 671 -2 925 0 255 1 47 2 -462 2 -509 0 -717 -1
-463 -2z"/>
<path d="M203 405 c-1 -30 2 -55 8 -55 5 0 9 19 9 41 l0 42 40 -44 39 -44 1
42 c0 23 3 48 6 57 4 10 1 16 -9 16 -12 0 -14 -9 -10 -42 l6 -43 -38 43 c-20
23 -40 42 -43 42 -4 0 -8 -25 -9 -55z"/>
<path d="M340 450 c0 -5 7 -10 16 -10 13 0 15 -9 12 -45 -2 -35 0 -45 12 -45
12 0 14 10 12 45 -4 40 -2 45 17 45 12 0 21 5 21 10 0 6 -20 10 -45 10 -25 0
-45 -4 -45 -10z"/>
<path d="M529 438 c25 -22 24 -56 -1 -71 -25 -16 -51 10 -46 45 5 30 -6 38
-16 12 -10 -25 -7 -42 10 -58 40 -40 110 7 86 58 -6 13 -20 26 -32 29 l-22 6
21 -21z"/>
<path d="M614 405 c-1 -30 2 -55 7 -55 5 0 9 19 9 42 l0 42 36 -43 c20 -23 39
-40 41 -37 12 11 11 106 -1 106 -8 0 -10 -14 -8 -42 l4 -43 -33 42 c-19 23
-38 42 -44 42 -5 1 -11 -24 -11 -54z"/>
<path d="M815 405 c0 -34 4 -55 11 -55 8 0 10 16 7 48 -8 67 -18 71 -18 7z"/>
<path d="M858 444 c22 -15 22 -17 7 -34 -16 -18 -16 -18 4 -13 26 7 27 39 2
53 -30 16 -38 12 -13 -6z"/>
<path d="M1047 449 c6 -6 8 -30 5 -55 -3 -29 -1 -44 7 -44 6 0 11 17 11 41 l0
42 40 -44 39 -44 1 42 c0 23 3 48 6 57 4 10 1 16 -9 16 -12 0 -14 -9 -10 -42
l6 -43 -38 43 c-20 23 -44 42 -53 42 -11 0 -13 -3 -5 -11z"/>
<path d="M1203 405 c-1 -30 2 -55 8 -55 5 0 9 19 9 43 1 35 3 39 13 26 44 -57
58 -72 61 -68 2 2 6 28 8 57 3 35 1 52 -6 52 -7 0 -10 -15 -8 -42 l4 -43 -31
35 c-16 19 -30 38 -31 43 0 4 -6 7 -12 7 -9 0 -14 -19 -15 -55z"/>
<path d="M1350 405 l0 -55 35 0 c19 0 35 4 35 8 0 5 -10 8 -22 8 -20 -1 -23 4
-24 37 -1 35 5 42 35 38 7 -2 10 2 6 8 -3 6 -19 11 -36 11 -29 0 -29 -1 -29
-55z"/>
<path d="M1455 405 c0 -58 21 -79 27 -27 l4 27 14 -27 c8 -17 21 -28 33 -28
19 0 18 3 -8 30 l-29 30 24 25 c19 20 20 25 7 25 -8 0 -19 -9 -22 -20 -3 -11
-11 -20 -16 -20 -5 0 -9 9 -9 20 0 11 -6 20 -12 20 -9 0 -13 -18 -13 -55z"/>
<path d="M1628 444 c31 -22 28 -77 -5 -82 -31 -5 -49 32 -33 66 10 22 9 24 -4
12 -26 -21 -20 -68 9 -82 38 -17 75 3 75 41 0 28 -29 61 -54 61 -6 0 0 -7 12
-16z"/>
<path d="M1708 405 l4 -55 34 0 c19 0 34 4 34 8 0 5 -10 8 -22 8 -14 -1 -24 6
-26 17 -2 12 3 17 17 17 12 0 21 4 21 9 0 5 -9 7 -20 4 -14 -4 -20 0 -20 11 0
11 9 16 26 16 14 0 23 4 19 10 -3 6 -21 10 -38 10 l-32 0 3 -55z"/>
<path d="M1815 405 c0 -58 21 -79 27 -27 l4 27 14 -27 c8 -18 21 -28 34 -28
18 1 19 2 6 13 -41 33 -44 46 -20 72 20 21 21 25 7 25 -9 0 -17 -6 -17 -14 0
-8 -7 -17 -16 -20 -13 -5 -15 -2 -11 14 4 14 0 20 -11 20 -14 0 -17 -10 -17
-55z"/>
<path d="M85 408 c-10 -24 -20 -46 -23 -50 -2 -5 3 -8 12 -8 10 0 13 6 10 15
-5 11 1 15 21 15 20 0 26 -4 21 -15 -3 -10 1 -15 13 -15 19 0 18 2 -2 50 -11
28 -24 50 -27 50 -4 0 -15 -19 -25 -42z m35 -9 c0 -5 -7 -9 -15 -9 -9 0 -12 6
-9 15 6 15 24 11 24 -6z"/>
<path d="M935 408 c-10 -24 -20 -46 -23 -50 -2 -5 3 -8 12 -8 10 0 13 6 10 15
-5 11 1 15 20 15 18 0 24 -4 20 -15 -4 -10 0 -15 14 -15 20 0 20 0 -1 50 -11
28 -24 50 -27 50 -4 0 -15 -19 -25 -42z m35 -9 c0 -5 -7 -9 -15 -9 -9 0 -12 6
-9 15 6 15 24 11 24 -6z"/>
<path d="M1395 410 c-3 -5 -1 -10 4 -10 6 0 11 5 11 10 0 6 -2 10 -4 10 -3 0
-8 -4 -11 -10z"/>
<path d="M515 223 c1 -21 -2 -44 -7 -50 -8 -10 -3 -13 18 -13 20 0 25 3 15 9
-9 6 -12 22 -9 50 2 27 0 41 -8 41 -8 0 -11 -14 -9 -37z"/>
<path d="M588 210 c-2 -40 0 -50 12 -50 12 0 15 9 13 38 l-4 37 33 -38 c18
-20 36 -37 40 -37 3 0 8 23 10 50 2 30 -1 50 -7 50 -7 0 -10 -16 -8 -37 l4
-38 -34 38 c-19 20 -39 37 -45 37 -5 0 -12 -23 -14 -50z"/>
<path d="M775 250 c3 -5 8 -10 11 -10 2 0 4 5 4 10 0 6 -5 10 -11 10 -5 0 -7
-4 -4 -10z"/>
<path d="M833 253 c16 -4 18 -13 15 -49 -2 -34 0 -44 12 -44 12 0 14 10 11 46
-3 44 -2 47 18 41 11 -3 21 -1 21 4 0 5 -21 8 -47 8 -27 -1 -40 -3 -30 -6z"/>
<path d="M957 225 c3 -21 1 -41 -7 -50 -10 -12 -9 -15 6 -15 16 0 19 8 19 50
0 32 -4 50 -12 50 -8 0 -10 -11 -6 -35z"/>
<path d="M1010 251 c0 -5 8 -8 18 -7 21 1 29 -48 11 -70 -9 -12 -7 -14 17 -13
16 0 23 3 17 6 -8 2 -13 22 -13 45 0 38 2 40 25 36 14 -3 25 -1 25 3 0 5 -22
9 -50 9 -27 0 -50 -4 -50 -9z"/>
<path d="M1140 229 c0 -46 16 -69 48 -68 l27 1 -25 7 c-21 6 -26 14 -28 49 -4
48 -22 58 -22 11z"/>
<path d="M1220 220 c0 -22 2 -40 4 -40 2 0 6 18 8 40 2 22 0 40 -4 40 -5 0 -8
-18 -8 -40z"/>
<path d="M1260 251 c0 -5 10 -7 21 -4 20 6 21 3 18 -41 -3 -36 -1 -46 11 -46
12 0 14 10 11 46 -3 44 -2 47 18 41 11 -3 21 -1 21 4 0 5 -22 9 -50 9 -27 0
-50 -4 -50 -9z"/>
<path d="M1390 210 l0 -50 34 0 c19 0 38 4 41 10 4 6 -6 7 -25 4 -26 -6 -30
-4 -30 16 0 17 4 21 20 17 11 -3 20 -1 20 4 0 5 -9 9 -21 9 -12 0 -19 5 -16
13 2 6 14 12 26 11 11 0 21 3 21 8 0 4 -16 8 -35 8 l-35 0 0 -50z"/>
<path d="M730 239 c0 -9 9 -24 20 -34 11 -10 20 -22 20 -28 0 -5 -9 -7 -20 -4
-11 3 -20 1 -20 -4 0 -15 37 -10 50 7 11 13 9 20 -18 47 -22 22 -32 27 -32 16z"/>
</g>
</svg>
