<?xml version="1.0" standalone="no"?>
<!DOCTYPE svg PUBLIC "-//W3C//DTD SVG 20010904//EN"
 "http://www.w3.org/TR/2001/REC-SVG-20010904/DTD/svg10.dtd">
<svg version="1.0" xmlns="http://www.w3.org/2000/svg"
 width="400.000000pt" height="400.000000pt" viewBox="0 0 400.000000 400.000000"
 preserveAspectRatio="xMidYMid meet">

<g transform="translate(0.000000,400.000000) scale(0.100000,-0.100000)"
fill="#000000" stroke="none">
<path d="M1778 3879 c-652 -63 -1239 -471 -1527 -1062 -95 -195 -140 -334
-178 -552 -25 -149 -23 -451 5 -608 81 -444 308 -848 632 -1122 80 -67 172
-135 184 -135 3 0 -16 21 -41 48 -404 415 -537 999 -354 1552 54 160 167 356
288 495 248 287 590 466 973 509 134 15 352 6 470 -19 224 -47 449 -150 629
-289 68 -53 225 -211 277 -281 54 -71 124 -192 124 -213 -1 -14 -2 -14 -13 3
-44 74 -168 224 -248 299 -195 186 -417 302 -694 363 -127 28 -437 25 -571 -5
-534 -119 -942 -514 -1083 -1047 -5 -22 -17 -87 -26 -144 -62 -421 87 -869
390 -1175 324 -326 771 -478 1216 -411 164 25 211 36 359 87 47 17 93 32 103
35 10 3 50 22 90 42 62 31 72 39 70 61 -1 14 -5 99 -9 189 -6 143 -10 167 -27
184 -24 24 -58 16 -102 -21 -17 -15 -48 -40 -69 -57 -21 -16 -45 -36 -52 -43
-24 -23 -15 4 15 44 16 21 49 62 74 89 47 50 60 85 32 85 -8 0 -15 4 -15 9 0
16 -29 20 -233 31 -200 10 -254 16 -244 26 8 9 267 34 348 34 91 0 141 9 133
22 -4 6 -1 14 6 18 22 13 3 52 -55 114 -50 54 -68 86 -47 86 4 0 18 -10 32
-23 45 -42 141 -117 148 -117 12 0 44 59 47 88 2 15 6 100 10 190 7 151 16
198 29 155 11 -37 26 -191 27 -278 1 -119 5 -129 50 -133 32 -3 44 3 100 53
35 31 71 61 81 66 26 14 23 -11 -5 -41 -135 -146 -144 -160 -106 -160 15 0 19
-5 15 -15 -3 -8 -4 -15 -3 -15 1 0 72 -5 157 -10 85 -5 190 -15 233 -21 92
-13 93 -13 160 90 120 184 203 390 266 661 43 183 43 535 0 745 -100 492 -395
930 -814 1210 -372 248 -808 357 -1257 314z m1092 -699 c0 -11 8 -24 18 -27 9
-4 23 -15 30 -25 7 -10 22 -18 33 -18 10 0 19 -4 19 -10 0 -5 -6 -10 -14 -10
-8 0 -23 -10 -33 -23 -10 -13 -26 -26 -35 -30 -11 -4 -18 -17 -18 -32 0 -15
-4 -24 -10 -20 -5 3 -10 13 -10 22 0 19 -66 83 -86 83 -8 0 -14 5 -14 10 0 6
12 10 26 10 17 0 28 6 31 20 3 11 14 20 24 20 14 0 19 7 19 25 0 14 5 25 10
25 6 0 10 -9 10 -20z m-1287 -1144 c2 -42 10 -83 17 -91 15 -18 45 -12 76 16
36 33 47 20 15 -18 -17 -21 -31 -43 -31 -49 0 -18 49 -32 132 -39 40 -3 93 -9
118 -12 39 -5 42 -7 20 -14 -14 -4 -56 -8 -95 -9 -121 -3 -160 -12 -163 -38
-2 -12 7 -39 20 -60 l22 -37 -24 18 c-14 9 -36 23 -49 29 -34 18 -48 -8 -56
-100 -3 -43 -9 -99 -12 -127 l-7 -50 -7 45 c-4 25 -8 82 -8 127 -1 60 -5 86
-17 97 -20 21 -23 20 -67 -10 -49 -33 -57 -25 -23 21 45 58 35 69 -69 78 -50
4 -110 11 -135 14 l-45 6 33 7 c18 4 72 11 120 15 119 9 125 11 117 43 -3 14
-15 38 -26 54 -25 35 -16 36 27 3 18 -14 39 -25 47 -25 20 0 37 44 37 94 0 24
3 65 7 92 6 43 7 46 14 22 4 -15 9 -61 12 -102z"/>
<path d="M3469 835 c-3 -2 -90 -9 -195 -15 -248 -14 -254 -15 -254 -49 0 -27
23 -70 56 -106 35 -38 85 -105 78 -105 -7 0 -92 69 -144 117 -36 33 -70 43
-70 20 0 -7 -8 -20 -18 -28 -16 -14 -20 -38 -25 -165 -4 -82 -10 -159 -13
-171 -11 -39 20 -28 139 52 135 90 163 112 290 235 131 127 203 220 169 220
-5 0 -11 -2 -13 -5z"/>
</g>
</svg>
