<?xml version="1.0" standalone="no"?>
<!DOCTYPE svg PUBLIC "-//W3C//DTD SVG 20010904//EN"
 "http://www.w3.org/TR/2001/REC-SVG-20010904/DTD/svg10.dtd">
<svg version="1.0" xmlns="http://www.w3.org/2000/svg"
 width="1192.000000pt" height="449.000000pt" viewBox="0 0 1192.000000 449.000000"
 preserveAspectRatio="xMidYMid meet">

<g transform="translate(0.000000,449.000000) scale(0.100000,-0.100000)"
fill="#000000" stroke="none">
<path d="M4000 4422 c0 -38 -3 -117 -7 -175 l-6 -107 236 0 237 0 0 53 c0 30
3 109 7 175 l6 122 -236 0 -237 0 0 -68z"/>
<path d="M1598 4355 c-515 -73 -965 -357 -1253 -789 -417 -627 -399 -1454 47
-2058 83 -113 254 -286 363 -367 124 -92 161 -113 93 -52 -164 148 -318 386
-389 605 -53 160 -72 307 -66 491 9 234 49 393 154 597 195 383 544 647 976
740 83 18 135 22 277 22 142 0 194 -4 277 -22 433 -93 795 -369 989 -754 48
-95 42 -97 -12 -3 -130 223 -339 422 -563 535 -206 103 -488 155 -716 131
-580 -62 -1029 -452 -1173 -1019 -25 -98 -27 -123 -27 -302 0 -156 4 -211 19
-275 64 -276 176 -477 370 -670 205 -204 436 -324 711 -371 132 -22 385 -15
530 16 126 27 283 79 392 130 l85 39 -6 63 c-3 35 -8 113 -11 173 -3 61 -8
128 -12 150 l-5 39 -29 -54 c-34 -66 -36 -63 -8 10 l21 55 -24 -23 c-14 -12
-27 -20 -29 -17 -3 2 -57 -41 -120 -97 l-114 -102 76 82 c87 93 144 162 133
162 -4 0 1 9 11 20 22 25 22 25 -50 0 -68 -23 -67 -17 2 15 l48 22 -175 12
c-96 7 -238 16 -315 20 l-140 8 115 2 c63 1 201 8 305 16 105 8 197 15 205 15
8 1 -5 12 -30 25 -51 27 -47 33 7 10 47 -20 50 -19 25 8 -12 13 -20 26 -17 29
3 2 -39 54 -92 114 l-97 109 78 -72 c91 -85 156 -138 156 -127 0 4 9 -1 21
-12 20 -18 20 -18 13 11 -4 17 -13 45 -21 63 -7 17 -11 32 -8 32 2 0 15 -23
27 -52 l22 -52 7 34 c6 30 23 284 32 485 2 38 4 26 5 -35 2 -102 17 -337 28
-435 l6 -59 29 54 c34 66 36 63 8 -10 l-21 -55 22 20 c11 10 28 20 37 21 9 2
34 20 57 41 22 21 70 65 105 98 61 57 60 54 -24 -40 -49 -55 -100 -113 -114
-129 -14 -16 -19 -25 -11 -21 10 5 8 1 -4 -13 -23 -26 -14 -27 44 -7 58 21 63
12 5 -10 -25 -10 -44 -19 -42 -21 5 -5 390 -34 447 -34 l45 0 52 83 c149 238
241 499 273 769 15 130 8 386 -14 507 -63 342 -209 643 -433 891 -276 306
-625 500 -1034 576 -118 22 -428 27 -551 9z m1091 -652 c1 -39 15 -42 50 -10
l25 22 -22 -31 c-20 -30 -21 -32 -4 -40 9 -4 46 -11 82 -14 l65 -7 -63 -1
c-35 -1 -72 -7 -83 -12 -18 -10 -18 -12 -2 -38 17 -27 17 -27 -3 -9 -30 25
-44 21 -45 -15 -1 -18 -5 -44 -9 -58 -6 -19 -8 -12 -9 32 -1 60 -5 63 -51 39
l-25 -14 23 25 22 25 -25 11 c-14 7 -54 13 -88 14 -42 1 -49 2 -22 5 129 10
142 17 108 57 -18 20 -18 20 9 3 42 -26 48 -22 49 41 1 43 3 51 9 32 4 -14 8
-40 9 -57z m-1210 -1125 c1 -52 11 -61 30 -25 11 21 11 21 6 0 -10 -36 28 -17
107 56 l73 66 -71 -80 c-81 -91 -97 -120 -61 -110 22 6 22 6 -2 -8 -21 -12
-11 -14 100 -20 67 -4 150 -8 183 -8 51 -2 -169 -24 -279 -28 l-30 -2 25 -15
c24 -14 24 -15 2 -9 -22 6 -22 5 -10 -17 7 -12 38 -50 68 -83 53 -58 37 -48
-45 26 -81 74 -92 60 -103 -136 l-8 -140 -7 130 c-5 72 -11 143 -14 159 l-5
30 -15 -25 c-13 -23 -13 -23 -8 -2 6 20 4 22 -15 15 -11 -4 -51 -35 -88 -67
l-67 -60 65 73 c69 78 88 110 67 117 -6 3 -88 11 -182 18 l-170 13 175 8 c101
4 177 12 181 18 8 13 -15 59 -42 84 -12 10 -30 33 -42 49 -17 26 -14 24 24
-11 24 -22 58 -51 76 -62 l31 -22 -5 22 c-3 17 -2 19 5 10 12 -18 19 18 29
168 l8 115 6 -100 c4 -55 7 -121 8 -147z"/>
<path d="M6030 3640 c-222 -47 -364 -146 -494 -343 -32 -48 -59 -87 -61 -85
-1 2 2 62 6 133 4 72 8 158 8 193 l1 62 -203 0 -204 0 -6 -457 c-7 -441 -15
-708 -37 -1158 -18 -367 -40 -748 -45 -807 l-6 -58 221 0 220 0 0 303 c0 515
24 1032 56 1219 59 348 253 592 520 654 87 20 248 20 345 0 40 -9 79 -16 84
-16 7 0 7 60 1 179 l-9 179 -62 11 c-91 16 -238 12 -335 -9z"/>
<path d="M7665 3654 c-229 -23 -425 -56 -616 -104 l-85 -22 -22 -155 c-12 -86
-21 -157 -20 -158 2 -2 44 13 93 32 133 51 303 98 450 124 110 20 164 24 355
24 205 0 232 -2 304 -23 93 -27 150 -58 205 -113 63 -64 86 -120 86 -214 0
-96 -22 -148 -96 -229 -84 -92 -209 -144 -543 -226 -518 -127 -738 -210 -919
-346 -183 -137 -267 -300 -267 -515 0 -247 120 -460 318 -562 218 -114 609
-137 1047 -62 l40 7 32 127 c17 69 35 135 39 145 6 17 4 18 -17 12 -222 -62
-311 -76 -489 -76 -289 0 -451 75 -533 248 -29 61 -32 76 -31 157 1 116 26
184 96 261 83 90 204 163 371 225 45 17 214 68 375 115 308 88 417 131 511
203 30 22 58 41 62 41 3 0 5 -19 3 -42 -2 -24 -11 -200 -19 -393 -9 -192 -27
-489 -40 -660 -14 -170 -25 -320 -25 -332 l0 -23 218 0 219 0 6 313 c7 305 21
608 52 1113 22 351 22 571 1 658 -55 232 -242 369 -586 431 -91 16 -474 29
-575 19z"/>
<path d="M10335 3650 c-156 -14 -371 -47 -600 -93 l-210 -42 -2 -110 c-23
-1174 -96 -2958 -138 -3350 l-6 -50 219 0 219 0 7 250 c3 138 13 448 21 690 8
242 15 477 15 523 0 45 3 82 8 81 4 0 36 -41 72 -90 122 -169 257 -269 450
-333 248 -82 500 -86 740 -10 161 50 282 124 401 245 218 220 351 546 378 929
21 299 -26 562 -144 805 -151 308 -381 468 -780 541 -105 19 -492 27 -650 14z
m441 -300 c120 -15 189 -35 289 -85 106 -52 168 -103 237 -194 125 -166 188
-381 188 -645 0 -358 -111 -671 -304 -859 -318 -309 -846 -264 -1123 96 -123
159 -164 320 -163 637 0 175 21 672 36 843 8 92 -7 80 183 133 260 71 480 96
657 74z"/>
<path d="M3986 3475 c-3 -71 -8 -247 -11 -390 -8 -353 -51 -1295 -75 -1647
-11 -157 -20 -293 -20 -302 0 -14 26 -16 228 -16 l229 0 6 433 c9 574 25 977
67 1667 11 179 21 338 22 353 l3 28 -222 2 -221 2 -6 -130z"/>
<path d="M3210 1504 c-14 -1 -112 -8 -219 -15 l-194 -12 54 -28 c65 -34 59
-37 -13 -8 l-53 21 23 -25 c13 -13 22 -29 20 -35 -2 -6 37 -55 87 -109 l90
-98 -95 85 c-133 117 -144 127 -135 110 5 -10 1 -8 -13 4 -27 23 -28 11 -3
-54 25 -66 17 -64 -12 3 l-24 52 -7 -53 c-9 -69 -25 -346 -21 -351 6 -6 146
84 233 148 104 78 208 176 285 269 92 112 92 107 -3 96z"/>
<path d="M6741 589 c-15 -43 -14 -49 7 -49 14 0 62 58 62 75 0 3 -13 5 -29 5
-24 0 -31 -6 -40 -31z"/>
<path d="M2530 492 c0 -66 -3 -160 -6 -210 l-7 -92 26 0 c25 0 25 2 32 88 8
110 20 148 53 170 38 25 101 20 125 -9 18 -22 19 -35 13 -136 l-6 -113 30 0
30 0 0 133 c0 126 -1 135 -23 155 -46 43 -152 37 -199 -11 l-20 -22 7 83 7 82
-31 0 -31 0 0 -118z"/>
<path d="M3460 590 c0 -16 7 -20 30 -20 23 0 30 4 30 20 0 16 -7 20 -30 20
-23 0 -30 -4 -30 -20z"/>
<path d="M4907 586 c-21 -20 -27 -34 -27 -68 0 -25 7 -54 17 -68 14 -20 15
-24 2 -28 -8 -3 -31 -22 -51 -42 -50 -49 -53 -103 -9 -152 27 -30 34 -33 105
-36 62 -3 82 -1 109 15 33 20 34 20 56 2 13 -11 37 -19 54 -19 l31 0 -33 34
c-31 32 -33 37 -22 67 18 52 14 89 -9 89 -13 0 -22 -9 -26 -27 -12 -58 -13
-58 -50 -22 -62 59 -124 149 -124 178 0 51 55 77 118 57 21 -7 23 -5 20 16 -3
21 -8 23 -69 26 -58 3 -68 0 -92 -22z m87 -257 c33 -35 55 -66 52 -74 -3 -8
-23 -19 -46 -25 -71 -19 -140 18 -140 76 0 19 54 84 70 84 3 0 32 -27 64 -61z"/>
<path d="M5776 443 c-4 -93 -9 -187 -13 -211 -5 -41 -5 -42 25 -42 l29 0 7
193 c4 105 10 200 12 210 4 13 -1 17 -24 17 l-29 0 -7 -167z"/>
<path d="M7520 528 c0 -46 -3 -140 -7 -210 l-6 -128 25 0 26 0 6 117 c3 65 9
160 12 211 l5 92 -30 0 -31 0 0 -82z"/>
<path d="M8400 590 c0 -16 7 -20 30 -20 23 0 30 4 30 20 0 16 -7 20 -30 20
-23 0 -30 -4 -30 -20z"/>
<path d="M1419 562 c-9 -2 -19 -16 -23 -33 -4 -21 -11 -29 -26 -29 -13 0 -20
-7 -20 -20 0 -14 7 -20 21 -20 20 0 20 -3 13 -118 -8 -143 -2 -155 80 -150 40
2 52 7 54 22 3 16 -1 18 -23 14 -19 -4 -33 0 -47 14 -17 17 -20 29 -14 72 3
28 6 72 6 99 l0 47 45 0 c38 0 45 3 45 20 0 17 -7 20 -44 20 -43 0 -45 1 -48
33 -2 24 -7 32 -19 29z"/>
<path d="M6988 563 c-12 -3 -18 -14 -18 -33 0 -22 -5 -29 -22 -32 -31 -4 -37
-38 -7 -38 22 0 22 -1 16 -113 -8 -144 -1 -157 79 -157 48 0 54 2 54 21 0 17
-4 20 -22 16 -12 -3 -30 -2 -40 4 -16 8 -18 23 -18 119 l0 110 45 0 c38 0 45
3 45 20 0 17 -7 20 -40 20 -39 0 -40 1 -40 35 0 19 -3 34 -7 34 -5 -1 -16 -3
-25 -6z"/>
<path d="M875 506 c-5 -2 -22 -7 -37 -10 -19 -4 -28 -13 -28 -26 0 -17 4 -18
26 -10 39 15 130 12 144 -5 29 -35 -1 -63 -101 -90 -80 -21 -109 -47 -109 -96
0 -60 25 -79 104 -79 49 0 65 4 70 16 3 9 6 16 6 17 0 1 -20 1 -44 -1 -53 -5
-86 11 -86 40 0 33 28 57 89 74 31 9 62 21 70 28 12 9 13 -3 8 -81 l-6 -93 30
0 29 0 0 93 c0 50 3 108 6 128 5 28 1 41 -18 63 -19 23 -33 28 -83 32 -33 2
-64 2 -70 0z"/>
<path d="M1171 499 c-31 -12 -50 -38 -51 -68 0 -17 19 -44 65 -88 36 -35 65
-69 65 -77 0 -34 -51 -48 -118 -32 -31 7 -33 6 -30 -16 3 -21 8 -23 74 -26 87
-3 124 18 124 72 0 35 -22 64 -87 113 -62 47 -32 102 48 89 34 -5 39 -4 39 13
0 29 -76 41 -129 20z"/>
<path d="M1680 503 c-8 -3 -23 -12 -32 -21 -16 -14 -18 -13 -18 1 0 11 -8 17
-25 17 -19 0 -25 -5 -26 -22 -1 -13 -4 -83 -8 -156 l-6 -132 26 0 27 0 4 105
c4 125 21 158 81 163 32 3 37 7 37 28 0 18 -5 24 -22 23 -13 0 -30 -3 -38 -6z"/>
<path d="M1863 491 c-47 -22 -71 -53 -84 -111 -14 -60 3 -119 45 -157 33 -31
41 -33 105 -33 61 0 73 3 102 27 81 69 79 213 -4 268 -40 26 -116 29 -164 6z
m142 -51 c29 -27 39 -78 26 -128 -24 -88 -116 -117 -172 -54 -23 26 -29 42
-29 80 0 53 28 107 63 122 32 14 86 4 112 -20z"/>
<path d="M2245 505 c-5 -2 -26 -6 -46 -9 l-36 -6 -7 -198 c-4 -108 -10 -207
-13 -219 -4 -19 -1 -22 26 -21 l31 1 0 89 c0 48 3 88 6 88 3 0 17 -9 31 -20
18 -14 41 -20 79 -20 71 0 117 37 134 110 30 126 -35 212 -160 209 -19 0 -39
-2 -45 -4z m133 -71 c21 -24 24 -35 20 -90 -6 -93 -54 -137 -125 -113 -47 15
-63 52 -63 143 0 72 1 75 28 85 47 18 113 7 140 -25z"/>
<path d="M3253 500 c-33 -14 -55 -53 -47 -84 3 -15 33 -50 65 -78 65 -56 72
-79 34 -104 -21 -14 -32 -15 -71 -5 -52 13 -59 11 -49 -18 6 -19 14 -21 79
-21 88 0 116 19 116 77 0 32 -8 43 -60 91 -33 30 -60 63 -60 73 0 28 36 42 86
34 44 -6 51 -2 35 24 -11 17 -97 25 -128 11z"/>
<path d="M3711 501 c-75 -19 -122 -77 -129 -156 -8 -101 35 -155 126 -155 40
0 57 6 82 27 l32 27 -3 -97 -4 -97 28 0 27 0 1 98 c0 53 4 153 8 222 4 69 6
126 6 127 -4 8 -146 11 -174 4z m108 -40 c19 -12 9 -137 -14 -181 -38 -73
-140 -71 -165 5 -22 68 10 143 74 171 36 15 85 18 105 5z"/>
<path d="M4416 500 c-64 -20 -96 -73 -96 -160 0 -113 46 -153 169 -148 66 3
75 5 82 26 8 21 6 22 -19 15 -15 -5 -48 -8 -74 -8 -61 0 -97 32 -105 93 l-6
42 117 0 116 0 0 30 c0 89 -84 140 -184 110z m114 -50 c11 -11 20 -29 20 -40
0 -18 -7 -20 -85 -20 -95 0 -106 10 -60 55 31 32 96 34 125 5z"/>
<path d="M5480 504 c-73 -13 -68 -6 -74 -106 -3 -51 -8 -150 -11 -219 l-6
-126 24 0 c22 0 25 5 31 51 3 28 6 70 6 93 l0 42 26 -24 c36 -33 128 -36 166
-5 36 28 58 80 58 139 0 65 -19 112 -55 135 -28 18 -116 29 -165 20z m131 -62
c83 -74 21 -239 -82 -217 -59 13 -87 82 -72 176 7 45 12 54 33 60 54 15 89 10
121 -19z"/>
<path d="M5975 503 c-35 -6 -55 -20 -55 -40 0 -10 6 -13 18 -8 66 25 154 20
166 -10 13 -36 -7 -49 -115 -80 -101 -28 -136 -88 -88 -149 19 -24 27 -26 90
-26 59 0 69 3 69 18 0 14 -8 16 -48 14 -38 -3 -51 0 -67 18 -18 19 -18 24 -5
47 11 19 34 33 84 50 39 12 72 23 75 23 4 0 4 -38 2 -85 -3 -85 -3 -85 22 -85
25 0 25 0 32 129 5 88 4 135 -4 149 -18 34 -88 47 -176 35z"/>
<path d="M6366 500 c-15 -5 -37 -17 -47 -26 -18 -16 -19 -16 -19 4 0 17 -6 22
-24 22 -27 0 -29 -8 -40 -217 l-6 -93 30 0 30 0 0 78 c0 140 31 192 115 192
69 0 77 -17 73 -154 l-3 -116 26 0 26 0 6 121 c7 145 -2 172 -61 188 -43 13
-66 13 -106 1z"/>
<path d="M6682 490 c-34 -15 -47 -29 -64 -66 -37 -85 -13 -188 53 -221 13 -7
59 -13 101 -13 69 0 77 2 83 21 4 11 5 22 3 24 -1 1 -26 -2 -54 -8 -68 -14
-122 11 -143 65 -23 64 -17 68 115 68 l117 0 -6 36 c-8 50 -32 83 -72 100 -46
19 -82 17 -133 -6z m130 -37 c9 -10 19 -28 22 -40 7 -23 6 -23 -83 -23 -58 0
-91 4 -91 11 0 6 13 24 29 40 35 35 98 41 123 12z"/>
<path d="M7235 499 c-86 -25 -130 -139 -91 -234 21 -50 68 -75 141 -75 105 0
158 53 159 160 0 73 -23 116 -77 141 -45 20 -84 22 -132 8z m106 -44 c35 -19
49 -50 49 -108 0 -88 -70 -144 -143 -113 -42 17 -60 47 -61 101 -1 56 20 101
57 119 40 20 61 20 98 1z"/>
<path d="M7737 496 c-72 -27 -97 -66 -97 -154 0 -66 26 -117 70 -139 37 -19
136 -16 170 4 89 52 94 234 9 279 -43 22 -109 26 -152 10z m132 -61 c22 -22
26 -34 26 -83 -1 -69 -22 -106 -70 -122 -91 -30 -160 60 -125 165 24 74 114
95 169 40z"/>
<path d="M8135 501 c-103 -26 -159 -136 -120 -236 20 -55 54 -75 123 -75 36 0
59 7 85 25 l36 24 -5 -47 c-13 -101 -69 -128 -201 -95 -18 4 -23 1 -23 -15 0
-26 25 -34 114 -35 77 -1 127 17 146 53 9 17 34 389 27 396 -7 8 -157 12 -182
5z m109 -37 c12 -5 16 -21 16 -70 0 -111 -38 -167 -112 -167 -33 0 -47 6 -65
27 -32 37 -32 110 0 157 31 46 111 72 161 53z"/>
<path d="M8625 503 c-85 -22 -135 -156 -90 -243 29 -56 59 -70 151 -70 75 0
83 2 89 21 4 11 5 22 3 24 -1 1 -27 -2 -55 -8 -68 -14 -117 6 -139 58 -30 74
-29 75 107 75 l122 0 -6 36 c-14 86 -89 130 -182 107z m102 -48 c11 -8 23 -26
25 -40 l5 -25 -88 0 c-57 0 -89 4 -89 11 0 6 13 24 29 40 33 33 82 39 118 14z"/>
<path d="M2873 483 c3 -10 27 -82 55 -159 l51 -142 -21 -42 c-23 -45 -55 -64
-94 -54 -19 5 -24 2 -24 -14 0 -36 108 -35 139 2 11 14 179 377 188 409 5 15
1 18 -22 15 -25 -3 -32 -14 -78 -125 -29 -68 -54 -123 -57 -123 -4 0 -24 56
-46 125 -38 121 -40 125 -68 125 -22 0 -27 -4 -23 -17z"/>
<path d="M3460 413 c0 -49 -3 -118 -7 -155 l-6 -68 32 0 31 0 0 109 c0 59 3
129 6 155 l7 46 -32 0 -31 0 0 -87z"/>
<path d="M3960 366 c0 -133 0 -135 26 -155 38 -30 140 -30 178 0 l26 20 0 -20
c0 -15 6 -21 24 -21 24 0 24 2 30 108 4 59 8 128 11 155 4 46 4 47 -25 47
l-30 0 0 -77 c0 -97 -13 -146 -47 -173 -31 -24 -89 -26 -122 -3 -23 16 -24 18
-18 135 l5 118 -29 0 -29 0 0 -134z"/>
<path d="M8400 422 c0 -44 -3 -113 -6 -155 l-7 -77 32 0 31 0 0 118 c0 64 3
134 6 155 6 36 6 37 -25 37 l-31 0 0 -78z"/>
</g>
</svg>
