<?xml version="1.0" standalone="no"?>
<!DOCTYPE svg PUBLIC "-//W3C//DTD SVG 20010904//EN"
 "http://www.w3.org/TR/2001/REC-SVG-20010904/DTD/svg10.dtd">
<svg version="1.0" xmlns="http://www.w3.org/2000/svg"
 width="1200.000000pt" height="1370.000000pt" viewBox="0 0 1200.000000 1370.000000"
 preserveAspectRatio="xMidYMid meet">

<g transform="translate(0.000000,1370.000000) scale(0.100000,-0.100000)"
fill="#000000" stroke="none">
<path d="M5925 13490 c-500 -57 -830 -472 -957 -1206 -32 -184 -32 -543 0
-717 12 -66 22 -125 22 -131 0 -20 -215 -79 -380 -105 -113 -18 -285 -30 -343
-24 l-56 6 25 36 c13 19 24 50 24 67 0 40 -192 832 -220 906 -40 107 -86 136
-172 105 -99 -36 -381 -158 -484 -210 -888 -447 -1727 -1368 -2280 -2501 -341
-699 -603 -1496 -728 -2216 -49 -281 -128 -915 -157 -1265 -6 -77 -11 -221
-12 -320 -1 -273 -4 -270 254 -270 l177 0 17 -105 c220 -1369 1145 -2801 2530
-3916 611 -491 1301 -896 1975 -1159 246 -96 578 -198 776 -239 l72 -15 182
45 c1145 284 2403 1047 3382 2053 971 997 1580 2098 1771 3200 l23 134 161 -2
c245 -3 261 8 270 191 14 287 -91 1259 -193 1788 -170 884 -542 1875 -971
2590 -175 290 -404 611 -616 863 -137 164 -486 514 -630 633 -347 286 -686
493 -1035 632 -70 28 -154 63 -187 76 -33 14 -70 26 -83 26 -61 0 -103 -51
-136 -166 -26 -86 -206 -841 -206 -862 0 -10 11 -36 25 -57 15 -20 23 -40 20
-43 -7 -7 -192 -9 -199 -2 -11 11 -43 356 -35 378 66 180 -7 498 -173 753 -30
46 -94 144 -142 218 -317 487 -622 740 -985 816 -88 18 -239 25 -326 15z m315
-85 c294 -62 564 -264 822 -616 101 -137 329 -499 360 -572 93 -218 105 -460
28 -568 -34 -47 -120 -83 -200 -83 -88 0 -153 30 -223 103 -102 107 -138 207
-182 509 -41 286 -75 383 -186 532 -114 154 -267 281 -396 330 -213 81 -456
-9 -592 -219 -92 -143 -135 -331 -135 -591 0 -428 142 -831 494 -1405 292
-475 382 -673 435 -948 21 -112 21 -119 -9 -106 -36 17 -64 6 -139 -56 -69
-57 -139 -97 -190 -109 l-27 -7 40 82 c23 45 62 112 86 149 36 53 45 75 42
101 l-3 34 -68 0 c-59 0 -68 3 -73 20 -3 11 -19 41 -35 66 -60 94 -127 84
-183 -27 l-30 -60 -62 4 c-55 4 -63 2 -73 -16 -14 -26 -3 -55 48 -130 21 -31
57 -95 80 -141 l43 -84 -29 7 c-52 13 -114 48 -181 103 -37 31 -77 59 -89 64
-17 6 -23 17 -23 40 0 62 -51 280 -99 427 -28 82 -104 289 -171 458 -187 475
-245 656 -287 899 -24 143 -24 498 0 653 102 637 368 1036 766 1146 133 37
297 41 441 11z m5 -436 c131 -54 272 -175 373 -322 96 -139 121 -220 167 -532
28 -191 57 -296 107 -383 34 -61 124 -161 161 -181 17 -9 32 -33 47 -75 13
-33 25 -67 28 -75 6 -17 -1 -15 -198 59 -274 102 -588 188 -766 211 -112 14
-273 7 -383 -16 -41 -8 -75 -14 -76 -13 -8 10 -59 211 -75 293 -52 270 -28
578 59 769 110 241 343 352 556 265z m-2280 -593 c13 -13 33 -54 45 -92 19
-62 190 -757 190 -774 0 -3 -21 -7 -47 -7 -129 -2 -554 -221 -875 -451 -242
-173 -491 -403 -677 -627 -456 -550 -772 -1121 -997 -1805 -248 -752 -373
-1386 -428 -2180 -27 -381 -37 -652 -26 -689 5 -19 7 -37 4 -40 -8 -8 -698
-33 -788 -28 -117 6 -116 5 -116 228 0 392 110 1338 211 1813 168 793 495
1673 857 2311 468 826 1059 1492 1702 1919 269 179 499 295 845 426 65 25 71
25 100 -4z m4225 -16 c36 -16 115 -48 176 -73 473 -193 905 -496 1344 -944
723 -736 1262 -1681 1633 -2863 108 -343 191 -683 246 -1010 51 -298 124 -885
152 -1230 14 -166 18 -472 7 -512 -14 -49 -43 -52 -442 -39 -437 14 -470 16
-461 39 16 39 17 102 6 324 -52 1040 -168 1704 -448 2553 -172 523 -362 918
-646 1345 -416 623 -863 1043 -1462 1373 -210 115 -416 195 -472 181 -21 -6
-23 -4 -18 17 3 13 32 137 65 274 126 521 144 579 184 595 27 11 55 4 136 -30z
m-1893 -755 c140 -29 337 -86 503 -144 302 -106 344 -121 350 -128 4 -4 26
-57 50 -118 24 -60 52 -127 62 -148 11 -22 18 -41 15 -43 -6 -7 -246 62 -377
109 -414 147 -692 205 -940 195 l-128 -6 -12 27 c-7 14 -32 75 -56 135 -34 83
-42 111 -32 117 12 7 96 23 178 33 83 10 269 -4 387 -29z m-2089 -157 c39 -39
-15 -108 -121 -155 -34 -16 -90 -42 -124 -59 -70 -34 -63 -39 -84 59 -8 38 -9
61 -2 68 5 5 59 30 119 54 112 46 187 58 212 33z m3733 -7 c96 -33 200 -84
196 -95 -3 -6 -10 -38 -17 -71 -15 -75 -18 -80 -38 -61 -10 8 -42 24 -72 36
-144 57 -230 119 -230 167 0 44 73 55 161 24z m-2902 -178 c18 -65 35 -123 37
-129 8 -20 -298 -107 -486 -138 -151 -24 -257 -29 -373 -17 -198 22 -297 70
-297 145 0 43 15 56 138 109 l103 45 71 -10 c131 -20 448 21 663 86 44 13 87
24 96 25 11 1 24 -29 48 -116z m-1144 -200 c18 -41 81 -77 181 -104 106 -29
381 -32 524 -5 109 19 327 75 414 105 33 12 64 21 71 21 7 0 18 -19 24 -42 7
-24 68 -180 136 -348 217 -537 272 -729 278 -960 l2 -104 -32 -9 c-114 -33
-135 -164 -33 -208 29 -13 31 -17 26 -51 -6 -37 -64 -236 -85 -291 l-11 -29
-42 31 c-48 35 -108 105 -145 169 l-26 43 22 22 c35 38 44 79 27 120 -20 50
-56 71 -109 64 -57 -8 -87 -43 -87 -103 0 -51 28 -88 75 -100 27 -7 27 -8 20
-67 -18 -163 -86 -286 -183 -334 -50 -24 -69 -28 -147 -28 -82 0 -97 3 -155
32 -65 32 -140 87 -140 102 0 12 173 32 268 30 66 -1 87 3 103 17 28 26 23 59
-16 103 l-36 39 25 37 c45 65 46 135 5 176 -18 18 -30 20 -78 16 -31 -3 -65
-8 -77 -12 -18 -5 -23 0 -38 39 -20 51 -46 71 -81 62 -33 -8 -58 -49 -85 -132
-23 -75 -81 -189 -95 -189 -16 0 -26 61 -31 190 -3 72 -7 140 -10 152 -9 45
-81 36 -128 -15 l-18 -21 -37 25 c-51 33 -96 45 -128 33 -18 -6 -23 -14 -19
-26 4 -9 81 -138 173 -287 91 -149 168 -275 171 -280 19 -34 -136 94 -211 173
-167 178 -241 347 -241 551 0 117 18 205 66 310 26 59 115 210 123 210 1 0 29
-13 60 -30 48 -25 68 -30 129 -30 104 0 159 22 228 90 45 45 60 69 73 115 45
154 -49 326 -210 382 -40 15 -82 18 -215 17 -143 0 -181 -4 -284 -28 -411 -95
-743 -315 -1067 -706 -459 -554 -723 -1096 -823 -1690 -56 -336 -77 -841 -42
-1039 17 -98 44 -171 75 -206 16 -17 19 -45 24 -215 12 -380 80 -733 226
-1170 83 -246 134 -377 282 -711 147 -335 194 -457 234 -615 44 -171 58 -312
50 -491 -6 -124 -5 -146 9 -168 12 -19 25 -25 52 -25 70 0 126 48 173 151 26
54 38 68 70 83 23 9 72 51 113 95 78 83 127 169 148 259 10 42 23 64 60 101
53 53 109 161 134 256 9 33 21 111 28 173 12 107 14 114 40 130 38 22 73 92
102 207 53 212 83 444 93 730 l6 190 38 33 c75 65 136 224 176 461 28 164 39
139 35 -81 l-3 -193 -39 -77 c-53 -104 -53 -143 0 -244 l40 -76 0 -152 c0
-176 10 -246 44 -297 24 -35 24 -41 28 -315 4 -239 8 -293 27 -378 49 -226
151 -473 270 -651 162 -245 446 -497 793 -703 118 -70 126 -76 105 -87 -17 -8
-31 -8 -61 3 -28 9 -47 10 -67 3 -20 -7 -39 -7 -59 1 -17 5 -47 8 -68 6 -20
-3 -51 1 -69 9 -18 7 -47 13 -65 13 -18 0 -42 7 -52 15 -11 8 -38 15 -61 15
-23 0 -50 7 -61 15 -10 8 -33 15 -50 15 -17 0 -37 7 -45 16 -17 21 -64 44 -89
44 -12 0 -33 9 -47 20 -14 11 -37 20 -51 20 -14 0 -38 12 -53 26 -15 14 -41
27 -57 29 -16 1 -42 12 -57 23 -15 12 -37 22 -48 22 -10 0 -35 13 -54 30 -18
16 -42 30 -53 30 -10 0 -36 11 -57 25 -20 14 -46 25 -58 24 -19 -2 -51 10
-133 50 -24 12 -37 13 -49 5 -12 -7 -26 -8 -44 -1 -14 6 -35 7 -45 2 -10 -4
-29 -7 -41 -6 -12 1 -31 -7 -42 -18 -12 -12 -24 -21 -29 -21 -12 0 -72 -66
-72 -80 0 -8 -7 -21 -16 -31 -17 -19 -23 -45 -30 -136 -2 -35 0 -63 5 -63 4 0
6 -12 3 -27 -3 -16 1 -30 9 -37 8 -6 19 -24 25 -41 6 -16 15 -29 21 -28 6 1
14 -10 18 -25 9 -36 23 -52 41 -45 9 3 14 -2 14 -17 0 -32 19 -62 36 -56 10 4
14 -3 14 -23 0 -31 22 -57 40 -46 6 3 10 -3 10 -15 0 -11 11 -32 25 -46 17
-17 25 -36 25 -59 0 -21 7 -41 18 -50 28 -24 70 -67 113 -117 23 -26 56 -53
74 -59 22 -8 41 -26 56 -53 29 -54 430 -459 442 -447 5 5 4 17 -2 29 -17 32
-13 39 21 34 l32 -5 -17 27 -17 26 35 0 c32 0 35 2 25 19 -16 32 -12 41 20 41
30 0 30 0 14 25 l-16 25 37 0 37 0 -16 25 -16 25 35 0 36 0 -16 30 -16 30 36
0 c35 0 35 0 19 24 l-15 25 42 3 43 3 -191 135 c-105 74 -231 155 -280 180
-57 29 -103 60 -127 87 -26 29 -53 47 -89 59 -29 9 -65 29 -82 44 -39 36 -64
43 -97 26 -26 -14 -28 -13 -40 12 -7 15 -23 28 -35 30 -15 2 -23 11 -25 30 -2
16 -12 31 -25 37 -16 7 -23 18 -23 37 0 17 -8 33 -20 40 -11 7 -20 20 -20 30
0 9 -9 23 -19 30 -12 8 -22 32 -26 61 -9 56 13 112 50 129 26 12 111 3 120
-13 4 -5 13 -9 22 -9 8 0 27 -9 41 -20 14 -12 35 -20 47 -18 12 1 34 -7 49
-20 16 -12 38 -22 49 -22 11 0 35 -11 53 -25 18 -14 41 -25 51 -25 10 -1 34
-14 53 -30 19 -17 45 -30 57 -30 13 0 42 -12 64 -27 29 -19 43 -23 51 -15 8 8
21 2 49 -20 27 -22 45 -29 64 -26 14 3 28 1 31 -3 12 -19 80 -47 94 -39 10 6
22 1 38 -15 29 -30 86 -42 107 -25 9 7 15 8 15 2 0 -16 84 -41 102 -31 10 6
26 3 44 -6 34 -17 85 -20 101 -4 8 8 17 7 34 -4 42 -26 87 -29 106 -7 15 17
19 17 37 4 25 -17 87 -18 105 -1 10 10 11 7 7 -13 -32 -158 5 -360 103 -566
60 -126 103 -193 171 -268 41 -44 63 -80 90 -150 107 -271 225 -319 346 -140
22 33 55 98 74 145 25 64 47 99 91 146 99 107 204 299 255 469 23 77 27 108
28 226 l1 138 30 0 c17 0 41 6 55 13 21 10 27 10 41 -4 13 -13 26 -15 58 -9
22 4 47 13 55 19 10 8 16 9 21 1 9 -15 65 -12 98 5 22 11 34 12 49 4 16 -8 30
-6 68 13 32 16 52 21 62 14 21 -13 66 1 93 28 14 14 28 20 36 16 15 -10 57 5
82 28 11 9 30 15 44 14 25 -4 72 21 86 45 6 9 13 10 26 3 14 -7 28 -4 55 15
20 14 48 25 61 25 13 0 40 14 58 30 19 17 43 30 52 30 10 0 33 11 51 25 18 14
43 25 56 25 13 0 34 10 48 23 15 13 34 21 48 19 13 -2 31 3 40 11 45 38 125
62 177 53 46 -9 70 -59 61 -130 -3 -29 -12 -53 -21 -58 -8 -5 -15 -19 -15 -32
0 -15 -9 -27 -25 -34 -18 -8 -25 -19 -25 -39 0 -20 -7 -31 -23 -38 -13 -6 -23
-21 -25 -37 -2 -20 -9 -28 -23 -28 -13 0 -24 -10 -30 -30 -13 -35 -8 -34 -47
-15 -28 14 -34 14 -61 1 -16 -9 -36 -24 -43 -34 -7 -10 -35 -25 -63 -32 -37
-10 -63 -27 -98 -63 -30 -31 -76 -63 -119 -84 -69 -33 -232 -140 -401 -264
l-81 -59 43 0 c38 0 41 -2 31 -19 -15 -28 -13 -31 20 -31 35 0 36 -2 14 -35
l-16 -25 37 0 37 0 -16 -25 -16 -25 35 0 c32 0 35 -2 25 -19 -15 -28 -13 -31
20 -31 35 0 36 -2 14 -35 l-16 -25 37 0 37 0 -16 -25 c-16 -25 -16 -25 14 -25
32 0 36 -9 20 -41 -8 -14 -7 -19 2 -19 20 0 421 409 442 450 13 25 31 41 63
54 30 12 55 33 76 63 36 51 64 81 97 104 17 11 23 25 22 49 0 22 8 44 24 63
13 15 24 36 24 46 0 12 7 17 22 17 17 -1 25 8 34 39 7 22 13 36 13 31 2 -18
30 17 36 44 4 19 11 27 20 24 16 -6 35 25 35 57 0 12 3 19 7 16 11 -11 33 14
33 38 0 13 7 25 15 29 9 3 15 18 15 35 0 16 5 33 11 37 6 4 8 17 3 33 -3 14
-6 40 -5 58 1 17 -3 34 -9 38 -6 4 -8 15 -5 25 4 12 -2 27 -14 39 -10 10 -17
22 -13 25 6 7 -68 86 -80 86 -5 0 -17 9 -29 21 -11 11 -30 19 -42 18 -12 -1
-31 2 -41 6 -10 5 -31 4 -45 -2 -18 -7 -32 -6 -44 1 -13 8 -25 7 -48 -7 -17
-9 -36 -17 -43 -17 -8 0 -24 -9 -38 -19 -15 -13 -33 -18 -47 -14 -14 3 -35 -4
-61 -21 -22 -14 -49 -26 -59 -26 -11 0 -36 -13 -54 -30 -19 -16 -40 -30 -47
-30 -7 0 -29 -9 -49 -19 -20 -11 -48 -22 -63 -25 -14 -3 -40 -17 -56 -31 -17
-14 -40 -25 -53 -25 -13 0 -35 -9 -49 -20 -14 -11 -36 -20 -49 -20 -26 0 -91
-36 -91 -51 0 -5 -15 -9 -32 -9 -18 -1 -44 -7 -58 -15 -14 -8 -41 -15 -60 -15
-19 0 -46 -7 -60 -15 -14 -8 -39 -14 -57 -15 -17 0 -44 -5 -60 -11 -32 -13
-129 -20 -230 -17 -23 0 -49 -4 -56 -11 -11 -8 -21 -8 -41 3 l-27 13 108 63
c548 319 846 642 1016 1100 84 226 107 375 107 694 0 220 2 241 19 260 36 41
44 86 47 271 l3 180 40 78 c54 104 54 141 1 245 l-40 77 -3 193 c-2 124 1 191
7 189 6 -2 20 -62 31 -133 38 -231 123 -426 195 -449 18 -6 20 -16 20 -128 0
-67 7 -196 15 -287 40 -439 93 -655 179 -727 32 -27 34 -32 40 -117 15 -190
77 -355 168 -450 38 -40 49 -60 63 -117 9 -38 33 -95 52 -126 44 -74 155 -187
208 -212 34 -16 43 -27 59 -72 13 -34 38 -72 71 -106 45 -47 56 -53 91 -53 79
0 79 -1 80 252 1 361 32 478 284 1048 346 784 488 1317 507 1895 5 152 8 183
23 200 52 59 79 169 88 355 15 284 -18 721 -73 990 -114 563 -384 1091 -824
1615 -346 411 -743 647 -1185 706 -132 17 -306 8 -381 -21 -164 -64 -247 -255
-177 -412 47 -105 154 -168 286 -168 63 0 83 5 132 30 31 17 61 27 65 23 27
-27 112 -186 137 -257 104 -287 38 -559 -195 -807 -75 -79 -230 -207 -211
-173 3 5 80 131 171 280 92 149 169 278 173 287 4 12 -2 20 -22 27 -32 13 -70
2 -125 -35 l-37 -24 -18 21 c-22 23 -66 48 -88 48 -36 0 -46 -29 -46 -126 0
-100 -16 -233 -30 -248 -11 -11 -63 81 -90 159 -37 104 -59 145 -85 157 -38
17 -69 -2 -91 -57 -16 -38 -22 -45 -39 -39 -11 3 -45 8 -76 11 -48 4 -60 2
-78 -16 -41 -41 -40 -111 5 -176 l25 -37 -36 -39 c-39 -44 -44 -77 -16 -103
16 -14 37 -18 103 -17 81 1 258 -16 268 -26 10 -10 -75 -74 -138 -105 -50 -25
-80 -32 -140 -36 -182 -10 -293 89 -336 300 -23 109 -21 124 10 132 44 11 74
50 74 96 0 52 -13 76 -50 95 -63 32 -128 7 -150 -59 -12 -38 -1 -77 32 -113
l21 -22 -29 -48 c-41 -71 -137 -166 -194 -193 -27 -13 -52 -21 -54 -19 -3 3 0
92 7 199 10 176 13 198 34 229 30 43 29 69 -2 115 -21 31 -27 57 -36 144 -34
349 -130 594 -420 1072 -170 281 -279 471 -279 487 0 30 266 29 428 -2 106
-20 338 -87 609 -176 116 -38 257 -80 312 -93 89 -22 104 -29 141 -66 49 -49
131 -90 179 -90 57 0 112 21 122 48 5 13 7 27 4 31 -2 5 39 11 93 15 232 17
358 73 377 169 27 140 50 227 58 227 17 0 186 -93 304 -168 239 -151 425 -295
597 -462 487 -472 905 -1114 1170 -1798 174 -447 350 -1091 430 -1577 54 -320
116 -923 116 -1117 l0 -48 -140 0 c-153 0 -183 -8 -206 -52 -8 -15 -21 -94
-30 -175 -39 -380 -82 -598 -163 -842 -169 -506 -444 -1033 -747 -1433 -304
-401 -755 -870 -1169 -1215 -622 -518 -1460 -960 -2160 -1137 -77 -20 -158
-36 -180 -36 -56 0 -258 51 -444 111 -602 198 -1302 578 -1806 983 -333 267
-710 634 -1030 1002 -381 440 -684 942 -900 1494 -62 158 -126 352 -154 465
-25 100 -77 441 -91 600 -22 234 -23 235 -231 235 -148 0 -149 0 -149 23 0 42
20 311 35 482 62 683 184 1261 409 1940 175 526 366 919 653 1344 416 616 826
1000 1422 1333 l106 58 28 -122 c16 -68 34 -137 42 -155z m4008 190 c130 -59
162 -78 175 -106 12 -24 11 -32 -5 -59 -10 -18 -32 -40 -49 -50 -48 -28 -169
-55 -280 -63 l-101 -7 -16 59 c-20 74 -37 168 -37 207 l0 31 72 -3 c40 -1 93
2 118 7 25 5 49 9 54 10 4 1 36 -11 69 -26z m-3556 -598 c101 -30 164 -98 185
-197 15 -77 -2 -131 -61 -189 -54 -55 -107 -73 -197 -67 -100 6 -154 61 -183
184 -35 148 -112 173 -307 102 -151 -54 -231 -149 -404 -478 -136 -260 -315
-519 -521 -756 -98 -113 -130 -156 -293 -399 -147 -220 -254 -410 -289 -510
-51 -150 -57 -197 -67 -480 -18 -505 -53 -742 -113 -753 -23 -5 -53 63 -72
161 -42 222 -20 703 50 1083 102 554 374 1095 814 1619 376 449 826 690 1297
694 71 1 128 -4 161 -14z m3640 4 c439 -60 823 -300 1179 -740 378 -466 615
-919 733 -1402 105 -424 138 -1040 71 -1302 -22 -85 -33 -105 -60 -105 -55 0
-95 273 -110 750 -7 248 -11 284 -33 365 -14 50 -35 111 -46 138 -11 26 -20
49 -21 52 0 13 -99 201 -153 290 -110 184 -239 360 -428 585 -202 241 -354
463 -480 701 -204 385 -266 454 -473 518 -81 25 -126 27 -166 6 -34 -17 -50
-44 -86 -147 -49 -136 -98 -174 -218 -166 -77 5 -116 21 -160 64 -44 45 -60
83 -61 149 0 110 65 197 177 236 62 21 212 25 335 8z m-4110 -263 c-29 -35
-79 -99 -109 -142 -92 -130 -256 -410 -246 -419 17 -14 52 -25 58 -18 5 4 34
53 65 108 89 157 238 374 300 440 65 68 57 72 94 -47 l21 -68 -51 -76 c-97
-144 -155 -301 -165 -449 -5 -70 -11 -87 -41 -132 -49 -73 -169 -184 -233
-216 -61 -31 -139 -36 -193 -13 -78 32 -127 120 -127 227 0 54 4 65 54 142 30
45 95 160 145 255 128 244 218 369 296 410 37 19 155 62 173 62 7 0 -11 -29
-41 -64z m4331 27 c122 -49 203 -149 355 -440 47 -89 110 -200 141 -247 51
-79 56 -92 56 -143 0 -30 -5 -73 -12 -94 -14 -50 -72 -118 -115 -135 -51 -22
-130 -17 -189 10 -58 27 -166 124 -229 206 -38 50 -43 62 -49 132 -14 156 -75
321 -175 476 l-41 62 21 68 c37 119 29 115 94 47 67 -71 207 -277 296 -434 34
-62 66 -114 70 -117 7 -4 43 9 57 21 5 5 -43 97 -109 207 -80 133 -175 271
-246 354 l-56 66 34 -7 c19 -4 62 -19 97 -32z m-2160 -356 c11 -12 33 -48 47
-80 21 -46 31 -57 44 -51 9 3 37 9 64 11 44 5 47 4 47 -18 0 -13 -25 -62 -56
-109 -49 -75 -124 -218 -124 -236 0 -14 93 5 142 30 29 14 80 49 112 77 64 55
97 72 121 63 22 -9 29 -48 15 -89 -14 -43 -8 -65 20 -65 29 0 96 -36 104 -55
19 -51 3 -91 -45 -115 -21 -11 -49 -20 -63 -20 -34 0 -37 -9 -20 -65 29 -99
-12 -112 -116 -37 -117 86 -252 153 -265 132 -9 -15 69 -174 120 -245 38 -54
64 -80 147 -144 4 -4 -148 -6 -337 -6 -189 0 -341 3 -337 6 4 3 26 20 49 38
57 44 128 140 174 236 47 99 51 121 24 117 -39 -6 -162 -72 -236 -126 -112
-84 -155 -74 -125 29 17 56 14 65 -20 65 -32 0 -100 35 -108 55 -19 51 -3 91
45 115 21 11 48 20 59 20 28 0 34 22 20 65 -14 41 -7 80 15 89 24 9 57 -8 121
-63 71 -62 148 -102 209 -109 25 -2 45 -2 45 1 0 19 -69 153 -120 231 -33 51
-60 103 -60 116 0 21 3 22 48 17 26 -3 55 -7 65 -9 14 -2 23 8 36 40 24 62 67
112 95 112 12 0 32 -10 44 -23z m439 -439 c-3 -7 -5 -2 -5 12 0 14 2 19 5 13
2 -7 2 -19 0 -25z m-3248 -238 l28 -34 -69 -132 c-37 -72 -68 -133 -68 -136 0
-7 60 -32 64 -27 2 2 18 36 35 74 18 39 46 93 63 121 l31 52 44 -15 c28 -10
68 -14 111 -11 101 5 167 42 281 155 52 51 95 93 97 93 2 0 4 -8 4 -17 0 -28
48 -164 73 -208 l23 -40 -38 -80 c-47 -98 -94 -243 -82 -254 5 -5 20 -11 34
-14 24 -6 26 -3 44 61 10 37 34 101 53 142 l34 75 22 -30 c11 -16 61 -71 110
-121 l88 -91 -21 -64 c-30 -89 -61 -139 -119 -191 -55 -50 -104 -68 -182 -68
-139 1 -248 126 -282 325 -13 77 -14 80 -45 86 -31 6 -33 4 -67 -56 -79 -141
-185 -253 -287 -300 -134 -62 -285 -5 -356 135 -34 69 -61 203 -49 251 4 14
43 68 87 120 44 51 124 151 177 221 l98 128 18 -58 c10 -31 31 -73 46 -92z
m5666 55 c37 -49 109 -139 160 -200 137 -166 135 -162 135 -214 0 -59 -24
-161 -50 -211 -47 -93 -152 -160 -250 -160 -62 0 -138 31 -203 82 -51 41 -146
160 -192 242 -34 61 -36 63 -67 57 -31 -6 -32 -9 -45 -86 -35 -204 -145 -325
-295 -325 -129 0 -240 100 -288 259 l-21 67 89 89 c49 50 98 104 109 120 l21
30 29 -61 c16 -34 40 -97 54 -142 23 -77 25 -81 49 -75 14 3 29 9 33 13 12 11
-28 141 -75 242 l-41 88 36 77 c19 43 40 98 46 123 7 25 14 51 17 59 2 8 19
-5 44 -35 131 -160 310 -237 444 -191 l45 16 62 -122 c34 -67 63 -124 65 -126
4 -4 64 19 64 26 0 8 -112 228 -121 238 -15 15 -11 34 15 68 13 18 32 58 41
90 9 32 18 57 20 55 1 -2 33 -43 70 -93z m-4577 73 c8 -8 12 -51 12 -127 0
-110 20 -245 38 -263 5 -5 16 0 24 9 27 30 95 165 111 219 8 28 22 65 31 81
27 54 79 49 91 -10 4 -17 11 -42 16 -55 8 -22 10 -22 39 -7 17 9 53 19 79 22
44 5 50 3 70 -23 28 -36 22 -81 -19 -142 -17 -23 -30 -45 -30 -49 0 -3 18 -23
40 -43 44 -41 48 -51 24 -74 -12 -13 -39 -16 -122 -17 -104 0 -255 -18 -269
-32 -22 -22 138 -138 226 -163 31 -9 63 -19 71 -21 9 -3 -8 -14 -40 -28 -30
-12 -85 -36 -122 -53 l-67 -31 -19 32 c-11 18 -52 88 -92 157 -40 69 -140 234
-222 367 -81 133 -148 244 -148 247 0 19 65 1 111 -30 l53 -35 24 31 c21 27
50 47 73 49 3 1 10 -4 17 -11z m3401 -3 c16 -8 37 -26 48 -40 l19 -26 53 35
c46 31 111 49 111 30 0 -3 -60 -103 -133 -222 -153 -248 -199 -324 -286 -474
l-62 -107 -42 19 c-23 10 -78 34 -122 53 -44 20 -73 38 -65 40 8 2 40 12 71
21 98 28 253 145 220 165 -24 15 -158 31 -262 31 -149 0 -172 22 -98 91 l41
38 -31 47 c-42 64 -49 108 -24 142 25 33 64 39 124 17 24 -8 48 -17 53 -18 5
-1 16 22 25 51 18 60 34 75 67 60 23 -11 41 -46 68 -133 22 -68 97 -199 118
-203 24 -5 38 68 45 233 5 121 13 165 30 165 2 0 17 -7 32 -15z m-2536 -76
c19 -23 22 -70 7 -98 -16 -31 -65 -46 -100 -31 -36 15 -50 37 -50 77 0 73 96
108 143 52z m1726 16 c65 -33 50 -132 -23 -151 -28 -7 -81 18 -90 41 -17 46 0
100 37 115 32 13 44 12 76 -5z m-1024 -67 c-22 -72 -85 -169 -155 -239 -84
-84 -140 -115 -226 -125 -50 -6 -57 -5 -51 9 3 8 20 61 38 116 29 92 33 100
51 90 28 -15 60 -1 153 66 72 52 167 105 188 105 5 0 5 -10 2 -22z m312 -20
c29 -16 80 -49 114 -74 75 -56 110 -70 138 -54 27 14 35 49 22 95 -11 39 -8
55 11 55 10 0 7 -142 -8 -297 -6 -57 -9 -63 -29 -63 -57 0 -191 102 -255 195
-32 47 -90 160 -90 175 0 15 33 4 97 -32z m-999 -178 c54 -81 85 -113 146
-154 43 -29 46 -27 -74 -51 -47 -9 -119 -28 -160 -41 -41 -13 -75 -22 -77 -21
-1 2 9 21 24 42 37 54 71 157 79 238 4 37 8 66 9 65 2 -2 26 -37 53 -78z
m1681 -110 c11 -36 34 -86 50 -110 16 -25 29 -45 28 -47 -1 -1 -46 11 -98 27
-53 16 -125 34 -160 40 -98 18 -97 17 -42 55 53 35 116 108 161 185 l27 45 7
-64 c4 -36 16 -95 27 -131z m-449 -76 c267 -30 477 -86 765 -202 273 -110 318
-141 281 -197 -10 -14 -26 -25 -39 -25 -12 0 -92 31 -177 69 -261 116 -523
196 -780 237 -140 22 -652 31 -828 15 -315 -29 -655 -125 -976 -276 -57 -26
-110 -45 -125 -43 -33 4 -61 50 -46 75 31 53 540 253 765 301 125 27 305 52
454 62 165 12 542 3 706 -16z m-3726 -76 c-21 -58 -59 -222 -82 -350 l-19
-106 31 -5 c17 -2 32 -3 34 -2 2 2 19 80 38 173 46 232 44 227 78 159 34 -71
99 -138 167 -174 48 -25 64 -28 149 -28 90 0 99 2 159 35 35 19 93 63 128 97
34 34 63 61 63 59 0 -1 -18 -47 -40 -101 -71 -174 -154 -464 -138 -481 3 -2
18 -6 34 -10 l30 -6 23 114 c22 112 38 158 141 415 l53 132 38 -78 c67 -137
156 -202 285 -209 63 -4 107 3 156 23 16 6 17 -1 12 -82 -3 -48 -7 -102 -9
-119 -3 -30 -1 -32 31 -36 42 -5 41 -9 49 160 l6 123 52 72 c29 40 63 103 76
140 16 45 27 64 35 59 106 -67 167 -116 191 -158 23 -38 26 -51 16 -66 -15
-24 -13 -69 4 -91 7 -11 31 -25 52 -32 40 -14 40 -14 28 -90 -6 -35 -3 -45 20
-73 18 -22 36 -32 54 -32 36 0 43 -8 28 -31 -11 -17 -25 -19 -146 -19 l-133 0
4 65 4 65 -38 0 -38 0 0 -65 0 -65 -75 0 -75 0 0 -191 0 -190 -35 -15 c-44
-18 -136 -18 -179 0 -84 35 -136 154 -145 336 l-6 114 -32 7 c-32 6 -33 5 -49
-45 -109 -328 -317 -510 -516 -452 -124 36 -198 171 -198 362 l0 82 -32 6
c-20 4 -34 2 -36 -4 -2 -6 -20 -35 -40 -65 -64 -95 -150 -141 -246 -133 -109
9 -214 89 -268 205 l-32 66 63 123 c53 105 273 454 286 454 2 0 -3 -19 -11
-42z m6684 -130 c55 -84 130 -206 168 -272 66 -116 67 -119 54 -155 -64 -184
-262 -297 -405 -232 -46 21 -110 87 -145 149 -19 34 -29 42 -45 38 -11 -3 -26
-6 -32 -6 -9 0 -13 -21 -13 -74 0 -223 -88 -361 -244 -382 -175 -24 -361 152
-461 437 l-27 76 -31 -6 -32 -7 -6 -114 c-9 -181 -57 -293 -143 -334 -42 -20
-135 -21 -181 -2 l-35 15 0 190 0 191 -74 0 -73 0 -7 31 c-3 17 -6 47 -6 65 0
32 -2 34 -36 34 l-37 0 6 -65 6 -65 -132 0 c-119 0 -133 2 -144 19 -15 23 -8
31 27 31 58 0 90 73 66 152 -7 23 -5 29 10 34 57 18 72 28 83 50 14 32 14 59
-1 83 -21 34 35 107 133 173 71 48 85 54 90 40 41 -108 68 -160 104 -200 l43
-48 7 -145 c4 -79 9 -147 11 -150 1 -3 18 -3 36 -1 l33 4 -7 116 c-4 64 -5
118 -4 119 2 2 22 -4 46 -12 56 -20 154 -19 214 1 73 25 150 102 195 196 l37
79 58 -147 c73 -186 119 -326 142 -432 l18 -84 30 6 c16 4 31 8 34 10 5 6 -26
159 -50 241 -11 39 -44 128 -74 198 -30 71 -54 134 -54 140 0 6 14 -5 31 -26
43 -53 147 -124 215 -147 167 -58 340 19 419 185 24 52 29 57 36 39 10 -29 69
-320 69 -344 0 -24 8 -29 46 -23 l31 5 -19 106 c-18 102 -69 318 -83 355 -16
41 8 8 103 -135z m-3136 82 c349 -22 695 -112 1031 -269 82 -38 105 -54 101
-65 -5 -13 -24 -16 -95 -16 -49 0 -89 -3 -89 -6 0 -4 21 -40 46 -81 26 -40 44
-76 41 -79 -3 -3 -29 7 -58 21 -157 80 -507 192 -719 230 -330 59 -684 61
-1015 3 -198 -34 -519 -133 -694 -214 -52 -24 -96 -42 -99 -39 -2 2 16 38 42
78 25 41 46 77 46 81 0 3 -40 6 -89 6 -71 0 -90 3 -95 16 -13 33 371 189 627
254 317 80 622 104 1019 80z m198 -279 c157 -27 241 -49 434 -111 222 -72 385
-142 408 -175 17 -23 8 -65 -18 -82 -25 -16 -28 -16 -122 35 -237 125 -622
218 -997 242 -451 28 -987 -71 -1317 -243 -94 -49 -97 -50 -122 -34 -20 13
-26 26 -26 51 0 42 20 55 163 115 220 91 512 174 717 205 159 24 165 24 470
21 237 -2 306 -6 410 -24z m-45 -139 c180 -28 350 -67 480 -110 l110 -37 -503
-3 c-277 -1 -727 -1 -1000 0 l-497 3 110 37 c131 43 296 81 472 108 183 27
193 28 458 25 180 -2 273 -8 370 -23z m3277 -224 c31 -116 40 -231 35 -445 -2
-118 -9 -224 -16 -244 -64 -201 -274 -195 -441 13 -40 49 -114 165 -123 191
-2 6 -19 7 -39 3 l-35 -6 -6 -108 c-9 -180 -63 -312 -156 -377 -39 -27 -50
-30 -119 -30 -94 1 -136 20 -206 95 -59 63 -126 202 -157 323 l-21 87 -33 0
-33 0 -7 -67 c-20 -197 -79 -354 -145 -388 -102 -53 -247 41 -328 213 -36 75
-37 80 -40 216 -4 132 -3 139 15 131 10 -4 48 -10 84 -13 65 -4 67 -5 73 -34
3 -17 6 -64 6 -104 l0 -74 36 0 37 0 -5 115 c-3 63 -2 115 2 115 3 0 25 16 49
36 51 44 95 129 113 219 l14 67 46 -78 c58 -100 119 -173 186 -224 54 -40 160
-80 213 -80 35 0 42 -22 66 -202 l17 -128 34 0 35 0 -7 77 c-7 74 -29 205 -41
244 -5 14 4 22 39 38 107 47 163 123 199 270 l23 91 34 -36 c19 -19 55 -48 80
-62 41 -25 54 -27 147 -27 l101 0 23 -65 c13 -36 33 -105 44 -155 21 -90 21
-90 51 -87 16 2 31 6 33 8 8 8 -40 207 -66 272 l-25 64 23 15 c39 26 123 117
144 156 11 20 22 37 25 37 3 0 13 -28 22 -62z m-7319 8 c27 -44 106 -123 141
-143 18 -10 17 -13 -8 -75 -25 -65 -66 -222 -66 -257 0 -13 9 -20 31 -23 17
-3 32 0 34 6 2 6 13 54 25 106 12 52 31 117 42 145 l19 50 97 0 c112 0 156 17
228 87 l42 40 11 -69 c25 -140 87 -235 187 -284 46 -23 63 -36 59 -47 -9 -23
-33 -171 -41 -249 l-7 -73 37 0 c34 0 36 2 36 33 0 45 28 225 41 265 9 26 16
32 39 32 15 0 57 9 93 20 116 36 229 143 308 293 23 43 40 66 43 57 2 -8 10
-40 17 -70 7 -30 20 -74 30 -97 20 -46 91 -129 118 -138 15 -5 17 -18 13 -120
l-5 -115 37 0 36 0 0 83 c0 125 0 124 78 129 37 3 75 9 85 13 18 8 19 1 15
-131 -3 -135 -5 -141 -39 -214 -42 -88 -122 -180 -182 -209 -151 -73 -249 47
-287 353 l-12 96 -34 0 c-32 0 -33 -1 -44 -57 -57 -273 -221 -465 -385 -451
-155 13 -252 163 -262 405 l-5 113 -36 6 c-22 4 -37 3 -39 -3 -2 -6 -20 -37
-39 -69 -112 -186 -236 -284 -359 -284 -70 0 -137 60 -167 149 -17 51 -23 488
-8 566 16 82 42 175 49 175 3 0 18 -20 34 -44z m2297 24 c0 -31 44 -70 79 -70
16 0 67 20 112 45 l84 45 1060 0 1060 0 84 -45 c45 -25 96 -45 112 -45 34 0
79 41 79 71 0 18 13 19 230 19 l230 0 0 -765 0 -766 -33 -33 c-45 -45 -62
-109 -61 -226 1 -72 6 -109 23 -152 l22 -57 -23 -73 c-30 -97 -30 -208 0 -304
l22 -71 -22 -59 c-17 -46 -22 -82 -22 -164 0 -94 2 -111 27 -163 17 -38 34
-61 48 -64 21 -6 21 -7 17 -272 -4 -221 -9 -284 -27 -373 -46 -228 -151 -481
-279 -673 -78 -117 -254 -303 -394 -416 -119 -96 -316 -226 -463 -306 -107
-59 -112 -61 -177 -58 -37 2 -76 8 -87 14 -11 6 -28 11 -38 12 -15 0 -14 2 5
11 12 6 22 16 22 22 0 7 20 17 44 24 24 6 52 19 61 29 10 10 39 24 64 33 25 8
50 24 56 35 6 12 21 21 39 22 35 3 77 29 83 54 3 11 14 19 27 19 29 0 86 36
86 55 0 9 9 15 23 15 30 0 88 37 94 60 3 10 17 21 31 25 15 4 42 23 62 44 19
20 52 49 73 64 20 16 37 32 37 37 0 6 39 47 86 93 47 46 86 91 88 99 1 9 19
35 40 58 22 24 35 48 32 56 -3 8 1 17 10 21 19 7 65 74 58 85 -3 4 11 27 30
50 39 45 43 57 24 76 -8 8 -9 12 -1 12 19 0 55 68 52 97 -2 16 5 39 14 54 23
34 32 85 17 94 -8 5 -6 13 7 27 11 13 18 38 20 73 1 30 7 63 13 75 6 11 11 42
10 68 0 26 2 63 6 83 3 21 1 46 -5 58 -9 16 -8 26 5 46 12 18 14 37 10 67 -3
24 -6 51 -5 61 0 9 0 40 0 67 0 28 0 59 0 70 0 11 0 43 0 70 0 28 0 59 0 70 0
11 0 43 0 70 0 28 0 59 0 70 0 11 0 43 0 70 0 28 0 59 0 70 0 11 0 43 0 70 0
28 0 59 0 70 0 11 0 43 0 70 0 28 0 59 0 70 0 11 0 43 0 70 0 28 0 59 0 70 0
11 0 43 0 70 0 28 0 59 0 70 0 11 0 43 0 70 0 28 0 58 0 68 -1 9 2 38 5 63 4
33 2 50 -9 60 -12 13 -13 18 -1 34 8 10 14 36 14 56 0 21 -6 44 -14 51 -11 12
-11 17 0 33 8 10 14 36 14 56 0 21 -6 44 -14 51 -11 12 -11 17 0 33 18 24 18
90 0 107 -11 12 -11 17 0 33 18 24 18 90 0 107 -11 12 -11 17 0 33 18 24 18
90 0 107 -11 12 -11 17 0 33 18 24 18 90 0 107 -11 12 -11 17 0 33 18 24 18
90 0 107 -11 12 -11 17 0 33 8 10 14 36 14 56 0 21 -6 44 -14 51 -11 12 -11
17 0 33 18 24 18 90 0 107 -11 11 -11 16 1 35 11 16 13 36 9 65 -7 52 -7 61 0
119 5 43 3 48 -27 73 -24 21 -38 26 -58 21 -22 -6 -88 -12 -151 -15 -8 0 -34
3 -56 6 -25 3 -51 1 -64 -6 -16 -9 -25 -9 -35 0 -9 8 -32 10 -62 6 -27 -3 -54
-5 -60 -5 -7 1 -38 1 -68 1 -30 0 -61 0 -67 -1 -7 0 -34 2 -61 5 -30 4 -53 2
-62 -6 -10 -9 -19 -9 -35 0 -13 7 -39 9 -64 6 -22 -3 -48 -6 -56 -6 -8 0 -34
3 -56 6 -25 3 -51 1 -64 -6 -16 -9 -25 -9 -35 0 -9 8 -32 10 -62 6 -27 -3 -54
-5 -60 -5 -7 1 -38 1 -68 1 -30 0 -61 0 -67 -1 -7 0 -34 2 -61 5 -30 4 -53 2
-62 -6 -10 -9 -19 -9 -35 0 -13 7 -39 9 -64 6 -22 -3 -49 -6 -58 -5 -15 0 -51
1 -133 1 -63 0 -127 0 -137 -1 -7 0 -34 2 -61 5 -30 4 -53 2 -62 -6 -10 -8
-19 -8 -34 -1 -26 14 -94 14 -108 0 -8 -8 -17 -8 -33 1 -13 7 -39 9 -64 6 -22
-3 -49 -6 -58 -5 -15 0 -51 1 -133 1 -63 0 -127 0 -137 -1 -7 0 -34 2 -61 5
-30 4 -53 2 -62 -6 -10 -9 -19 -9 -35 0 -13 7 -39 9 -64 6 -22 -3 -48 -6 -56
-6 -8 0 -34 3 -56 6 -25 3 -51 1 -64 -6 -16 -9 -25 -9 -35 0 -9 8 -32 10 -62
6 -68 -8 -63 -8 -116 3 -84 18 -136 -27 -121 -105 3 -19 10 -36 14 -39 5 -3 2
-18 -6 -35 -15 -29 -11 -95 6 -105 5 -3 2 -18 -6 -35 -15 -29 -11 -95 6 -105
5 -3 2 -18 -6 -35 -15 -29 -11 -95 6 -105 5 -3 2 -18 -6 -35 -15 -29 -11 -95
6 -105 5 -3 2 -18 -6 -35 -15 -29 -11 -95 6 -105 5 -3 2 -18 -6 -35 -15 -29
-11 -95 6 -105 5 -3 2 -18 -6 -35 -15 -29 -11 -95 6 -105 5 -3 2 -18 -6 -35
-15 -29 -11 -95 6 -105 5 -3 2 -18 -6 -35 -15 -29 -11 -95 6 -105 5 -3 2 -18
-6 -35 -15 -29 -11 -95 6 -105 5 -3 2 -18 -6 -35 -15 -29 -11 -95 6 -105 5 -3
2 -18 -6 -35 -15 -29 -11 -95 6 -105 5 -3 2 -18 -6 -35 -15 -29 -11 -95 6
-105 5 -3 2 -18 -6 -35 -15 -29 -11 -95 6 -105 5 -3 1 -20 -8 -37 -14 -28 -14
-36 -1 -72 13 -36 13 -45 0 -71 -12 -26 -12 -35 1 -72 9 -24 12 -43 8 -43 -17
0 -20 -70 -6 -104 8 -20 11 -36 7 -36 -18 0 -22 -69 -7 -104 8 -20 11 -36 7
-36 -18 0 -22 -69 -7 -104 8 -20 11 -36 7 -36 -18 0 -22 -69 -7 -104 8 -20 11
-36 7 -36 -5 0 -12 -15 -15 -33 -7 -37 10 -97 27 -97 7 0 7 -4 -1 -12 -15 -15
-16 -114 -2 -123 8 -5 7 -11 0 -21 -15 -17 -4 -88 16 -105 11 -9 11 -15 3 -25
-12 -15 -4 -68 16 -100 10 -16 11 -24 3 -32 -13 -13 7 -85 29 -103 7 -7 10
-21 7 -34 -6 -24 15 -73 39 -93 8 -7 12 -22 9 -38 -3 -18 4 -36 27 -64 17 -21
31 -47 31 -57 0 -11 16 -34 35 -53 19 -19 35 -42 35 -53 0 -10 16 -35 35 -54
19 -19 35 -42 35 -51 0 -9 41 -56 90 -104 50 -49 90 -93 90 -97 0 -5 20 -22
44 -38 24 -15 47 -37 52 -48 5 -10 28 -28 51 -40 22 -11 43 -28 46 -37 6 -22
65 -58 94 -58 12 0 24 -8 27 -17 7 -21 59 -53 86 -53 10 0 22 -9 25 -20 7 -21
72 -60 99 -60 8 0 19 -6 23 -14 10 -17 66 -46 90 -46 10 0 24 -9 30 -20 7 -10
31 -25 54 -32 45 -13 101 -58 73 -58 -8 0 -24 -5 -35 -11 -11 -5 -52 -12 -92
-13 -69 -3 -75 -2 -152 42 -249 141 -449 287 -624 457 -202 196 -304 342 -405
578 -110 258 -137 399 -143 748 -5 261 -5 266 15 271 48 13 89 163 77 278 -4
36 -16 89 -27 118 -18 49 -18 56 -4 100 42 132 43 215 5 339 -19 61 -19 63 0
120 11 32 23 85 26 118 12 107 -27 249 -75 275 -20 11 -20 21 -20 780 l0 770
230 0 c225 0 230 0 230 -20z m-219 -130 c10 -6 26 -24 34 -40 18 -34 21 -140
4 -140 -7 0 -36 21 -65 46 -44 37 -54 51 -54 76 0 34 24 68 47 68 8 0 23 -5
34 -10z m3160 0 c14 -8 19 -21 19 -53 0 -39 -4 -45 -59 -89 -32 -26 -62 -44
-65 -41 -10 10 -7 99 5 130 11 30 46 62 67 63 7 0 22 -5 33 -10z m-2931 -55
c23 -30 39 -59 35 -65 -7 -11 -44 -13 -69 -4 -17 7 -96 101 -96 115 0 5 20 9
44 9 41 0 46 -3 86 -55z m95 47 c6 -4 28 -29 49 -55 44 -54 40 -71 -15 -65
-26 2 -42 14 -76 56 -24 29 -43 57 -43 62 0 12 70 13 85 2z m174 -39 c52 -61
53 -83 7 -83 -29 0 -42 8 -80 52 -57 65 -58 78 -7 78 35 0 44 -6 80 -47z m141
-4 c22 -28 40 -57 40 -65 0 -18 -60 -19 -81 -1 -20 16 -89 102 -89 111 0 3 20
6 45 6 42 0 47 -3 85 -51z m141 -4 c22 -30 38 -59 34 -65 -7 -11 -44 -13 -69
-4 -15 6 -96 105 -96 117 0 4 20 7 45 7 42 0 46 -3 86 -55z m138 0 c23 -31 39
-60 36 -65 -3 -6 -21 -10 -40 -10 -29 0 -40 8 -79 56 -26 31 -46 60 -46 65 0
5 20 9 44 9 41 0 46 -3 85 -55z m96 47 c26 -18 86 -102 80 -112 -3 -5 -21 -10
-40 -10 -28 0 -41 8 -79 54 -25 29 -46 58 -46 65 0 12 69 15 85 3z m174 -39
c52 -61 53 -83 7 -83 -28 0 -42 8 -76 48 -67 76 -69 82 -16 82 41 0 48 -4 85
-47z m141 -4 c22 -28 40 -57 40 -65 0 -18 -60 -19 -81 -1 -20 16 -89 102 -89
111 0 3 20 6 45 6 42 0 47 -3 85 -51z m141 -4 c22 -30 38 -59 34 -65 -7 -11
-44 -13 -69 -4 -15 6 -96 105 -96 117 0 4 20 7 45 7 42 0 46 -3 86 -55z m138
0 c23 -31 39 -60 36 -65 -3 -6 -21 -10 -40 -10 -29 0 -40 8 -79 56 -26 31 -46
60 -46 65 0 5 20 9 44 9 41 0 46 -3 85 -55z m96 47 c25 -18 86 -103 80 -112
-3 -5 -21 -10 -40 -10 -28 0 -41 8 -79 54 -25 29 -46 58 -46 65 0 12 69 15 85
3z m174 -39 c52 -61 53 -83 7 -83 -29 0 -42 9 -85 58 -28 31 -51 60 -51 65 0
4 20 7 44 7 41 0 48 -4 85 -47z m141 -4 c22 -28 40 -57 40 -65 0 -18 -60 -19
-81 -1 -20 16 -89 102 -89 111 0 3 20 6 45 6 42 0 47 -3 85 -51z m141 -4 c22
-30 38 -59 34 -65 -7 -11 -44 -13 -69 -4 -15 6 -96 105 -96 117 0 4 20 7 45 7
42 0 46 -3 86 -55z m100 43 c30 -25 80 -98 74 -108 -3 -5 -21 -10 -40 -10 -29
0 -40 8 -79 56 -26 31 -46 60 -46 65 0 14 74 11 91 -3z m135 4 c21 -15 83
-105 78 -113 -3 -5 -20 -9 -39 -9 -28 0 -41 8 -79 54 -25 29 -46 58 -46 65 0
12 68 15 86 3z m173 -41 c51 -61 53 -81 7 -81 -29 0 -42 9 -85 58 -28 31 -51
60 -51 65 0 4 20 7 44 7 41 0 47 -4 85 -49z m141 -2 c22 -28 40 -57 40 -65 0
-18 -60 -19 -81 -1 -20 16 -89 102 -89 111 0 3 20 6 45 6 42 0 47 -3 85 -51z
m141 -4 c22 -30 38 -59 34 -65 -7 -11 -44 -13 -69 -4 -15 6 -96 105 -96 117 0
4 20 7 45 7 42 0 46 -3 86 -55z m101 43 c26 -22 68 -84 68 -101 0 -13 -9 -17
-34 -17 -30 0 -41 8 -80 56 -26 31 -46 60 -46 65 0 14 74 11 92 -3z m98 6 c0
-3 -5 -14 -11 -25 -8 -16 -13 -18 -25 -8 -22 18 -17 39 11 39 14 0 25 -3 25
-6z m-2956 -53 c42 -57 45 -71 12 -71 -20 0 -24 6 -30 46 -3 26 -11 53 -17 60
-6 8 -9 14 -6 14 3 0 21 -22 41 -49z m131 -91 c28 0 56 5 62 11 8 8 13 8 17 0
4 -6 31 -11 61 -11 30 0 57 5 61 11 4 8 9 8 17 0 6 -6 35 -11 63 -11 29 0 56
5 60 11 4 8 9 8 17 0 14 -14 104 -14 112 -1 4 7 12 7 25 0 25 -13 107 -13 116
1 4 8 9 8 17 0 14 -14 114 -14 123 0 4 8 9 8 17 0 6 -6 35 -11 63 -11 29 0 56
5 60 11 4 8 9 8 17 0 6 -6 35 -11 63 -11 29 0 56 5 60 11 4 8 9 8 17 0 14 -14
104 -14 112 -1 4 7 12 7 25 0 25 -13 107 -13 116 1 4 8 9 8 17 0 6 -6 35 -11
63 -11 29 0 56 5 60 11 4 8 9 8 17 0 14 -14 114 -14 123 0 4 8 9 8 17 0 15
-15 114 -14 120 2 4 10 7 10 18 0 16 -15 105 -17 114 -3 4 7 12 7 25 0 25 -13
107 -13 116 1 4 8 9 8 17 0 14 -14 114 -14 123 0 4 8 9 8 17 0 14 -14 114 -14
123 0 4 8 9 8 17 0 15 -15 114 -14 120 2 4 10 7 10 18 0 16 -15 105 -17 114
-3 4 7 12 7 25 0 25 -13 107 -13 116 1 4 8 9 8 17 0 6 -6 30 -11 52 -11 55 0
71 -29 53 -95 -9 -33 -9 -50 0 -70 9 -19 9 -36 0 -70 -9 -33 -9 -50 0 -70 9
-19 9 -36 0 -70 -9 -33 -9 -50 0 -70 9 -19 9 -36 0 -70 -9 -33 -9 -50 0 -70 9
-19 9 -36 0 -70 -9 -33 -9 -50 0 -70 9 -19 9 -36 0 -70 -9 -33 -9 -50 0 -70 9
-19 9 -36 0 -70 -9 -33 -9 -50 0 -70 9 -19 9 -36 0 -70 -9 -33 -9 -50 0 -70 9
-19 9 -36 0 -70 -9 -33 -9 -50 0 -70 9 -19 9 -36 0 -70 -9 -33 -9 -50 0 -70 9
-19 9 -36 0 -70 -9 -33 -9 -50 0 -70 9 -19 9 -36 0 -70 -9 -33 -9 -50 0 -70 9
-19 9 -36 0 -70 -9 -33 -9 -50 0 -70 9 -19 9 -36 0 -70 -9 -33 -9 -50 0 -70 9
-19 9 -36 0 -70 -9 -33 -9 -50 0 -70 9 -19 9 -36 0 -70 -9 -33 -9 -50 0 -70 9
-19 9 -36 0 -70 -9 -33 -9 -50 0 -70 9 -19 9 -36 0 -70 -9 -33 -9 -50 0 -70 9
-19 9 -36 0 -70 -9 -33 -9 -50 0 -70 9 -19 9 -36 0 -70 -9 -33 -9 -50 0 -70 9
-19 9 -36 0 -70 -9 -33 -9 -50 0 -69 9 -20 8 -31 -4 -55 -9 -17 -15 -46 -13
-64 1 -17 -3 -45 -10 -60 -6 -16 -11 -43 -11 -62 0 -18 -7 -46 -15 -61 -8 -16
-15 -45 -15 -64 -1 -19 -7 -46 -15 -60 -8 -14 -14 -35 -15 -48 0 -13 -11 -40
-25 -60 -14 -20 -25 -46 -25 -58 0 -11 -9 -29 -19 -38 -11 -10 -25 -32 -32
-49 -7 -18 -24 -45 -39 -62 -15 -16 -31 -41 -35 -55 -4 -14 -16 -31 -26 -38
-11 -7 -26 -27 -35 -44 -14 -28 -33 -49 -93 -109 -18 -19 -103 -96 -149 -137
-20 -18 -52 -42 -70 -52 -18 -11 -35 -27 -38 -35 -4 -8 -26 -24 -49 -34 -24
-11 -48 -29 -54 -40 -7 -12 -21 -21 -32 -21 -28 0 -77 -27 -88 -49 -6 -10 -26
-22 -44 -25 -19 -3 -44 -17 -57 -31 -13 -14 -33 -25 -44 -25 -12 0 -34 -9 -51
-20 -55 -36 -60 -39 -88 -45 -15 -3 -36 -14 -46 -24 -10 -10 -35 -21 -55 -25
-20 -4 -46 -16 -57 -27 -10 -10 -31 -19 -46 -19 -16 0 -40 -7 -55 -14 -24 -13
-32 -13 -55 0 -16 7 -40 14 -54 14 -15 0 -32 7 -39 15 -7 8 -31 20 -54 27 -22
6 -50 20 -61 30 -12 10 -36 21 -55 24 -19 4 -46 18 -59 31 -13 13 -42 26 -63
30 -22 3 -42 12 -45 20 -6 16 -55 43 -78 43 -9 0 -28 13 -41 30 -16 18 -39 32
-62 36 -20 4 -43 16 -51 27 -7 10 -31 27 -52 36 -21 10 -47 29 -58 43 -11 14
-34 31 -50 38 -17 7 -33 20 -36 31 -3 10 -23 28 -43 40 -20 13 -41 29 -45 36
-14 23 -61 63 -74 63 -6 0 -14 9 -18 20 -3 10 -19 30 -36 44 -16 14 -29 29
-29 35 0 6 -15 28 -33 48 -18 21 -39 53 -47 71 -7 18 -23 41 -36 51 -13 11
-24 26 -24 35 0 8 -13 31 -30 49 -16 19 -30 45 -30 57 0 12 -10 36 -22 52 -11
17 -22 43 -23 59 -2 16 -10 40 -19 54 -9 13 -16 40 -16 60 0 20 -7 50 -16 66
-8 17 -13 37 -10 45 3 8 -1 34 -9 57 -8 23 -15 60 -15 82 0 22 -7 51 -16 64
-12 17 -13 26 -5 34 14 14 14 82 0 109 -8 14 -8 23 0 31 6 6 11 28 11 50 0 21
-5 48 -11 59 -8 14 -8 23 0 31 6 6 11 28 11 50 0 21 -5 48 -11 59 -8 14 -8 23
0 31 6 6 11 28 11 50 0 21 -5 48 -11 59 -8 14 -8 23 0 31 14 14 14 82 0 108
-7 15 -7 24 1 34 8 9 10 32 6 62 -3 27 -5 54 -5 61 1 6 1 37 1 67 0 30 0 62 0
70 0 8 0 40 0 70 0 30 0 62 0 70 0 8 0 36 0 63 1 26 1 56 0 67 0 11 0 43 0 70
1 28 1 59 0 70 0 11 0 43 0 70 1 28 1 59 0 70 0 11 0 43 0 70 1 28 1 59 0 70
0 11 0 43 0 70 1 28 1 59 0 70 0 11 0 43 0 70 1 28 1 59 0 70 0 11 0 43 0 70
1 28 1 59 0 70 0 17 -1 66 -1 145 0 11 0 43 0 70 0 28 0 59 0 70 0 11 0 43 0
70 0 28 0 59 0 70 0 11 0 43 0 70 0 28 0 59 0 70 0 11 0 43 0 70 0 28 0 58 0
68 -1 9 2 36 5 58 3 23 1 51 -5 62 -7 14 -7 28 2 51 9 24 17 31 39 31 15 0 30
5 34 11 4 8 9 8 17 0 6 -6 34 -11 62 -11z m-228 -40 c50 -38 53 -43 53 -85 0
-25 -4 -45 -9 -45 -5 0 -34 20 -65 46 -51 41 -56 49 -56 85 0 23 5 39 12 39 6
0 35 -18 65 -40z m3183 1 c0 -35 -6 -44 -55 -86 -30 -26 -59 -44 -65 -40 -12
7 -13 64 -2 82 12 18 96 82 110 82 7 1 12 -13 12 -38z m-3181 -142 c48 -38 51
-44 51 -85 0 -24 -3 -44 -7 -44 -5 0 -34 20 -65 45 -53 42 -58 49 -58 85 0 51
13 51 79 -1z m3179 -1 c-3 -37 -9 -47 -56 -85 -29 -24 -57 -41 -63 -38 -11 7
-12 65 -1 82 12 20 96 83 110 83 9 0 12 -12 10 -42z m-3179 -138 c48 -38 51
-43 51 -85 0 -25 -3 -45 -7 -45 -5 0 -34 20 -65 45 -53 42 -58 49 -58 85 0 51
14 51 79 0z m3179 -2 c-3 -37 -9 -47 -56 -85 -29 -24 -57 -41 -63 -38 -13 9
-11 68 4 88 18 24 90 76 105 77 9 0 12 -12 10 -42z m-3179 -138 c48 -38 51
-43 51 -85 0 -25 -3 -45 -7 -45 -5 0 -34 20 -65 45 -53 42 -58 49 -58 85 0 51
14 51 79 0z m3179 -2 c-3 -37 -9 -47 -56 -85 -29 -24 -57 -41 -63 -38 -13 9
-11 68 4 88 18 24 90 76 105 77 9 0 12 -12 10 -42z m-4832 -272 c-15 -231 -22
-647 -11 -658 3 -2 18 -3 35 0 l30 4 0 207 c0 113 7 305 15 426 8 121 15 231
16 245 0 16 8 2 23 -40 32 -90 63 -150 98 -186 l30 -32 -12 -207 c-19 -312 -8
-706 24 -905 61 -375 136 -671 250 -985 43 -119 58 -238 63 -505 5 -268 -3
-341 -50 -444 -22 -48 -148 -196 -167 -196 -4 0 -4 18 1 41 31 134 27 492 -6
637 -25 108 -83 275 -157 452 -160 379 -230 609 -287 940 -46 268 -54 386 -47
710 4 168 12 379 19 470 l12 165 65 65 c36 36 66 60 68 53 2 -6 -4 -122 -12
-257z m6551 -34 c21 -288 28 -710 14 -858 -38 -391 -144 -820 -283 -1143 -74
-171 -153 -376 -176 -456 -61 -212 -73 -450 -36 -745 l6 -45 -70 71 c-135 138
-156 220 -149 579 5 277 18 374 68 515 17 47 48 137 69 201 62 187 168 667
190 859 19 165 24 560 11 798 l-13 222 31 35 c39 45 74 113 97 190 l18 60 7
-75 c16 -170 29 -457 29 -636 l0 -192 30 -4 c17 -3 32 -2 35 0 8 9 5 409 -5
562 -5 80 -12 196 -16 259 l-7 113 68 -66 69 -67 13 -177z m-7049 188 l22 -29
-11 -253 c-10 -251 -9 -791 2 -802 3 -3 19 -4 35 0 l29 6 1 416 c0 229 4 455
8 502 l7 86 62 -4 c39 -2 78 2 106 11 l44 16 -7 -92 c-43 -620 -39 -837 24
-1213 55 -328 131 -586 267 -909 96 -226 152 -383 179 -500 26 -110 27 -533 2
-640 -25 -107 -54 -177 -94 -223 -61 -72 -66 -63 -58 96 8 163 -6 306 -46 472
-43 176 -83 280 -274 713 -314 716 -454 1245 -473 1797 l-6 176 26 17 c48 31
95 168 113 325 3 34 9 62 13 61 3 0 16 -13 29 -29z m7488 -203 c18 -73 56
-142 86 -158 21 -11 21 -15 15 -198 -9 -272 -41 -488 -119 -796 -77 -308 -185
-605 -380 -1049 -139 -316 -180 -420 -222 -559 -60 -199 -71 -279 -70 -505 0
-154 -3 -202 -12 -202 -22 0 -83 82 -105 139 -51 136 -72 344 -58 568 12 205
46 323 192 673 176 423 267 767 313 1190 19 174 16 577 -7 878 -6 89 -10 164
-7 167 2 2 24 -3 48 -11 28 -10 66 -14 102 -12 l56 4 8 -95 c4 -53 8 -279 8
-503 l1 -406 30 -5 c17 -3 32 -3 35 0 11 10 11 531 0 785 l-11 268 28 31 28
31 12 -87 c7 -47 20 -114 29 -148z m-6220 -90 c-9 -168 -16 -311 -16 -316 0
-12 70 -15 70 -3 0 4 7 135 15 292 8 157 15 294 16 305 0 13 7 5 19 -23 11
-23 34 -63 51 -89 l32 -47 2 -405 c1 -349 5 -431 23 -581 12 -96 22 -229 22
-295 0 -304 -70 -794 -132 -922 l-23 -48 -2 70 c-8 220 -41 448 -115 783 l-53
237 2 601 3 601 45 67 c25 37 45 72 45 78 0 6 3 9 6 6 3 -3 -2 -143 -10 -311z
m883 273 c48 -38 51 -43 51 -85 0 -25 -3 -45 -7 -45 -5 0 -34 21 -65 46 -53
42 -58 49 -58 85 0 50 14 50 79 -1z m3179 -2 c-3 -37 -9 -47 -56 -85 -29 -24
-57 -41 -63 -38 -13 9 -11 68 4 88 18 24 90 76 105 77 9 0 12 -12 10 -42z
m868 -63 l34 -50 2 -595 3 -595 -33 -150 c-87 -389 -120 -595 -130 -810 l-7
-140 -22 40 c-96 181 -162 896 -114 1224 20 130 34 509 28 745 l-6 238 26 35
c15 19 39 60 54 92 22 44 28 51 29 31 0 -14 7 -151 15 -305 8 -154 15 -283 15
-287 0 -5 16 -8 35 -8 21 0 35 5 35 13 0 6 -7 138 -15 292 -8 154 -15 294 -14
310 l0 30 16 -30 c8 -16 30 -52 49 -80z m-4323 -592 c-9 -7 -27 -13 -39 -13
-21 0 -22 5 -30 118 -4 64 -8 194 -8 287 l-1 170 45 57 45 58 3 -333 c2 -303
1 -333 -15 -344z m3712 598 l30 -34 -1 -151 c0 -83 -4 -213 -8 -288 -7 -128
-10 -138 -28 -138 -10 0 -28 5 -39 10 -18 10 -19 24 -18 348 0 320 1 336 17
312 9 -13 30 -40 47 -59z m-3436 -81 c48 -38 51 -43 51 -85 0 -25 -3 -45 -7
-45 -5 0 -34 21 -65 46 -53 42 -58 49 -58 85 0 50 14 50 79 -1z m3179 -2 c-3
-37 -9 -47 -56 -85 -29 -24 -57 -41 -63 -38 -13 9 -11 68 4 88 18 24 90 76
105 77 9 0 12 -12 10 -42z m-3599 -593 c-12 -135 -42 -285 -73 -369 -26 -68
-71 -146 -85 -146 -31 0 -64 726 -45 976 7 78 7 81 30 76 24 -4 24 -4 24 -158
l0 -154 35 0 35 0 0 160 0 160 33 20 32 20 12 -238 c8 -162 9 -272 2 -347z
m4025 524 c3 -17 6 -92 6 -165 l0 -134 35 0 35 0 0 154 0 154 24 4 c24 5 24 5
31 -111 11 -171 -1 -614 -20 -786 -10 -82 -20 -152 -22 -155 -10 -11 -55 59
-82 130 -70 180 -96 392 -81 665 5 105 10 216 10 247 l0 56 29 -14 c19 -9 31
-25 35 -45z m-4647 -536 l-2 -578 33 -145 c93 -407 121 -598 129 -861 6 -205
-5 -340 -39 -449 -24 -76 -60 -151 -82 -169 -14 -12 -16 3 -16 153 0 284 -23
431 -100 641 -58 155 -101 316 -164 605 -71 321 -79 410 -80 815 -1 193 3 389
7 437 l9 87 25 -10 c13 -5 38 -9 55 -9 l30 0 -7 -296 -8 -295 34 3 34 3 10
294 10 293 49 19 c27 10 54 23 60 29 5 5 11 10 12 10 2 0 2 -260 1 -577z
m5300 525 c20 -5 21 -17 28 -302 l7 -296 35 0 36 0 -8 295 -7 295 30 0 c17 0
42 4 55 9 l25 10 9 -87 c4 -48 8 -247 7 -442 0 -317 -3 -371 -23 -500 -45
-292 -125 -634 -196 -840 -108 -311 -116 -351 -122 -652 -3 -126 -9 -228 -13
-228 -17 0 -81 143 -102 226 -21 81 -23 112 -23 339 1 320 18 450 132 955 l28
125 -2 571 -2 571 43 -22 c24 -12 52 -24 63 -27z m-4258 -58 c48 -38 51 -43
51 -85 0 -25 -3 -45 -7 -45 -5 0 -34 21 -65 46 -53 42 -58 49 -58 85 0 50 14
50 79 -1z m3179 -2 c-3 -37 -9 -47 -56 -85 -29 -24 -57 -41 -63 -38 -13 9 -11
68 4 88 18 24 90 76 105 77 9 0 12 -12 10 -42z m-3179 -138 c48 -38 51 -43 51
-85 0 -25 -3 -45 -7 -45 -5 0 -34 21 -65 46 -53 42 -58 49 -58 85 0 50 14 50
79 -1z m3179 -2 c-3 -37 -9 -47 -56 -85 -29 -24 -57 -41 -63 -38 -13 9 -11 68
4 88 18 24 90 76 105 77 9 0 12 -12 10 -42z m-3179 -138 c48 -38 51 -43 51
-85 0 -25 -3 -45 -7 -45 -5 0 -34 21 -65 46 -53 42 -58 49 -58 85 0 50 14 50
79 -1z m3179 -2 c-3 -37 -9 -47 -56 -85 -29 -24 -57 -41 -63 -38 -13 9 -11 68
4 88 18 24 90 76 105 77 9 0 12 -12 10 -42z m-3179 -138 c48 -38 51 -43 51
-85 0 -25 -3 -45 -7 -45 -5 0 -34 21 -65 46 -53 42 -58 49 -58 85 0 50 14 50
79 -1z m3179 -2 c-3 -37 -9 -47 -56 -85 -29 -24 -57 -41 -63 -38 -13 9 -11 68
4 88 18 24 90 76 105 77 9 0 12 -12 10 -42z m-3179 -138 c48 -38 51 -43 51
-85 0 -25 -3 -45 -7 -45 -5 0 -34 21 -65 46 -53 42 -58 49 -58 85 0 50 14 50
79 -1z m3181 1 c0 -36 -5 -44 -56 -85 -31 -26 -60 -44 -65 -40 -13 8 -11 68 4
87 17 23 90 76 105 77 7 0 12 -14 12 -39z m-3181 -141 c48 -38 51 -43 51 -85
0 -25 -3 -45 -7 -45 -5 0 -34 21 -65 46 -53 42 -58 49 -58 85 0 50 14 50 79
-1z m3181 1 c0 -36 -5 -44 -56 -85 -31 -26 -60 -44 -65 -40 -13 8 -11 68 4 87
17 23 90 76 105 77 7 0 12 -14 12 -39z m-3181 -141 c48 -38 51 -43 51 -85 0
-25 -3 -45 -7 -45 -5 0 -34 21 -65 46 -53 42 -58 49 -58 85 0 50 14 50 79 -1z
m3181 1 c0 -36 -5 -44 -56 -85 -31 -26 -60 -44 -65 -40 -13 8 -11 68 4 87 17
23 90 76 105 77 7 0 12 -14 12 -39z m-3181 -141 c48 -38 51 -43 51 -85 0 -25
-3 -45 -7 -45 -5 0 -34 21 -65 46 -53 42 -58 49 -58 85 0 50 14 50 79 -1z
m3181 1 c0 -36 -5 -44 -56 -85 -31 -26 -60 -44 -65 -40 -13 8 -11 68 4 87 17
23 90 76 105 77 7 0 12 -14 12 -39z m-6260 -15 c0 -3 -6 -33 -14 -68 -8 -35
-20 -108 -26 -163 -14 -115 -29 -160 -60 -170 -30 -9 -67 18 -78 58 -7 24 -1
314 7 345 2 4 171 2 171 -2z m135 -20 c18 -27 19 -32 40 -236 23 -216 71 -501
106 -625 117 -416 371 -960 636 -1363 309 -469 839 -1042 1393 -1503 433 -360
1102 -744 1676 -959 257 -97 562 -183 649 -182 100 0 475 112 755 225 589 237
1181 592 1657 995 481 407 992 965 1280 1397 276 415 523 935 646 1365 51 176
93 422 122 709 16 162 29 201 66 201 58 0 80 -50 99 -225 14 -125 23 -155 60
-190 35 -33 85 -39 418 -50 l214 -7 -7 -52 c-38 -291 -162 -741 -296 -1074
-68 -171 -258 -554 -360 -727 -471 -804 -1111 -1533 -1889 -2156 -778 -623
-1662 -1089 -2498 -1319 -226 -62 -263 -67 -363 -46 -125 27 -364 97 -539 159
-1387 486 -2753 1532 -3667 2808 -508 709 -830 1413 -972 2129 -22 107 -42
214 -45 238 l-6 42 58 0 c31 0 163 5 292 11 182 8 240 14 261 26 44 26 67 80
79 184 22 200 41 249 95 249 15 0 31 -9 40 -24z m9299 16 c2 -4 6 -86 8 -181
l3 -173 -29 -24 c-63 -55 -91 -12 -116 172 -10 76 -23 152 -29 167 -6 16 -11
33 -11 38 0 11 167 12 174 1z m-6355 -122 c48 -38 51 -43 51 -85 0 -25 -3 -45
-7 -45 -5 0 -34 21 -65 46 -53 42 -58 49 -58 85 0 50 14 50 79 -1z m3181 1 c0
-36 -5 -44 -56 -85 -31 -26 -60 -44 -65 -40 -13 8 -11 68 4 87 17 23 90 76
105 77 7 0 12 -14 12 -39z m-3181 -141 c48 -38 51 -43 51 -85 0 -25 -3 -45 -7
-45 -5 0 -34 21 -65 46 -53 42 -58 49 -58 85 0 50 14 50 79 -1z m3181 1 c0
-36 -5 -44 -56 -85 -31 -26 -60 -44 -65 -40 -13 8 -11 68 4 87 17 23 90 76
105 77 7 0 12 -14 12 -39z m-3181 -141 c48 -38 51 -43 51 -85 0 -25 -3 -45 -7
-45 -5 0 -34 21 -65 46 -53 42 -58 49 -58 85 0 50 14 50 79 -1z m3181 1 c0
-36 -5 -44 -56 -85 -31 -26 -60 -44 -65 -40 -13 8 -11 68 4 87 17 23 90 76
105 77 7 0 12 -14 12 -39z m-3181 -141 c48 -38 51 -43 51 -85 0 -25 -3 -45 -7
-45 -5 0 -34 21 -65 46 -53 42 -58 49 -58 85 0 50 14 50 79 -1z m3181 1 c0
-36 -5 -44 -56 -85 -31 -26 -60 -44 -65 -40 -13 8 -11 68 4 87 17 23 90 76
105 77 7 0 12 -14 12 -39z m-3181 -141 c48 -38 51 -43 51 -85 0 -25 -3 -45 -7
-45 -12 0 -111 81 -117 96 -11 30 -6 74 8 74 8 0 37 -18 65 -40z m3181 0 c0
-36 -5 -43 -57 -84 -31 -25 -60 -43 -65 -40 -12 8 -9 68 5 87 17 23 90 76 105
77 7 0 12 -14 12 -40z m-3181 -140 c48 -38 51 -43 51 -85 0 -25 -3 -45 -7 -45
-12 0 -111 81 -117 96 -11 30 -6 74 8 74 8 0 37 -18 65 -40z m3181 0 c0 -36
-5 -43 -57 -84 -31 -25 -60 -43 -65 -40 -12 8 -9 68 5 87 19 25 88 77 103 77
10 0 14 -13 14 -40z m-3181 -140 c48 -38 51 -43 51 -85 0 -25 -2 -45 -5 -45
-12 0 -114 82 -119 96 -11 30 -6 74 8 74 8 0 37 -18 65 -40z m3181 0 c0 -36
-5 -43 -57 -84 -31 -25 -60 -43 -65 -40 -9 6 -11 55 -2 79 8 20 92 85 110 85
10 0 14 -13 14 -40z m-3180 -136 c25 -20 48 -41 52 -47 10 -16 10 -67 1 -67
-5 1 -33 16 -63 34 -55 32 -71 62 -56 102 8 20 16 18 66 -22z m3168 -5 c1 -19
-1 -39 -5 -44 -8 -11 -106 -65 -117 -65 -3 0 -6 13 -6 29 0 23 12 40 52 75 29
25 57 45 63 43 5 -2 11 -19 13 -38z m-3155 -120 c47 -25 58 -37 68 -70 7 -21
10 -42 7 -44 -3 -3 -35 8 -71 25 -65 32 -77 46 -77 98 0 29 5 28 73 -9z m3147
-2 c0 -45 -15 -61 -82 -91 l-58 -25 0 33 c0 37 23 62 85 94 53 28 55 27 55
-11z m-3126 -126 c55 -25 65 -34 76 -66 7 -20 10 -39 7 -42 -8 -8 -104 26
-127 45 -19 16 -41 92 -26 92 4 0 35 -13 70 -29z m3108 3 c-8 -55 -13 -62 -59
-82 -85 -35 -93 -36 -93 -10 0 37 27 67 84 93 58 26 72 26 68 -1z m-3041 -144
c26 -12 49 -47 49 -75 0 -11 -9 -11 -52 -1 -70 16 -97 32 -109 63 -17 44 -7
53 43 38 24 -7 55 -18 69 -25z m3019 20 c0 -56 -27 -77 -128 -99 -41 -9 -42
-8 -36 12 13 45 35 66 91 85 73 26 73 26 73 2z m-2991 -134 c34 -11 81 -69 67
-83 -3 -3 -38 -1 -76 6 -61 11 -72 17 -85 41 -25 48 -20 60 23 53 20 -3 53
-11 71 -17z m2958 8 c2 -5 -6 -23 -16 -40 -15 -25 -29 -33 -77 -42 -77 -16
-84 -15 -84 7 0 36 33 62 95 76 65 14 77 14 82 -1z m-2908 -125 c43 -10 70
-31 71 -56 0 -9 -20 -13 -69 -13 -65 0 -71 2 -95 31 -14 17 -24 35 -20 40 7
12 58 11 113 -2z m2861 0 c0 -6 -9 -24 -21 -40 -19 -28 -24 -29 -95 -29 -80 0
-92 10 -54 45 31 28 170 48 170 24z m-2742 -125 c12 -14 22 -29 22 -35 0 -5
-35 -9 -78 -9 -75 0 -79 1 -101 30 -24 33 -21 36 34 43 54 8 99 -3 123 -29z
m2681 20 c2 -1 -7 -17 -19 -33 -21 -30 -24 -31 -101 -31 -43 0 -79 3 -79 6 0
17 43 63 63 67 22 4 129 -3 136 -9z m-2614 -124 c16 -16 27 -32 24 -34 -2 -2
-36 -7 -74 -11 -66 -6 -71 -5 -94 19 -38 40 -23 56 52 56 57 0 66 -3 92 -30z
m2534 21 c11 -7 10 -14 -8 -40 -24 -33 -38 -36 -136 -22 l-50 6 32 33 c28 29
37 32 90 32 32 0 64 -4 72 -9z m-2459 -116 c13 -14 22 -26 19 -28 -2 -2 -35
-9 -73 -16 l-69 -12 -31 30 -30 30 25 10 c13 5 49 10 80 10 47 1 59 -3 79 -24z
m2397 11 c4 -4 -6 -20 -23 -36 l-29 -29 -70 11 c-38 6 -72 13 -74 15 -3 2 6
15 20 29 23 24 28 26 97 22 40 -3 75 -8 79 -12z m-2319 -86 c42 -26 41 -37 -6
-49 -94 -26 -101 -25 -133 5 -16 15 -29 31 -29 35 0 7 78 25 120 28 8 0 30 -8
48 -19z m2169 9 c71 -12 78 -25 36 -59 -29 -23 -53 -23 -138 1 l-39 11 32 29
c18 16 35 29 39 29 3 0 35 -5 70 -11z m-2066 -98 c16 -13 20 -23 14 -29 -10
-9 -110 -42 -127 -42 -14 0 -68 40 -68 50 0 12 86 38 126 39 18 1 42 -8 55
-18z m1989 5 c52 -15 56 -30 17 -59 l-27 -21 -70 23 c-39 12 -70 26 -70 30 0
16 45 40 75 40 17 1 50 -5 75 -13z m-1906 -77 c40 -18 39 -36 -3 -52 -66 -27
-109 -31 -136 -13 -36 24 -31 42 18 59 52 19 88 20 121 6z m1815 -7 c24 -9 46
-22 48 -28 2 -6 -12 -19 -31 -29 -35 -19 -36 -19 -108 4 l-72 23 27 24 c33 28
73 30 136 6z m-1711 -72 c17 -11 32 -24 32 -29 0 -10 -109 -51 -136 -51 -23 0
-64 27 -64 41 0 9 15 17 90 45 45 17 40 17 78 -6z m1610 -11 c23 -10 42 -24
42 -32 0 -15 -40 -37 -68 -37 -28 0 -132 44 -129 55 6 18 71 45 92 38 11 -3
39 -14 63 -24z m-2978 -24 c20 -10 32 -27 39 -53 14 -48 14 -82 0 -82 -5 0 -8
4 -4 10 7 11 -37 100 -60 124 -20 20 -12 20 25 1z m4248 -2 c-21 -24 -58 -99
-58 -118 0 -8 -5 -15 -11 -15 -14 0 -2 77 18 108 8 13 24 27 36 32 31 12 32
12 15 -7z m-4153 -13 c18 -20 32 -107 22 -134 -10 -25 -37 -7 -37 23 0 16 -7
50 -15 77 -18 59 -18 54 -2 54 8 0 22 -9 32 -20z m4075 3 c-6 -10 -16 -47 -23
-82 -17 -89 -37 -92 -37 -7 0 53 4 70 20 86 26 26 55 28 40 3z m-4215 -9 c15
-16 55 -87 55 -99 0 -4 -18 16 -40 43 -22 28 -47 55 -57 61 -16 9 -16 10 4 11
12 0 29 -7 38 -16z m4337 -11 c-15 -16 -40 -44 -55 -63 l-28 -35 22 45 c27 57
47 80 70 80 14 0 13 -5 -9 -27z m-2807 0 c19 -9 35 -21 35 -25 0 -5 -29 -23
-65 -39 -64 -29 -67 -29 -100 -13 -19 9 -35 22 -35 29 0 9 94 57 127 65 1 0
18 -8 38 -17z m1388 -23 c35 -17 34 -36 -2 -55 -32 -16 -67 -8 -140 30 -36 18
-33 31 12 50 32 13 56 8 130 -25z m-2683 -82 c0 -71 -3 -76 -32 -54 -15 11
-18 29 -18 91 l0 78 25 -23 c22 -21 25 -32 25 -92z m3874 -55 c-26 -19 -34 -7
-34 56 0 45 5 65 23 87 l22 29 3 -80 c2 -66 0 -82 -14 -92z m-4139 127 c35
-36 26 -39 -18 -6 -18 13 -41 26 -52 29 -14 3 -10 5 11 6 22 1 38 -8 59 -29z
m4435 19 c-13 -6 -40 -22 -59 -36 -35 -27 -34 -16 2 25 13 14 31 22 51 21 31
0 31 0 6 -10z m-4086 -40 c22 -25 26 -41 26 -89 0 -32 -5 -62 -10 -65 -6 -3
-24 3 -40 15 -29 20 -30 25 -30 96 0 85 11 94 54 43z m3728 -41 c-3 -63 -7
-76 -28 -95 -14 -13 -29 -23 -35 -23 -5 0 -9 32 -9 72 0 60 4 76 22 95 12 13
29 23 38 23 13 0 15 -11 12 -72z m-4109 31 c62 -41 60 -52 -3 -21 -27 13 -60
25 -74 26 -32 1 -32 4 -3 16 31 12 29 13 80 -21z m4540 11 c4 -3 -5 -7 -20 -7
-15 0 -52 -11 -80 -25 -29 -14 -53 -22 -53 -19 0 3 21 21 47 38 45 31 81 36
106 13z m-2838 -14 c19 -8 35 -20 35 -26 0 -5 -29 -25 -65 -42 -64 -32 -65
-32 -100 -15 -19 9 -35 20 -35 25 0 7 114 72 127 72 2 0 19 -7 38 -14z m1135
-16 c33 -17 60 -37 60 -45 0 -8 -17 -19 -39 -26 -36 -11 -43 -9 -100 22 -34
19 -61 37 -61 42 0 7 56 36 73 37 4 0 34 -14 67 -30z m-2359 -9 c26 -27 29
-36 29 -95 0 -35 -4 -67 -9 -71 -5 -3 -21 5 -34 17 -21 20 -26 34 -30 101 -4
48 -2 77 5 77 5 0 23 -13 39 -29z m3502 -147 c-15 -13 -32 -22 -38 -20 -14 4
-18 85 -6 126 6 20 22 42 38 52 l28 17 3 -76 c3 -73 2 -78 -25 -99z m-4007
136 c60 -26 51 -35 -20 -20 -31 6 -66 9 -78 5 l-23 -6 24 20 c29 26 38 26 97
1z m4584 2 l22 -18 -38 0 c-22 0 -59 -3 -84 -8 -52 -10 -47 2 13 26 54 22 60
22 87 0z m-3950 -78 c13 -33 13 -131 0 -139 -5 -3 -23 4 -40 16 -29 22 -30 26
-30 101 l0 79 30 -16 c17 -9 35 -27 40 -41z m1224 46 c14 -5 26 -13 26 -17 0
-11 -114 -73 -133 -73 -22 0 -67 21 -67 31 0 13 103 69 127 69 12 0 33 -4 47
-10z m899 -21 c27 -16 47 -35 44 -42 -2 -7 -19 -16 -39 -21 -31 -8 -43 -4 -97
26 l-63 36 23 16 c35 24 78 19 132 -15z m1170 -51 c-4 -64 -8 -76 -31 -95 -15
-13 -31 -21 -37 -19 -6 2 -9 33 -8 70 1 55 5 72 24 92 12 13 30 24 39 24 15 0
17 -9 13 -72z m-3909 44 c6 -4 -18 -10 -54 -13 -36 -3 -74 -9 -85 -14 -17 -7
-17 -4 5 19 23 25 29 27 74 21 28 -3 55 -9 60 -13z m4570 12 c9 -4 21 -16 27
-27 10 -18 9 -19 -7 -12 -11 5 -48 11 -84 15 -65 6 -65 6 -30 17 41 13 72 15
94 7z m-3869 -49 c22 -21 25 -33 25 -95 0 -75 -8 -84 -46 -52 -17 15 -22 33
-26 95 -6 86 4 96 47 52z m1263 0 c11 -10 3 -19 -44 -49 -32 -20 -63 -36 -70
-36 -21 0 -74 22 -74 31 0 10 68 55 103 69 26 10 66 3 85 -15z m653 -7 c33
-18 59 -38 59 -44 0 -13 -43 -34 -68 -34 -17 0 -132 67 -132 76 0 6 61 33 74
34 5 0 35 -15 67 -32z m1189 -38 c0 -64 -3 -73 -26 -95 -44 -41 -54 -34 -54
42 0 59 3 70 27 95 43 45 53 38 53 -42z m-3858 25 c-28 -8 -63 -22 -77 -31
-31 -20 -32 -8 -3 23 18 19 31 23 77 22 l56 0 -53 -14z m4638 -5 c23 -23 29
-50 6 -31 -7 6 -38 20 -67 30 l-54 20 48 0 c34 1 52 -4 67 -19z m-3776 -23
c25 -21 29 -31 34 -95 5 -81 -3 -89 -50 -49 -23 19 -28 32 -34 95 -7 81 0 89
50 49z m2883 -49 c-5 -64 -10 -76 -34 -95 -48 -39 -57 -32 -49 42 4 36 9 71
12 78 5 13 53 46 68 47 5 0 6 -32 3 -72z m-1621 47 c13 -10 15 -17 8 -22 -89
-64 -116 -75 -147 -66 -46 13 -43 34 10 71 52 35 97 41 129 17z m442 -20 c28
-20 52 -40 52 -45 0 -5 -17 -14 -39 -21 -41 -12 -50 -9 -129 50 -32 23 -33 26
-16 38 31 23 76 15 132 -22z m2070 -29 c19 -39 10 -41 -26 -8 -17 16 -45 35
-62 42 -51 21 -33 30 23 11 37 -13 56 -25 65 -45z m-4644 23 c-27 -17 -55 -38
-61 -47 -12 -14 -13 -14 -13 4 0 28 12 41 50 58 63 27 77 18 24 -15z m66 -23
c0 -8 -25 -35 -55 -61 l-55 -47 0 35 c0 31 6 39 48 65 48 30 62 32 62 8z m911
11 c25 -19 36 -47 43 -109 8 -64 4 -68 -44 -43 -29 15 -33 25 -45 118 -5 41
-4 47 12 47 10 0 25 -6 34 -13z m2664 -54 c-4 -38 -9 -71 -12 -76 -7 -12 -63
-38 -72 -33 -4 3 -4 34 1 68 6 49 14 68 34 86 47 41 57 31 49 -45z m962 13
c17 -16 28 -66 13 -66 -24 0 -100 74 -100 98 l0 24 38 -23 c20 -12 42 -27 49
-33z m-2384 34 c-18 -4 -44 -15 -57 -24 -42 -27 -65 -20 -26 9 24 18 46 25 74
24 l41 -1 -32 -8z m235 -26 c57 -40 57 -57 1 -69 -23 -5 -40 0 -79 25 -66 42
-76 56 -53 69 35 20 77 12 131 -25z m-1358 -19 c16 -9 32 -25 35 -38 29 -127
26 -139 -24 -112 -36 18 -35 17 -55 103 -16 70 -11 75 44 47z m1219 -25 c28
-22 51 -45 51 -50 0 -12 -63 -24 -87 -16 -10 4 -38 24 -63 46 -37 33 -42 41
-30 50 32 21 77 11 129 -30z m1217 23 c-2 -10 -10 -43 -17 -74 -10 -50 -16
-59 -46 -73 -19 -9 -38 -14 -42 -11 -5 2 -3 33 4 67 10 45 21 69 40 85 32 28
69 31 61 6z m-3458 -70 c-13 -14 -35 -34 -50 -45 l-28 -19 0 35 c0 30 7 40 48
71 l47 37 3 -27 c2 -18 -4 -36 -20 -52z m4465 36 c30 -24 37 -37 37 -65 l0
-35 -50 42 c-34 28 -50 50 -50 66 0 31 18 29 63 -8z m-3324 6 c16 -8 33 -27
39 -42 17 -45 32 -95 32 -106 0 -12 -58 -1 -77 14 -10 9 -53 126 -53 145 0 9
33 3 59 -11z m984 -38 c38 -31 45 -42 36 -53 -22 -27 -73 -16 -128 27 -55 44
-59 59 -20 70 35 10 58 1 112 -44z m1217 44 c0 -5 -9 -38 -20 -74 -18 -56 -24
-67 -52 -76 -17 -6 -35 -11 -39 -11 -13 0 -11 30 6 88 11 37 23 56 43 66 31
17 62 20 62 7z m-2063 -43 c18 -15 63 -102 63 -123 0 -18 -16 -19 -58 -4 -29
10 -53 50 -77 128 -7 23 -6 24 25 17 18 -3 39 -11 47 -18z m661 8 c38 -20 96
-82 88 -95 -4 -6 -24 -11 -45 -11 -31 0 -47 9 -92 49 l-54 49 25 11 c34 14 47
13 78 -3z m619 3 l28 -10 -52 -50 c-44 -42 -57 -49 -92 -49 -69 0 -62 29 23
91 43 32 52 34 93 18z m663 -1 c0 -7 -13 -41 -29 -74 -26 -55 -33 -62 -66 -68
-20 -4 -39 -5 -42 -2 -7 7 35 106 54 128 14 15 33 23 71 27 6 0 12 -5 12 -11z
m-3150 -35 c0 -29 -63 -103 -87 -103 -27 0 -13 54 24 92 44 45 63 48 63 11z
m1341 8 c27 -21 76 -117 66 -128 -4 -3 -24 -2 -44 3 -30 8 -41 19 -69 69 -19
33 -34 63 -34 68 0 15 58 6 81 -12z m974 -16 c-41 -35 -85 -45 -115 -25 -13 8
-13 10 1 10 9 0 24 9 34 20 10 11 25 18 34 15 9 -2 30 -1 46 4 17 5 32 10 35
10 3 0 -13 -15 -35 -34z m705 24 c0 -21 -61 -119 -80 -129 -26 -14 -70 -12
-70 3 1 26 56 112 80 124 31 16 70 17 70 2z m1323 -24 c30 -27 37 -41 37 -71
l0 -37 -32 25 c-48 37 -69 69 -62 96 8 29 12 28 57 -13z m-2851 -2 c28 -31 68
-88 68 -97 0 -3 -20 -6 -44 -6 -43 0 -47 2 -85 57 -23 31 -41 60 -41 65 0 4
17 8 38 8 29 0 44 -7 64 -27z m118 17 c21 -11 90 -97 90 -111 0 -5 -20 -9 -44
-9 -41 0 -46 3 -85 55 -23 31 -39 60 -36 65 8 13 51 13 75 0z m174 -39 c27
-27 45 -54 42 -60 -4 -6 -25 -11 -46 -11 -36 0 -43 5 -85 60 l-46 60 43 0 c39
0 49 -5 92 -49z m815 4 c-18 -25 -40 -52 -50 -61 -19 -17 -80 -16 -86 2 -2 6
15 32 38 57 37 43 45 47 85 47 l45 0 -32 -45z m154 39 c3 -4 -14 -33 -39 -65
-41 -54 -49 -59 -83 -59 -21 0 -41 3 -44 6 -8 8 51 91 78 110 20 14 77 19 88
8z m137 -6 c0 -6 -18 -35 -39 -63 -33 -44 -46 -53 -76 -57 -47 -5 -54 11 -24
54 45 66 61 78 101 78 22 0 38 -5 38 -12z m-718 -55 c13 -11 37 -17 73 -17 34
-1 57 -6 60 -13 2 -7 11 -13 20 -13 8 0 15 -4 15 -9 0 -10 -184 -81 -211 -81
-11 0 -63 17 -116 37 l-97 37 32 13 c18 7 32 16 32 21 0 4 25 7 55 7 38 0 59
5 72 18 22 22 41 22 65 0z m-2122 -32 c0 -22 -11 -38 -44 -65 -24 -20 -47 -36
-50 -36 -3 0 -6 15 -6 34 0 28 8 41 42 69 47 39 58 39 58 -2z m4253 -10 c19
-17 27 -34 27 -58 0 -18 -3 -33 -7 -33 -4 0 -24 17 -45 37 -29 29 -38 45 -38
71 0 38 3 37 63 -17z m-2309 -70 c148 -59 121 -60 315 16 94 37 118 43 135 34
12 -7 46 -14 76 -16 30 -3 74 -7 97 -11 l42 -6 7 -65 c13 -123 -15 -260 -86
-426 -54 -124 -112 -218 -184 -295 -43 -46 -70 -86 -86 -127 -63 -160 -124
-248 -169 -243 -38 4 -83 72 -131 195 -33 85 -52 119 -91 159 -98 105 -222
332 -260 479 -20 79 -30 289 -14 315 3 5 17 10 29 10 13 0 29 7 36 15 8 10 18
12 29 6 20 -10 89 -2 97 11 3 5 11 7 18 5 6 -3 69 -28 140 -56z m-1895 -31
c-54 -73 -56 -75 -73 -61 -30 25 -20 65 26 107 l42 38 12 -30 c10 -24 9 -32
-7 -54z m4139 41 c45 -41 51 -65 27 -97 -15 -18 -17 -17 -59 29 -40 45 -43 51
-33 78 6 16 14 29 17 29 3 0 24 -17 48 -39z m-3997 -20 l23 -18 -78 -94 c-43
-52 -83 -96 -88 -98 -5 -1 -18 5 -29 15 -27 25 -17 66 34 132 64 85 95 98 138
63z m3893 -11 c45 -40 96 -117 96 -146 0 -22 -23 -54 -40 -54 -10 0 -160 174
-160 186 0 15 34 44 51 44 10 0 34 -14 53 -30z m-3765 -60 c35 -17 81 -63 81
-79 0 -3 -39 -53 -86 -111 -66 -81 -92 -104 -108 -102 -27 3 -82 49 -106 87
l-19 30 81 98 c50 60 88 97 100 97 10 0 36 -9 57 -20z m3701 -76 c44 -52 80
-99 80 -103 0 -18 -77 -95 -108 -108 -19 -8 -35 -13 -36 -11 -1 2 -42 51 -90
110 l-87 107 22 31 c23 30 91 70 121 70 9 0 53 -43 98 -96z m-3517 -55 c59
-30 260 -163 356 -236 36 -27 40 -33 22 -33 -25 0 -26 -3 -5 -35 l16 -25 -37
0 -37 0 16 -25 16 -25 -35 0 -36 0 16 -29 15 -30 -35 6 c-39 6 -42 3 -19 -32
16 -25 16 -25 -20 -25 -33 0 -36 -2 -26 -19 15 -29 13 -31 -20 -31 -27 0 -30
-2 -20 -19 15 -29 13 -34 -16 -27 -23 6 -26 4 -20 -11 10 -27 -350 336 -370
372 -20 37 -26 26 86 163 41 51 79 92 83 92 4 0 36 -14 70 -31z m3341 -75 c47
-58 86 -111 86 -118 0 -26 -50 -85 -218 -256 -94 -96 -169 -165 -166 -154 5
19 2 21 -21 16 -25 -4 -26 -3 -16 16 16 30 14 32 -19 32 -29 0 -40 13 -20 25
20 12 9 25 -21 25 -24 0 -30 4 -25 15 3 8 9 22 13 31 5 14 1 16 -26 12 -24 -3
-30 -1 -26 9 3 7 8 20 11 28 5 11 -1 15 -25 15 -30 0 -41 13 -21 25 20 12 9
25 -21 25 -32 0 -32 -1 -12 48 3 7 -3 12 -18 12 -36 0 288 226 396 276 28 13
53 24 57 24 3 0 45 -48 92 -106z"/>
<path d="M7141 12103 c-8 -15 -2 -26 30 -59 l40 -41 -30 -30 c-41 -41 -56
-101 -37 -147 17 -40 42 -56 88 -56 95 0 124 113 55 215 -24 36 -118 135 -129
135 -4 0 -11 -8 -17 -17z m128 -187 c9 -20 11 -38 4 -60 -7 -25 -14 -32 -41
-34 -26 -3 -34 1 -41 21 -11 29 -4 65 17 90 21 24 44 18 61 -17z"/>
<path d="M3484 12023 c-7 -2 -10 -12 -7 -23 4 -15 -2 -20 -34 -25 -182 -30
-262 -161 -173 -285 47 -66 108 -75 240 -35 103 31 131 31 158 2 68 -72 3
-177 -110 -177 -52 0 -125 29 -154 61 -17 18 -44 26 -44 12 0 -4 24 -44 52
-90 52 -81 85 -109 72 -59 -5 22 -1 24 58 36 110 21 172 67 198 146 25 76 -21
182 -93 215 -56 25 -78 24 -177 -11 -101 -35 -140 -38 -165 -10 -35 39 -17
107 38 140 55 34 128 24 190 -27 38 -30 62 -31 46 -2 -34 65 -86 135 -95 132z"/>
<path d="M2809 11483 c167 -450 167 -449 135 -484 -8 -9 -11 -19 -6 -22 13 -9
135 94 124 105 -6 6 -20 3 -36 -7 l-26 -17 -19 43 c-37 84 -36 89 24 137 l54
43 58 -37 c32 -20 60 -38 62 -40 3 -3 -5 -12 -18 -20 -15 -11 -19 -20 -13 -26
7 -7 40 14 101 66 50 43 91 82 91 87 0 12 -7 11 -33 -5 -20 -13 -38 -5 -261
120 -131 74 -244 134 -252 134 -10 0 -6 -19 15 -77z m180 -225 c-24 -21 -46
-38 -49 -38 -3 0 -18 35 -34 78 -16 42 -31 83 -34 90 -2 7 33 -10 78 -39 l83
-53 -44 -38z"/>
<path d="M2324 11113 c-76 -82 -151 -163 -168 -181 l-30 -32 64 -65 c35 -35
66 -62 69 -60 2 3 -8 30 -23 60 -33 64 -30 107 8 152 l24 27 63 -56 c35 -31
116 -106 179 -166 l115 -110 -23 -25 c-15 -16 -20 -27 -13 -32 12 -7 174 157
179 181 5 20 -8 17 -34 -7 l-23 -22 -153 143 c-84 79 -164 153 -177 166 l-25
23 24 26 c13 14 41 30 62 37 33 10 43 8 90 -15 29 -15 56 -23 60 -19 6 6 -112
122 -125 122 -3 0 -67 -66 -143 -147z"/>
<path d="M1906 10625 c-37 -52 -64 -99 -61 -105 4 -6 14 -1 26 14 l20 25 187
-136 c103 -74 191 -139 196 -144 5 -4 2 -18 -7 -33 -11 -17 -13 -27 -6 -31 6
-4 11 -5 13 -4 1 2 32 45 69 96 37 51 67 97 67 103 0 17 -19 11 -30 -11 -6
-11 -17 -19 -24 -17 -23 6 -385 273 -386 284 0 6 7 17 15 24 18 15 19 30 2 30
-7 0 -43 -43 -81 -95z"/>
<path d="M1670 10292 c0 -4 6 -14 13 -21 10 -10 7 -16 -13 -29 -116 -78 -157
-176 -114 -268 16 -33 71 -74 121 -88 45 -14 97 12 182 89 92 83 125 93 174
55 66 -52 28 -161 -70 -200 -30 -11 -132 -11 -172 1 -7 2 -15 -1 -17 -6 -5
-12 166 -116 178 -109 4 3 2 14 -5 25 -10 18 -8 23 18 42 95 70 135 131 135
206 0 110 -106 197 -215 177 -27 -5 -58 -27 -113 -80 -91 -87 -112 -99 -144
-87 -79 30 -64 151 24 197 31 16 102 15 156 -1 47 -15 20 21 -47 63 -68 41
-91 50 -91 34z"/>
<path d="M1324 9638 c-35 -34 -58 -73 -109 -186 -74 -161 -74 -163 -59 -169 7
-2 14 8 18 22 4 14 12 25 19 25 6 0 107 -45 222 -99 209 -98 217 -103 200
-143 -5 -12 -3 -18 6 -18 13 1 109 195 109 219 0 20 -17 11 -28 -14 -6 -14
-16 -25 -21 -25 -21 0 -211 94 -211 104 0 16 40 78 59 93 24 18 51 16 125 -12
77 -29 96 -30 135 -10 45 23 84 145 46 145 -8 0 -12 -6 -9 -13 3 -8 -2 -20
-10 -27 -13 -10 -28 -8 -87 14 -90 34 -117 33 -169 -5 l-43 -31 7 26 c10 39
-11 102 -41 125 -17 14 -40 21 -70 21 -38 0 -50 -6 -89 -42z m111 -102 c19
-15 38 -38 41 -52 6 -24 -19 -109 -36 -119 -8 -5 -200 82 -200 91 0 12 34 71
54 92 17 20 28 23 63 19 25 -3 57 -16 78 -31z"/>
<path d="M975 8843 c-77 -240 -73 -224 -59 -230 7 -2 14 8 18 22 4 14 14 25
23 25 8 0 114 -32 234 -72 204 -66 219 -73 213 -92 -10 -33 -10 -38 1 -42 9
-4 161 444 153 451 -2 1 -34 13 -73 25 -38 13 -76 25 -82 28 -7 2 -13 -3 -13
-11 0 -9 9 -19 20 -22 37 -12 79 -56 85 -89 6 -30 -27 -169 -44 -189 -10 -10
-231 61 -231 74 0 6 8 27 17 46 19 40 64 64 104 56 15 -3 29 0 33 5 7 12 -223
87 -233 76 -3 -3 3 -11 13 -18 11 -6 30 -21 43 -33 23 -22 24 -51 2 -110 l-8
-21 -101 31 -101 32 6 35 c3 19 17 58 31 86 29 61 76 90 130 81 57 -10 39 16
-24 35 -32 9 -65 20 -74 23 -12 5 -28 -32 -83 -202z"/>
<path d="M836 8385 c-9 -35 -16 -69 -16 -75 0 -19 17 -10 28 15 6 14 18 25 26
25 8 0 79 -42 157 -94 162 -108 164 -98 -21 -116 -63 -6 -137 -13 -164 -16
l-49 -6 7 37 c6 28 4 36 -5 33 -11 -4 -68 -199 -69 -235 0 -23 18 -13 28 15
l9 27 273 28 c150 15 277 30 281 33 24 15 -8 43 -202 174 -223 151 -249 173
-249 202 0 40 -18 14 -34 -47z"/>
<path d="M676 7677 c-9 -50 -19 -107 -23 -126 -4 -26 -3 -33 8 -29 7 2 16 15
19 29 7 29 -12 30 265 -19 l210 -37 3 -33 c5 -48 19 -39 31 21 28 140 32 180
22 190 -8 8 -13 1 -17 -21 -4 -18 -12 -32 -18 -32 -6 0 -112 18 -236 40 -123
22 -226 40 -227 40 -2 0 -3 13 -3 29 0 64 -18 36 -34 -52z"/>
<path d="M606 7268 c-14 -93 -14 -118 0 -118 8 0 14 8 14 19 0 41 20 44 176
27 81 -9 149 -17 150 -19 1 -1 -81 -58 -183 -127 -102 -69 -189 -134 -193
-145 -4 -11 -10 -50 -13 -87 -5 -56 -4 -68 8 -68 8 0 15 8 15 18 0 39 37 42
241 20 106 -11 204 -24 216 -29 16 -6 23 -17 23 -34 0 -14 6 -25 14 -25 12 0
26 65 26 128 0 29 -18 28 -26 -2 -3 -13 -13 -26 -22 -28 -16 -5 -354 27 -376
35 -6 2 97 75 229 163 136 90 240 166 240 174 0 12 -45 20 -242 41 -146 16
-248 31 -258 39 -8 7 -15 21 -15 31 0 32 -19 21 -24 -13z"/>
<path d="M540 6505 c0 -41 4 -75 9 -75 5 0 11 10 13 21 6 45 27 43 191 -17 86
-32 157 -61 157 -64 0 -5 -328 -120 -342 -120 -5 0 -8 16 -8 35 0 24 -5 35
-15 35 -13 0 -15 -21 -15 -130 0 -123 11 -166 25 -101 6 28 15 32 268 118 278
96 302 110 235 137 -18 7 -133 52 -256 101 -181 70 -225 92 -234 111 -19 42
-28 26 -28 -51z"/>
<path d="M8423 11969 c-171 -32 -280 -207 -231 -371 28 -94 144 -178 245 -178
48 0 53 -2 59 -25 3 -14 9 -25 13 -25 4 0 26 41 48 90 23 50 37 90 31 90 -6 0
-28 -16 -50 -36 -72 -65 -145 -81 -205 -44 -46 27 -56 54 -50 122 7 76 88 246
146 306 34 35 48 42 78 42 85 0 135 -66 137 -182 0 -37 4 -68 9 -68 7 0 76
142 80 165 1 6 -9 9 -22 7 -16 -1 -38 11 -68 39 -68 62 -137 83 -220 68z"/>
<path d="M8895 11653 c-70 -25 -106 -53 -149 -116 -125 -181 -16 -417 192
-417 16 0 54 8 83 17 72 23 158 107 182 177 21 62 22 155 1 204 -48 116 -189
178 -309 135z m213 -51 c33 -21 55 -69 48 -104 -8 -43 -137 -227 -200 -287
-64 -59 -92 -64 -149 -26 -43 30 -54 62 -38 114 24 81 182 294 235 316 34 15
68 10 104 -13z"/>
<path d="M9450 11343 c0 -3 8 -15 18 -26 17 -19 12 -24 -148 -178 -91 -87
-173 -159 -183 -159 -10 0 -27 5 -37 10 -40 22 -26 -9 29 -64 32 -32 61 -54
65 -48 3 5 -1 15 -9 22 -8 7 -15 22 -15 34 0 21 24 46 238 251 l73 70 -112
-233 c-83 -171 -110 -235 -101 -244 8 -8 67 14 224 82 117 51 220 95 228 98
20 7 -60 -77 -193 -200 l-108 -101 -23 22 c-13 13 -26 18 -29 14 -8 -12 170
-189 179 -180 4 4 -2 18 -14 30 l-22 24 175 168 176 168 23 -22 c17 -16 26
-19 31 -11 5 7 -19 39 -60 80 l-67 68 -181 -79 c-100 -43 -182 -79 -184 -79
-2 0 37 80 86 178 l90 179 -67 66 c-63 63 -82 77 -82 60z"/>
<path d="M10020 10738 c0 -6 7 -19 16 -29 14 -15 1 -27 -180 -158 -107 -77
-198 -141 -201 -141 -4 0 -15 10 -24 22 -11 12 -20 17 -24 11 -5 -8 38 -74
139 -212 2 -1 8 0 14 4 7 4 3 17 -11 36 -12 17 -20 31 -18 33 46 38 162 117
169 114 5 -2 26 -28 47 -58 53 -76 108 -112 170 -113 89 -1 143 50 143 134 0
60 -21 99 -127 240 -92 122 -113 144 -113 117z m140 -192 c17 -25 30 -58 30
-75 0 -39 -38 -84 -95 -111 -39 -19 -49 -20 -80 -10 -33 11 -85 64 -85 88 0 8
185 152 196 152 2 0 17 -20 34 -44z"/>
<path d="M10386 10233 c-3 -4 1 -17 10 -31 8 -13 14 -25 12 -26 -25 -19 -410
-246 -416 -246 -5 0 -14 12 -21 27 -8 17 -15 23 -22 16 -7 -7 30 -77 111 -212
67 -111 125 -201 128 -199 39 18 152 93 152 100 0 6 -8 8 -17 5 -91 -30 -99
-31 -139 -11 -27 13 -52 39 -81 84 -24 35 -43 67 -43 71 0 3 94 62 209 131
l208 125 17 -28 c10 -16 22 -27 27 -23 5 3 8 8 6 12 -27 50 -122 204 -127 207
-4 2 -10 2 -14 -2z"/>
<path d="M10660 9745 c0 -2 5 -16 12 -30 11 -25 6 -32 -133 -173 -233 -238
-249 -256 -240 -271 7 -11 52 -9 271 14 250 26 310 27 310 5 0 -6 7 -10 15
-10 20 0 20 0 -17 74 -20 41 -36 62 -44 59 -10 -4 -11 -10 -3 -25 22 -41 4
-46 -308 -83 -24 -2 -43 -2 -43 2 0 9 252 263 261 263 4 0 12 -14 19 -31 8
-17 17 -26 22 -21 11 11 -91 232 -109 232 -7 0 -13 -2 -13 -5z"/>
<path d="M10843 9173 c-87 -30 -96 -50 -21 -44 36 2 62 -2 83 -13 32 -17 65
-62 65 -88 0 -12 -416 -168 -447 -168 -7 0 -15 11 -19 25 -3 14 -12 25 -20 25
-8 0 -14 -1 -14 -3 0 -20 90 -241 96 -237 9 5 9 10 3 45 -4 17 24 29 221 101
146 54 229 79 235 73 6 -6 10 -34 10 -64 0 -58 -22 -92 -79 -122 -18 -9 -25
-18 -19 -24 6 -6 39 2 90 22 l81 31 -23 62 c-12 33 -51 139 -85 234 -35 94
-68 172 -74 171 -6 0 -44 -12 -83 -26z"/>
<path d="M11136 8601 c-4 -5 -4 -21 0 -35 5 -22 2 -26 -38 -36 -23 -6 -126
-34 -227 -61 -102 -27 -191 -47 -198 -45 -7 3 -13 15 -13 26 0 11 -7 20 -15
20 -8 0 -15 -1 -15 -3 0 -9 121 -451 124 -455 2 -2 41 6 85 18 95 26 110 49
28 42 -74 -6 -109 24 -137 116 -32 112 -40 100 92 137 130 35 128 36 128 -36
0 -52 -12 -73 -50 -89 -16 -7 -30 -18 -30 -25 0 -16 232 46 238 64 3 9 -5 11
-31 6 -45 -9 -75 8 -93 50 -26 64 -23 68 79 94 50 13 97 26 102 28 16 6 48
-130 41 -171 -6 -33 -54 -87 -88 -98 -7 -3 -10 -9 -6 -13 7 -7 119 19 144 34
7 4 -8 75 -47 220 -32 117 -60 215 -62 218 -3 2 -8 0 -11 -6z"/>
<path d="M11298 8014 c-5 -4 -8 -15 -8 -24 0 -37 -37 -51 -241 -91 -112 -21
-210 -37 -217 -34 -7 2 -17 16 -22 30 -10 26 -30 35 -30 13 0 -12 8 -52 25
-125 8 -33 25 -28 25 7 0 23 6 33 25 40 33 13 344 72 355 68 5 -2 -72 -101
-171 -220 -166 -202 -197 -248 -168 -248 7 0 116 20 244 45 128 25 240 43 248
39 9 -3 19 -14 22 -25 7 -21 25 -26 25 -8 0 7 -5 40 -12 75 -8 44 -16 64 -26
64 -10 0 -12 -7 -8 -25 9 -36 -20 -50 -154 -75 -63 -12 -126 -24 -139 -27 -18
-4 11 37 123 177 140 174 146 184 140 217 -17 90 -30 134 -36 127z"/>
<path d="M11257 7296 c-40 -15 -73 -40 -88 -67 -5 -10 -15 -62 -24 -117 -18
-124 -29 -148 -70 -162 -66 -22 -125 30 -125 109 0 68 43 131 115 172 31 17
53 35 48 40 -10 10 -213 -21 -213 -33 0 -5 11 -13 24 -18 l24 -9 -15 -58 c-28
-108 -1 -204 70 -251 33 -22 52 -27 101 -27 119 0 169 61 181 220 7 98 21 129
59 139 68 17 111 -42 107 -146 -1 -32 -60 -94 -108 -114 -56 -24 -41 -38 35
-30 37 4 77 9 90 13 25 6 30 23 6 23 -14 0 -16 7 -10 43 17 104 18 127 6 162
-17 52 -65 103 -108 115 -47 13 -58 12 -105 -4z"/>
<path d="M11488 6750 c2 -16 2 -30 -1 -30 -3 0 -111 -11 -239 -25 -128 -14
-236 -25 -240 -25 -5 0 -8 14 -8 30 0 21 -5 30 -16 30 -12 0 -14 -7 -10 -27 3
-16 8 -59 11 -98 8 -93 15 -125 26 -125 5 0 9 15 9 33 l0 33 234 23 c129 13
239 20 245 17 6 -4 11 -18 11 -32 0 -16 4 -23 11 -18 19 11 -6 244 -26 244 -7
0 -10 -11 -7 -30z"/>
<path d="M11352 6370 c-42 -10 -89 -53 -101 -94 -5 -17 -17 -66 -26 -108 -20
-95 -43 -128 -91 -128 -46 0 -70 14 -89 50 -32 63 -10 137 58 196 23 19 58 40
79 46 60 18 41 33 -38 30 -127 -5 -180 -20 -123 -35 17 -5 20 -11 15 -29 -36
-124 -38 -143 -27 -191 15 -65 42 -101 94 -126 56 -27 112 -27 167 2 58 29 77
64 99 181 20 109 38 136 87 136 48 0 84 -47 84 -109 0 -69 -37 -116 -117 -147
-24 -9 -43 -21 -43 -25 0 -5 41 -9 90 -9 73 0 90 3 90 15 0 8 -7 15 -16 15
-11 0 -15 6 -11 18 35 118 39 148 28 190 -15 55 -63 109 -109 122 -42 11 -53
11 -100 0z"/>
<path d="M5915 8825 c-44 -24 -81 -48 -82 -52 -3 -10 150 -93 172 -93 20 0
175 81 175 92 0 7 -166 98 -177 97 -5 0 -44 -20 -88 -44z"/>
<path d="M5221 8778 c-78 -38 -103 -113 -55 -161 65 -65 198 -37 239 50 22 46
12 79 -34 110 -43 29 -93 29 -150 1z m143 -29 c64 -51 -3 -139 -106 -139 -74
0 -108 44 -77 101 29 56 133 77 183 38z"/>
<path d="M6654 8790 c-29 -11 -64 -58 -64 -84 0 -58 86 -126 159 -126 66 0
121 45 121 98 0 76 -134 145 -216 112z m120 -34 c99 -41 83 -146 -21 -146
-143 0 -187 156 -45 159 18 1 48 -5 66 -13z"/>
<path d="M4643 6373 c3 -1471 3 -1489 24 -1578 30 -130 58 -206 120 -326 131
-254 346 -475 666 -683 130 -85 318 -185 446 -236 78 -31 87 -33 130 -22 25 7
132 55 236 107 669 332 1041 768 1095 1285 6 58 10 650 10 1518 l0 1422 -1365
0 -1366 0 4 -1487z m907 1012 l0 -435 -430 0 -430 0 0 435 0 435 430 0 430 0
0 -435z m1770 0 l0 -435 -435 0 -435 0 0 -95 0 -95 -48 35 c-118 84 -247 125
-397 125 -152 0 -279 -41 -397 -127 l-48 -35 0 96 0 96 445 0 445 0 0 428 c0
236 3 432 7 435 3 4 199 7 435 7 l428 0 0 -435z m-1147 -511 c155 -40 311
-157 411 -307 109 -165 150 -310 149 -522 -1 -149 -16 -230 -67 -355 -95 -237
-301 -418 -529 -467 -149 -31 -331 -1 -465 79 -74 44 -185 149 -235 222 -49
73 -109 201 -131 282 -37 137 -38 349 -2 484 42 160 117 292 225 400 182 179
410 245 644 184z m-920 -901 c14 -213 117 -443 256 -578 l41 -39 0 -98 0 -98
-430 0 -430 0 0 450 0 450 279 0 278 0 6 -87z m2067 -363 l0 -450 -435 0 -435
0 0 -445 0 -445 292 -2 291 -3 -84 -89 c-46 -49 -124 -122 -172 -163 -82 -68
-279 -207 -312 -220 -13 -4 -15 28 -15 236 l0 241 -445 0 -445 0 0 445 0 445
445 0 445 0 0 91 0 92 69 72 c78 82 140 180 181 287 32 84 60 207 60 270 0 24
3 53 6 66 l6 22 274 0 274 0 0 -450z m-1770 -1586 c0 -193 -3 -244 -12 -238
-66 39 -211 140 -285 201 -90 73 -273 256 -273 274 0 5 126 9 285 9 l285 0 0
-246z"/>
<path d="M5903 6788 c-40 -9 -42 -10 -32 -35 5 -14 10 -41 11 -58 l1 -32 45 9
c54 10 57 12 47 35 -7 16 -9 16 -12 2 -6 -26 -41 -31 -49 -7 -8 26 2 34 23 17
15 -12 16 -12 10 4 -4 10 -7 24 -7 30 0 8 -4 7 -9 -2 -10 -16 -31 -6 -31 15 0
17 31 19 48 2 9 -9 12 -8 12 4 0 23 -9 26 -57 16z"/>
<path d="M6018 6762 c2 -22 -1 -49 -7 -61 -11 -19 -9 -21 17 -21 26 0 29 3 24
25 -2 14 0 25 6 25 5 0 12 -13 16 -30 4 -21 11 -30 25 -30 15 0 18 5 14 23 -3
12 -10 28 -16 35 -6 8 -6 12 2 12 12 0 15 36 4 43 -5 3 -26 8 -48 11 l-41 7 4
-39z m60 1 c-5 -25 -28 -28 -28 -4 0 12 6 21 16 21 9 0 14 -7 12 -17z"/>
<path d="M6166 6755 c-9 -25 -7 -30 6 -17 31 31 36 7 9 -48 l-18 -38 24 -11
c18 -8 23 -8 21 2 -3 18 22 87 33 87 5 0 9 -9 9 -21 0 -11 5 -17 10 -14 23 14
9 41 -27 54 -21 8 -43 16 -49 18 -6 2 -14 -3 -18 -12z"/>
<path d="M5745 6732 l-30 -17 26 -52 26 -51 32 19 c39 24 50 48 28 64 -10 7
-17 19 -17 28 0 8 -7 18 -16 21 -19 7 -13 9 -49 -12z m35 -22 c0 -11 -2 -20
-5 -20 -2 0 -9 9 -15 20 -9 16 -8 20 5 20 8 0 15 -9 15 -20z m30 -44 c0 -8 -4
-18 -10 -21 -5 -3 -10 -4 -10 -1 0 2 -3 11 -6 20 -4 11 -1 16 10 16 9 0 16 -6
16 -14z"/>
<path d="M5634 6658 c-10 -12 -14 -18 -8 -15 11 6 55 -42 65 -70 3 -9 9 -8 22
2 18 13 17 15 -15 51 -18 20 -32 40 -30 45 4 16 -15 9 -34 -13z"/>
<path d="M6305 6650 c-22 -16 -47 -29 -54 -30 -13 0 -13 -2 -2 -12 11 -10 14
-10 18 0 3 6 11 12 19 12 8 0 14 5 14 10 0 6 5 10 11 10 8 0 8 -5 -1 -15 -7
-8 -9 -15 -5 -15 4 0 2 -7 -5 -15 -11 -13 -10 -18 6 -29 18 -13 20 -10 36 47
10 34 17 63 18 65 1 8 -20 -3 -55 -28z"/>
<path d="M5990 6568 c-6 -24 -12 -47 -14 -52 -1 -5 -17 10 -35 33 -34 43 -56
54 -47 24 3 -10 8 -35 12 -56 l6 -38 -46 22 c-25 13 -49 20 -52 16 -4 -4 7
-25 25 -47 l32 -40 -50 0 c-27 0 -53 -4 -56 -10 -3 -5 14 -20 39 -32 26 -12
46 -25 46 -28 0 -3 -21 -17 -47 -30 l-48 -25 35 -2 c19 -2 45 -6 58 -8 22 -5
22 -6 -9 -45 -18 -22 -30 -43 -27 -46 4 -3 27 4 53 15 l47 21 -6 -38 c-4 -20
-9 -45 -12 -54 -9 -31 13 -20 47 23 18 23 34 38 35 33 2 -5 8 -28 14 -51 6
-24 15 -43 19 -43 5 0 15 23 21 51 l13 51 38 -43 c36 -42 38 -43 39 -19 0 14
-4 40 -9 58 -5 17 -8 32 -6 32 3 0 25 -10 50 -22 24 -12 47 -19 51 -15 4 3 -8
24 -25 46 l-32 40 23 5 c13 3 39 7 58 9 l35 2 -47 25 c-27 13 -48 27 -48 30 0
3 20 16 46 28 25 12 42 27 39 32 -3 6 -29 10 -56 10 l-51 0 32 40 c18 23 30
44 26 47 -4 4 -27 -3 -51 -15 -25 -12 -47 -22 -50 -22 -2 0 1 15 6 32 5 18 9
44 9 58 -1 24 -3 23 -39 -19 l-38 -43 -13 51 c-6 28 -16 51 -21 51 -4 0 -13
-19 -19 -42z m30 -53 c0 -37 21 -41 47 -9 l24 29 -6 -42 c-7 -47 -3 -50 35
-28 39 23 43 18 15 -19 l-26 -35 48 -3 48 -3 -37 -19 c-21 -11 -38 -23 -38
-26 0 -4 15 -14 33 -23 32 -16 32 -16 5 -16 -54 -2 -60 -10 -32 -47 28 -37 24
-42 -16 -19 -38 22 -42 18 -35 -27 l7 -43 -30 35 -30 35 -7 -30 c-13 -56 -18
-61 -25 -27 -11 49 -19 51 -52 12 -21 -24 -28 -29 -24 -15 14 52 18 75 12 75
-4 0 -22 -7 -42 -15 -36 -15 -37 -9 -6 27 19 23 7 38 -31 39 l-32 0 33 16 c17
9 32 19 32 23 0 3 -17 15 -37 26 l-38 19 43 3 c23 2 42 6 42 8 0 3 -9 17 -20
31 -26 33 -20 39 19 19 47 -25 47 -25 25 59 -4 14 2 10 21 -12 34 -42 43 -41
51 2 7 38 24 38 24 0z"/>
<path d="M6387 6567 l-38 -33 21 -27 c28 -36 49 -34 82 7 29 37 29 60 -3 76
-23 13 -18 15 -62 -23z m69 -2 c8 -21 -6 -41 -17 -24 -12 19 -11 39 1 39 6 0
13 -7 16 -15z m-47 -52 c1 -7 -6 -13 -14 -13 -15 0 -21 40 -8 54 7 7 21 -18
22 -41z"/>
<path d="M5533 6561 c-11 -17 -9 -21 7 -26 10 -3 30 -19 43 -35 l24 -29 33 34
c28 29 31 37 20 50 -7 8 -17 15 -22 15 -6 0 -5 -7 2 -16 11 -12 10 -18 -4 -32
-16 -16 -19 -15 -52 21 -19 20 -35 37 -37 37 -1 0 -8 -9 -14 -19z"/>
<path d="M5470 6051 c-23 -6 -25 -10 -25 -68 0 -62 0 -63 27 -63 25 0 27 3 22
30 -6 27 -4 30 19 30 33 0 56 36 35 55 -18 17 -48 24 -78 16z m48 -33 c-5 -32
-28 -35 -28 -4 0 17 5 26 16 26 10 0 14 -7 12 -22z"/>
<path d="M5715 6051 c-17 -5 -20 -15 -20 -68 0 -61 1 -63 25 -63 24 0 26 3 22
37 -4 33 -3 36 11 25 9 -8 17 -23 19 -35 3 -19 10 -22 63 -25 48 -2 57 0 47
10 -6 6 -12 20 -12 30 0 20 26 25 33 6 3 -7 5 3 5 22 0 19 -2 29 -5 23 -8 -21
-33 -15 -33 7 0 24 38 28 46 5 8 -21 24 -19 25 3 0 9 10 -10 22 -43 12 -33 27
-59 32 -57 6 1 18 27 28 57 25 74 41 71 35 -5 -4 -51 -2 -60 13 -60 14 0 16 8
12 48 l-5 47 36 -40 c19 -22 35 -43 36 -47 0 -5 4 -8 9 -8 5 0 11 29 13 65 3
60 1 65 -17 64 -11 0 -14 -3 -7 -6 6 -2 12 -19 12 -36 l-1 -32 -30 38 c-26 31
-37 37 -70 37 -21 0 -38 -3 -37 -7 1 -5 -2 -24 -7 -43 l-8 -35 -12 35 c-7 19
-10 38 -8 43 2 4 -35 7 -84 6 -48 0 -82 -3 -75 -6 13 -5 17 -99 4 -107 -20
-12 -35 14 -35 58 1 25 -2 48 -5 50 -17 9 -59 13 -77 7z m50 -31 c0 -7 -6 -15
-12 -17 -8 -3 -13 4 -13 17 0 13 5 20 13 18 6 -3 12 -11 12 -18z"/>
<path d="M5568 6043 c16 -6 16 -95 0 -111 -9 -9 2 -12 50 -12 61 0 62 0 62 28
-1 24 -2 25 -14 10 -7 -10 -23 -18 -35 -18 -16 0 -21 6 -21 25 0 29 3 30 24 9
15 -14 16 -12 15 18 0 18 -3 27 -6 21 -8 -21 -33 -15 -33 7 0 25 35 27 49 3 9
-16 10 -16 11 5 0 20 -4 22 -57 21 -32 0 -52 -3 -45 -6z"/>
<path d="M6195 5985 l0 -65 43 0 c32 0 49 6 67 25 51 50 18 105 -62 105 l-48
0 0 -65z m91 31 c10 -42 1 -71 -23 -74 -21 -3 -23 0 -23 47 0 44 3 51 20 51
12 0 22 -9 26 -24z"/>
<path d="M6345 5985 l0 -65 53 0 c50 0 52 1 51 28 -1 16 -3 20 -6 10 -7 -26
-53 -24 -53 2 0 11 5 20 10 20 6 0 10 -4 10 -10 0 -5 5 -10 10 -10 6 0 10 14
10 30 0 17 -4 30 -10 30 -5 0 -10 -4 -10 -10 0 -5 -4 -10 -10 -10 -5 0 -10 9
-10 20 0 25 28 26 46 3 12 -17 13 -16 14 5 0 20 -5 22 -52 22 l-53 0 0 -65z"/>
<path d="M6460 6028 c1 -21 2 -21 11 -5 21 35 31 18 27 -43 -4 -59 -4 -60 21
-60 25 0 26 1 23 60 -4 62 2 72 24 43 12 -17 13 -16 14 5 0 20 -4 22 -60 22
-56 0 -60 -2 -60 -22z"/>
<path d="M5483 5770 c-52 -21 -51 -93 2 -106 61 -15 103 65 53 100 -25 18 -25
18 -55 6z m64 -37 c5 -13 -46 -43 -72 -43 -25 0 -17 28 13 44 30 17 53 17 59
-1z"/>
<path d="M6449 5739 c-11 -23 -19 -42 -17 -43 2 -2 18 -9 36 -16 19 -7 40 -19
47 -27 12 -12 17 -7 35 28 20 39 21 43 5 58 -15 15 -16 14 -10 -11 9 -37 -1
-51 -26 -38 -11 6 -17 15 -14 21 4 5 11 7 16 4 5 -4 9 -2 9 3 0 6 -7 13 -16
16 -22 9 -24 8 -24 -10 0 -18 -22 -14 -28 5 -2 7 5 15 17 18 25 6 27 18 6 27
-10 4 -21 -7 -36 -35z"/>
<path d="M5561 5625 c-19 -19 -39 -31 -43 -29 -4 3 -8 1 -8 -5 0 -12 20 -26
20 -14 0 4 13 17 27 28 l27 19 -22 -36 c-25 -40 -28 -52 -9 -45 6 2 23 8 37
12 22 7 23 6 11 -9 -7 -9 -20 -16 -29 -16 -13 0 -12 -3 2 -19 18 -19 19 -19
53 12 20 18 39 31 44 30 14 -4 11 13 -5 26 -10 8 -21 8 -40 1 -38 -14 -38 -14
-21 19 14 27 12 62 -4 60 -3 0 -22 -15 -40 -34z"/>
<path d="M6382 5633 c-25 -29 -26 -33 -10 -68 20 -45 85 -46 106 -1 9 20 8 27
-5 38 -15 12 -16 10 -9 -15 9 -37 -16 -47 -52 -20 -34 25 -35 55 -3 63 19 4
21 7 10 17 -11 9 -19 6 -37 -14z"/>
<path d="M6313 5553 c-7 -3 -13 -9 -13 -14 0 -6 4 -8 9 -5 5 3 11 -4 15 -17 9
-36 7 -38 -19 -21 -14 9 -22 21 -19 26 4 6 -2 5 -14 -1 -25 -13 -37 -31 -22
-31 6 0 32 -14 56 -31 25 -17 47 -29 49 -27 2 2 -4 31 -13 64 -11 39 -21 59
-29 57z"/>
<path d="M5702 5511 c-7 -15 -21 -37 -31 -48 -11 -12 -17 -24 -14 -27 9 -8 23
-7 21 2 -1 4 4 18 11 32 13 23 15 24 22 5 4 -11 8 -35 8 -52 1 -43 13 -41 45
7 14 22 32 40 39 40 8 0 7 4 -3 10 -19 12 -33 13 -26 1 3 -4 -1 -16 -8 -26
-12 -16 -14 -14 -19 22 -9 55 -29 70 -45 34z"/>
<path d="M6153 5460 l-22 -9 20 -40 c10 -22 19 -47 19 -55 0 -13 6 -13 45 2
46 17 52 26 35 52 -8 12 -10 11 -10 -6 0 -18 -26 -41 -35 -32 -11 12 -34 82
-29 89 6 10 6 10 -23 -1z"/>
<path d="M5840 5442 c0 -10 -9 -34 -19 -55 -10 -20 -15 -37 -11 -37 5 0 15 -2
22 -5 10 -4 18 9 27 45 7 27 18 50 24 50 16 0 -14 20 -30 20 -7 0 -13 -8 -13
-18z"/>
<path d="M5938 5379 c-21 -46 -24 -59 -12 -59 7 0 13 5 12 12 -2 6 6 14 16 16
14 3 17 0 13 -11 -4 -10 2 -16 19 -20 13 -2 24 -3 24 -2 0 10 -33 112 -38 117
-4 3 -19 -20 -34 -53z"/>
<path d="M10537 5093 c-3 -3 -1 -14 6 -24 10 -16 6 -25 -30 -61 -92 -95 -106
-198 -34 -269 20 -20 56 -43 79 -50 67 -20 110 -1 174 73 89 105 116 128 149
128 45 0 89 -48 89 -97 0 -90 -77 -147 -197 -148 -46 0 -73 -4 -73 -11 0 -6
43 -29 95 -51 59 -26 95 -37 95 -29 0 7 -5 17 -12 24 -9 9 1 24 41 67 61 65
81 107 81 172 0 71 -33 122 -99 156 -100 50 -158 29 -250 -92 -68 -89 -88
-105 -126 -95 -78 20 -71 161 11 205 16 8 55 14 96 14 48 0 68 4 68 13 0 6 -2
12 -4 12 -2 0 -37 15 -79 34 -41 19 -77 32 -80 29z"/>
<path d="M1467 5084 c-3 -3 -1 -17 4 -31 5 -14 8 -27 6 -29 -10 -11 -410 -174
-426 -174 -11 0 -27 10 -35 22 -29 41 -29 8 -1 -62 15 -38 34 -70 41 -70 10 0
11 6 3 27 -8 21 -6 30 8 44 17 16 374 172 380 165 2 -2 -78 -79 -177 -171 -99
-92 -180 -171 -180 -174 1 -23 25 -26 165 -20 83 4 193 7 245 7 l95 1 -200
-85 c-110 -47 -201 -81 -203 -76 -6 19 -31 47 -36 41 -8 -8 84 -229 96 -229 5
0 6 15 3 33 l-6 32 222 94 c123 52 224 90 226 84 7 -21 32 -48 38 -41 4 3 -10
45 -31 93 l-37 88 -201 -7 c-199 -7 -201 -7 -181 12 19 18 267 243 272 247 4
2 -67 169 -76 178 -4 4 -10 5 -14 1z"/>
<path d="M9957 3953 c-78 -123 -89 -144 -82 -151 4 -4 15 3 25 16 10 12 21 22
25 22 10 0 394 -241 401 -251 3 -5 0 -18 -6 -30 -7 -12 -8 -25 -3 -30 7 -7
123 167 131 198 5 21 -16 15 -28 -8 -7 -13 -17 -18 -27 -15 -22 9 -403 247
-403 253 0 2 7 14 16 27 10 16 11 26 5 31 -6 3 -30 -25 -54 -62z"/>
<path d="M1980 3619 c-135 -37 -255 -68 -267 -68 -12 -1 -31 8 -42 20 -12 13
-21 17 -26 10 -7 -12 72 -131 86 -131 13 0 11 24 -3 38 -18 18 6 37 70 55 l53
15 31 -41 c55 -76 55 -78 6 -141 -42 -55 -43 -56 -59 -35 -9 12 -21 20 -28 18
-7 -3 19 -47 60 -107 48 -68 76 -99 82 -93 7 7 6 15 -3 25 -7 9 -10 22 -7 30
3 8 74 115 157 237 83 122 148 225 143 229 -4 4 -118 -23 -253 -61z m74 -21
c-20 -33 -96 -128 -103 -128 -5 0 -23 21 -40 48 l-31 47 78 22 c92 26 106 27
96 11z"/>
<path d="M9347 3113 c-4 -3 -2 -12 4 -19 9 -11 4 -18 -21 -31 -92 -51 -118
-73 -139 -115 -40 -84 -21 -164 51 -215 67 -46 114 -39 224 30 120 75 135 78
179 34 39 -39 43 -63 19 -112 -19 -41 -47 -60 -107 -75 -44 -12 -71 -7 -174
25 -42 13 -24 -12 54 -78 74 -63 104 -76 83 -37 -11 21 -5 27 62 59 138 65
176 215 81 313 -77 79 -144 76 -274 -11 -50 -34 -99 -61 -110 -61 -29 0 -69
44 -69 77 0 36 31 87 67 110 33 22 105 21 159 -2 63 -26 59 -2 -10 58 -67 60
-69 61 -79 50z"/>
<path d="M2732 2861 c-39 -36 -60 -61 -53 -65 6 -4 25 3 43 15 47 34 114 32
162 -5 l38 -29 -23 -21 c-13 -12 -93 -89 -176 -171 l-153 -149 -24 23 c-14 13
-30 20 -36 16 -8 -5 20 -40 81 -101 51 -51 97 -90 102 -87 4 3 -2 16 -15 30
l-23 25 173 169 c94 93 176 169 180 169 4 0 20 -19 35 -42 33 -50 31 -90 -8
-150 -40 -60 -13 -52 55 17 l63 64 -167 173 c-92 95 -173 174 -179 175 -7 1
-41 -24 -75 -56z"/>
<path d="M8457 2236 c-32 -24 -53 -47 -48 -51 6 -3 19 -1 30 5 11 5 24 10 30
10 10 0 196 -239 189 -244 -1 -2 -102 20 -224 47 l-221 50 -65 -49 c-35 -27
-63 -55 -60 -62 3 -10 7 -10 18 -2 7 7 25 9 41 5 22 -5 55 -43 144 -163 146
-197 145 -196 119 -222 -35 -35 -11 -42 33 -10 80 58 90 67 83 79 -5 8 -14 6
-32 -5 -23 -15 -26 -15 -44 1 -25 23 -233 295 -229 299 2 2 128 -27 280 -63
152 -37 281 -65 288 -63 6 2 11 8 11 14 0 5 -65 95 -145 200 -138 181 -163
226 -135 243 12 7 13 25 3 25 -5 0 -34 -20 -66 -44z"/>
<path d="M3690 2092 c0 -6 9 -18 21 -26 13 -9 18 -19 13 -28 -6 -10 -255 -358
-271 -377 -2 -3 -17 3 -33 13 -25 14 -30 15 -30 3 0 -18 191 -158 204 -150 5
4 -3 17 -18 30 l-27 23 68 95 c37 52 72 94 76 95 18 0 68 -43 83 -71 18 -36
13 -54 -33 -127 -46 -71 -52 -117 -22 -156 22 -28 74 -56 104 -56 22 0 19 18
-5 25 -29 9 -25 28 20 102 45 75 49 106 21 162 l-20 38 43 -10 c87 -20 146 20
146 98 0 82 -29 116 -204 240 -117 82 -136 93 -136 77z m210 -160 c56 -54 53
-90 -13 -159 -38 -41 -74 -43 -134 -8 -23 14 -43 28 -43 31 0 15 124 174 136
174 7 0 31 -17 54 -38z"/>
<path d="M7178 1409 c-109 -54 -198 -104 -198 -110 0 -11 16 -9 50 5 11 5 41
-45 124 -210 59 -118 107 -217 105 -218 -2 -2 -15 -9 -28 -16 -16 -8 -20 -15
-13 -22 7 -7 73 22 209 92 109 56 202 106 206 110 5 4 -9 42 -30 84 -38 77
-61 99 -49 49 26 -114 12 -142 -97 -199 -42 -21 -78 -36 -80 -34 -9 10 -108
212 -105 215 17 14 54 25 86 25 32 0 45 -6 65 -30 50 -58 46 -29 -8 80 -30 61
-60 110 -65 110 -13 0 -13 -10 1 -48 14 -40 0 -66 -51 -92 -22 -11 -42 -20
-45 -20 -6 0 -95 176 -95 188 0 11 102 60 143 67 41 8 85 -11 116 -51 12 -15
24 -24 28 -20 7 7 -57 146 -66 145 -3 0 -95 -45 -203 -100z"/>
<path d="M4755 1430 c-3 -6 5 -15 19 -22 14 -6 26 -16 26 -21 0 -13 -188 -419
-200 -430 -4 -5 -18 -4 -30 3 -14 7 -26 8 -31 3 -6 -6 33 -30 102 -62 78 -36
115 -49 123 -41 6 6 6 10 0 10 -6 0 -19 6 -29 14 -18 13 -15 23 84 235 l103
220 29 -15 c24 -12 29 -12 29 -1 0 7 -17 21 -37 32 -124 59 -183 83 -188 75z"/>
<path d="M5750 920 c0 -88 13 -120 25 -62 18 82 54 120 125 129 l40 6 0 -247
0 -246 -35 0 c-19 0 -35 -4 -35 -10 0 -6 52 -10 135 -10 83 0 135 4 135 10 0
6 -16 10 -35 10 l-35 0 0 245 0 245 33 0 c63 0 115 -47 126 -115 11 -67 26
-42 29 48 l3 87 -256 0 -255 0 0 -90z"/>
</g>
</svg>
