<?xml version="1.0" standalone="no"?>
<!DOCTYPE svg PUBLIC "-//W3C//DTD SVG 20010904//EN"
 "http://www.w3.org/TR/2001/REC-SVG-20010904/DTD/svg10.dtd">
<svg version="1.0" xmlns="http://www.w3.org/2000/svg"
 width="1181.000000pt" height="1086.000000pt" viewBox="0 0 1181.000000 1086.000000"
 preserveAspectRatio="xMidYMid meet">

<g transform="translate(0.000000,1086.000000) scale(0.100000,-0.100000)"
fill="#000000" stroke="none">
<path d="M5803 10850 c-272 -54 -477 -472 -434 -884 6 -61 13 -119 14 -129 2
-15 -11 -23 -58 -38 -82 -26 -207 -49 -266 -49 l-48 0 5 30 c4 20 -14 114 -56
281 -75 301 -67 290 -193 240 -744 -299 -1330 -1038 -1621 -2045 -107 -368
-165 -720 -187 -1129 -15 -276 -19 -267 116 -267 90 0 95 -1 99 -22 3 -13 12
-63 21 -113 22 -116 74 -290 132 -435 367 -928 1325 -1806 2316 -2125 211 -68
254 -74 367 -46 429 105 907 354 1340 698 158 125 501 463 617 609 261 325
436 628 554 957 37 103 90 299 103 382 4 22 9 52 12 68 l6 27 92 0 c134 0 131
-5 122 207 -41 975 -346 1875 -847 2498 -264 329 -616 597 -963 735 -89 35
-118 34 -134 -7 -29 -72 -123 -480 -118 -510 l5 -33 -49 0 -48 0 -7 79 c-5 54
-3 92 5 117 15 45 8 166 -14 237 -32 108 -181 326 -329 483 -98 104 -183 156
-294 179 -73 16 -193 18 -260 5z m309 -58 c31 -11 82 -37 113 -57 114 -76 361
-400 416 -545 29 -77 37 -206 15 -248 -25 -49 -58 -65 -117 -60 -66 7 -125 48
-155 108 -13 27 -30 99 -43 180 -29 182 -44 228 -96 299 -207 282 -490 220
-571 -124 -45 -193 50 -547 210 -782 141 -207 231 -403 259 -569 5 -29 4 -31
-19 -26 -16 3 -35 -4 -57 -20 -17 -14 -47 -33 -64 -42 -41 -21 -44 -4 -8 45
48 66 60 96 45 114 -9 11 -24 15 -42 13 -25 -4 -31 0 -43 28 -23 57 -80 54
-105 -5 -7 -19 -17 -28 -26 -24 -8 3 -25 2 -39 -1 -32 -8 -33 -39 -1 -80 22
-30 56 -90 56 -100 0 -10 -38 8 -93 44 l-55 35 -12 73 c-18 114 -55 230 -136
434 -41 102 -85 227 -98 277 -62 232 -58 460 13 664 66 189 202 348 331 384
68 19 251 11 322 -15z m-76 -199 c58 -19 178 -133 213 -200 13 -26 32 -108 50
-210 32 -187 49 -233 110 -285 39 -33 71 -88 51 -88 -6 0 -80 22 -165 50 -203
66 -310 84 -442 76 l-101 -6 -22 93 c-31 128 -37 246 -16 324 31 122 91 208
171 244 50 23 88 24 151 2z m-1169 -305 c6 -7 31 -98 57 -203 26 -104 49 -197
51 -206 4 -11 -9 -20 -47 -34 -75 -26 -240 -109 -323 -162 -172 -111 -373
-301 -512 -483 -388 -513 -637 -1301 -660 -2091 l-6 -207 -161 -7 c-89 -4
-188 -5 -221 -3 l-60 3 2 150 c10 712 223 1509 559 2091 305 530 691 893 1183
1116 116 52 124 54 138 36z m2163 -14 c790 -321 1384 -1114 1655 -2209 83
-335 134 -706 138 -1010 l2 -160 -60 -3 c-33 -2 -134 -1 -223 3 -148 7 -163 9
-159 24 9 34 -13 409 -33 571 -126 1002 -538 1796 -1136 2187 -92 59 -252 142
-331 169 -38 13 -52 23 -48 34 2 8 25 101 51 205 44 179 57 215 74 215 3 0 35
-12 70 -26z m-973 -379 c43 -8 158 -40 255 -71 l177 -57 30 -73 c17 -41 31
-76 31 -78 0 -6 -76 16 -240 70 -185 60 -297 84 -406 84 l-91 0 -22 56 c-11
31 -21 60 -21 64 0 22 179 25 287 5z m-1072 -95 c0 -19 -14 -31 -70 -61 -38
-21 -73 -35 -76 -31 -4 4 -9 19 -13 34 -6 25 -2 28 67 57 39 17 77 29 82 27 6
-1 10 -13 10 -26z m1930 -1 c73 -30 74 -31 68 -62 -3 -18 -7 -34 -9 -36 -5 -6
-146 74 -151 87 -6 13 3 42 12 42 4 0 40 -14 80 -31z m-1502 -70 c10 -34 16
-63 13 -66 -2 -2 -48 -18 -103 -34 -133 -40 -264 -56 -340 -42 -146 27 -171
64 -75 111 50 25 65 28 122 24 70 -4 195 15 295 47 33 11 62 20 65 20 3 1 13
-27 23 -60z m-603 -46 c14 -62 18 -69 55 -90 100 -56 257 -53 466 8 60 17 111
30 112 28 9 -13 129 -327 151 -394 35 -110 56 -215 56 -285 0 -54 -2 -60 -27
-72 -37 -18 -44 -69 -12 -91 21 -15 21 -18 9 -84 -21 -112 -20 -111 -64 -73
-20 18 -44 46 -52 61 -13 26 -13 32 1 53 29 43 -18 96 -68 77 -44 -17 -49 -61
-11 -96 24 -22 26 -30 20 -72 -11 -85 -60 -140 -133 -150 -47 -6 -100 9 -139
40 l-28 21 25 7 c13 4 55 7 92 8 77 1 92 15 64 63 -15 26 -15 30 1 57 13 24
14 33 4 56 -12 25 -17 27 -56 23 -38 -5 -44 -3 -59 23 -28 50 -55 36 -82 -42
-9 -24 -23 -55 -32 -69 l-17 -25 -7 25 c-4 14 -7 55 -8 91 -1 77 -17 93 -61
61 -23 -17 -28 -18 -45 -6 -22 16 -75 19 -75 4 0 -5 29 -56 63 -112 35 -57 72
-119 82 -138 l18 -34 -34 29 c-187 162 -229 356 -118 540 l32 54 30 -16 c21
-10 48 -14 85 -11 49 4 59 9 95 47 39 42 39 44 35 107 -3 54 -8 68 -33 95 -49
51 -88 63 -200 62 -115 0 -178 -18 -316 -89 -366 -189 -671 -638 -771 -1135
-19 -95 -23 -146 -23 -304 0 -178 14 -313 34 -340 5 -5 11 -66 15 -133 17
-307 67 -485 271 -962 123 -285 139 -344 139 -510 1 -130 2 -135 22 -138 29
-4 80 41 96 83 6 19 18 35 25 35 37 0 143 146 143 197 0 7 15 28 33 46 34 35
58 99 77 207 7 36 20 74 30 85 27 28 45 86 64 196 17 100 36 336 29 356 -3 6
5 16 16 23 40 21 79 124 96 253 11 81 20 51 18 -58 -1 -87 -5 -112 -22 -141
-26 -44 -27 -78 -1 -119 16 -27 21 -53 23 -138 2 -80 6 -110 18 -124 13 -14
18 -50 23 -153 15 -315 97 -512 288 -696 88 -84 160 -138 268 -198 36 -20 58
-36 50 -37 -91 -7 -368 55 -403 90 -6 6 -15 11 -21 11 -5 0 -39 14 -75 31 -36
17 -86 40 -111 51 -25 11 -52 24 -60 28 -51 25 -149 13 -182 -21 -64 -67 -62
-136 10 -244 25 -38 54 -79 64 -89 10 -11 18 -30 18 -42 0 -22 23 -54 39 -54
4 0 13 -11 19 -26 7 -14 27 -31 46 -39 19 -8 37 -23 41 -34 3 -11 51 -66 107
-123 91 -92 102 -101 112 -84 6 10 21 29 34 42 12 13 22 28 22 34 0 5 5 10 11
10 5 0 8 4 5 8 -3 5 4 15 15 22 10 8 19 19 19 25 0 6 9 17 19 25 11 7 18 17
15 22 -13 20 -162 123 -216 148 -32 15 -67 39 -78 53 -11 14 -31 29 -43 33
-12 3 -29 13 -39 21 -9 8 -29 13 -45 11 -23 -2 -33 4 -56 37 -15 22 -39 56
-53 75 -38 52 -23 109 30 110 23 0 185 -67 207 -86 8 -8 20 -14 25 -14 6 0 29
-9 51 -20 35 -17 106 -41 228 -79 32 -10 177 -33 191 -30 5 1 24 1 43 0 32 -1
33 -2 27 -33 -15 -84 49 -263 134 -373 21 -27 57 -85 80 -128 68 -126 101
-126 170 0 24 43 60 101 81 128 80 107 139 258 139 357 0 43 2 48 23 49 12 1
26 1 31 0 14 -3 159 20 191 30 159 49 249 83 295 109 32 19 125 61 170 77 54
19 75 14 92 -23 13 -29 15 -26 -57 -132 -36 -53 -43 -59 -68 -55 -17 4 -34 0
-45 -10 -9 -8 -27 -18 -39 -21 -12 -4 -32 -19 -45 -34 -13 -15 -43 -36 -68
-47 -50 -22 -122 -69 -188 -122 -42 -35 -43 -35 -22 -53 11 -9 20 -21 20 -26
0 -5 9 -16 19 -24 11 -7 18 -17 15 -22 -3 -4 0 -8 5 -8 6 0 11 -5 11 -10 0 -6
10 -21 23 -34 12 -13 27 -31 33 -41 9 -17 21 -8 107 79 54 54 104 110 112 126
8 15 26 31 40 34 13 3 33 19 42 34 10 15 28 35 40 45 13 10 23 29 23 41 0 12
9 32 20 44 11 12 20 24 20 27 0 3 20 33 44 66 70 96 72 171 8 238 -33 34 -131
46 -182 21 -8 -4 -35 -17 -60 -28 -25 -11 -75 -34 -111 -51 -36 -17 -70 -31
-74 -31 -5 0 -16 -6 -24 -13 -36 -30 -166 -62 -368 -91 -36 -5 -27 12 20 35
55 28 184 117 248 171 119 101 246 304 283 453 21 83 36 214 36 310 0 61 5 90
20 120 16 31 20 59 20 130 0 71 4 98 20 128 25 46 25 76 0 124 -14 29 -19 61
-21 136 -2 141 7 141 26 0 8 -65 45 -155 75 -183 26 -24 27 -30 33 -160 9
-208 44 -379 86 -424 12 -13 25 -54 35 -104 18 -97 55 -186 85 -201 12 -7 21
-20 21 -30 0 -55 106 -201 145 -201 6 0 17 -16 23 -35 15 -39 64 -85 92 -85
32 0 40 30 28 104 -22 133 11 256 167 617 112 259 174 440 204 589 24 119 41
266 41 356 0 33 6 74 14 90 42 85 45 441 6 638 -77 390 -301 781 -575 1002
-285 231 -616 293 -722 135 -46 -68 -22 -167 49 -211 39 -24 107 -26 147 -6
27 15 28 14 59 -37 46 -76 62 -131 62 -211 0 -51 -7 -87 -24 -127 -27 -66
-100 -162 -157 -209 -49 -39 -49 -40 53 127 88 144 87 143 51 143 -16 0 -38
-6 -48 -14 -17 -12 -23 -12 -46 5 -48 34 -73 5 -68 -77 1 -22 2 -52 0 -69 l-2
-30 -24 30 c-14 17 -25 36 -25 43 0 24 -40 92 -54 92 -8 0 -24 -12 -36 -27
-17 -22 -28 -27 -56 -24 -19 1 -42 -3 -50 -9 -18 -16 -18 -59 1 -84 13 -17 13
-22 -1 -37 -9 -10 -14 -28 -12 -41 3 -22 8 -23 91 -29 48 -3 90 -9 93 -12 11
-11 -75 -59 -115 -64 -54 -7 -84 2 -125 38 -35 30 -50 63 -60 132 -4 33 -2 39
19 47 44 17 45 78 0 98 -56 26 -105 -31 -71 -82 14 -23 14 -26 -14 -64 -31
-43 -66 -72 -89 -72 -11 0 -12 16 -6 93 3 50 11 96 16 102 14 14 11 61 -6 75
-9 7 -15 29 -15 52 0 157 -95 393 -259 641 -66 101 -101 159 -101 172 0 13
172 3 250 -14 47 -11 170 -47 273 -80 104 -34 194 -61 201 -61 7 0 23 -11 36
-25 40 -43 150 -58 150 -21 0 9 19 15 59 19 68 7 148 32 173 54 9 8 22 44 29
79 15 77 12 77 128 8 558 -332 959 -991 1136 -1869 35 -175 69 -427 81 -597
l7 -98 -80 0 c-102 0 -108 -7 -117 -120 -33 -412 -233 -872 -553 -1270 -85
-106 -322 -350 -428 -440 -362 -307 -775 -533 -1154 -631 l-113 -29 -82 19
c-792 188 -1643 906 -1990 1678 -96 214 -152 420 -179 657 -9 79 -18 121 -28
127 -8 5 -49 9 -91 9 l-78 0 0 28 c0 69 32 360 56 502 101 615 320 1160 622
1550 83 107 264 287 362 362 79 60 268 177 285 178 6 0 17 -30 25 -67z m2094
16 c45 -25 56 -36 54 -52 -4 -27 -78 -56 -163 -64 l-62 -6 -11 46 c-7 25 -12
57 -12 71 0 24 3 25 63 29 34 2 65 4 68 5 3 1 31 -12 63 -29z m-1851 -283 c51
-18 75 -42 86 -82 21 -75 -27 -144 -101 -144 -73 0 -96 21 -124 115 -23 75
-128 65 -224 -21 -39 -36 -64 -72 -106 -155 -61 -123 -156 -267 -247 -376
-189 -227 -257 -329 -329 -495 -39 -91 -40 -96 -49 -258 -10 -177 -32 -377
-43 -388 -14 -13 -24 24 -36 133 -17 148 -8 370 19 500 109 515 439 969 823
1131 124 53 252 68 331 40z m1902 3 c78 -14 215 -74 306 -134 94 -62 278 -246
351 -350 164 -236 273 -503 313 -770 28 -186 12 -555 -25 -555 -14 0 -30 120
-41 310 -5 102 -15 208 -20 236 -22 114 -173 375 -304 524 -134 153 -234 298
-314 457 -70 140 -135 198 -243 218 -31 6 -41 3 -62 -19 -15 -14 -26 -35 -26
-46 0 -58 -47 -99 -113 -100 -40 0 -53 5 -78 29 -24 25 -29 38 -29 80 0 38 6
56 23 75 44 51 142 67 262 45z m-2175 -181 c-61 -72 -150 -211 -150 -234 0 -7
6 -14 14 -17 9 -4 31 23 65 81 28 48 77 117 108 154 l57 67 13 -37 c7 -20 15
-39 16 -42 1 -3 -13 -29 -32 -58 -37 -58 -71 -157 -71 -206 0 -56 -83 -151
-159 -183 -94 -40 -170 58 -122 158 71 149 169 315 202 341 33 27 109 61 117
53 2 -2 -24 -36 -58 -77z m2286 42 c45 -28 72 -66 124 -170 24 -47 58 -110 78
-140 44 -69 51 -122 23 -168 -42 -67 -112 -64 -194 8 -59 52 -87 98 -87 143 0
47 -39 152 -77 209 -27 41 -29 47 -17 69 7 13 14 33 14 44 1 16 7 13 36 -20
52 -59 132 -173 160 -227 17 -33 29 -46 39 -42 8 4 15 11 15 18 0 23 -89 162
-149 233 -34 40 -61 75 -61 77 0 9 62 -13 96 -34z m-1129 -199 c14 -37 17 -39
49 -34 41 7 42 -2 6 -53 -27 -37 -62 -113 -62 -134 0 -15 81 18 138 57 29 20
56 33 59 29 4 -4 2 -20 -4 -37 -11 -28 -10 -31 15 -39 70 -25 75 -46 17 -75
-38 -19 -40 -22 -31 -47 15 -43 0 -44 -56 -6 -57 39 -123 66 -134 55 -11 -11
18 -68 68 -134 l47 -63 -144 0 -145 0 46 63 c48 64 79 125 70 135 -11 10 -83
-18 -131 -53 -28 -19 -54 -35 -59 -35 -5 0 -6 16 -3 35 6 34 4 36 -34 52 -49
19 -48 41 3 66 34 17 36 21 31 52 -7 42 0 43 44 9 38 -28 143 -78 150 -70 9 8
-26 87 -56 131 -49 70 -49 69 -3 63 37 -5 41 -4 47 21 16 62 50 68 72 12z
m-1467 -257 c0 -9 7 -28 16 -44 16 -26 16 -30 -20 -101 -33 -66 -35 -74 -19
-83 10 -5 18 -5 20 0 2 5 18 36 36 69 22 39 38 59 47 56 8 -3 34 -4 57 -4 47
0 126 44 168 95 14 17 27 29 29 27 1 -2 12 -32 24 -65 l22 -62 -30 -72 c-17
-39 -30 -79 -28 -88 7 -37 31 -14 55 51 14 37 28 67 32 65 3 -2 30 -29 59 -60
46 -49 53 -61 48 -85 -10 -44 -42 -91 -78 -113 -40 -24 -114 -26 -146 -5 -34
25 -72 98 -79 153 -8 70 -32 75 -62 14 -47 -97 -132 -172 -194 -172 -85 0
-136 66 -137 175 0 58 2 62 50 118 27 32 64 78 81 103 34 46 49 55 49 28z
m2561 -7 c10 -13 43 -41 73 -62 54 -37 106 -48 156 -34 10 3 26 -18 50 -63 37
-72 38 -72 58 -59 11 6 6 23 -22 79 l-36 71 22 47 21 48 21 -30 c11 -16 49
-63 84 -104 l62 -75 0 -65 c0 -44 -6 -77 -18 -100 -21 -39 -72 -70 -116 -70
-64 0 -153 80 -201 181 -25 52 -51 43 -58 -21 -12 -104 -69 -170 -145 -170
-74 0 -137 54 -156 134 -6 24 0 35 46 85 29 31 56 57 59 59 7 3 49 -94 49
-114 0 -18 17 -27 34 -17 13 7 10 22 -19 93 l-34 84 22 63 c12 35 24 63 26 63
2 0 11 -11 22 -23z m-2069 -8 l29 -21 23 21 c12 11 25 21 29 21 4 0 7 -30 7
-67 0 -69 15 -143 28 -143 12 0 65 87 82 133 19 51 38 58 46 18 5 -23 11 -30
23 -27 54 16 68 16 81 1 11 -13 9 -21 -13 -52 l-26 -36 25 -20 c14 -11 22 -23
17 -27 -4 -4 -47 -10 -96 -12 -48 -2 -93 -10 -99 -16 -16 -16 11 -44 77 -78
l53 -28 -46 -21 -46 -21 -77 130 c-42 72 -95 161 -117 199 -23 37 -39 67 -36
67 3 0 19 -10 36 -21z m1834 0 l23 -21 29 21 c17 11 33 21 36 21 3 0 -14 -30
-37 -67 -24 -38 -76 -124 -116 -193 -40 -69 -75 -127 -76 -129 -2 -2 -25 5
-50 15 l-47 18 43 22 c24 12 57 36 73 52 l28 30 -38 11 c-22 6 -69 11 -106 11
-72 0 -82 8 -44 37 l23 18 -24 36 c-32 48 -23 73 24 64 19 -3 40 -8 47 -11 9
-3 16 6 20 26 8 43 27 34 48 -23 19 -51 66 -127 79 -127 11 0 29 94 29 155 0
30 3 55 7 55 4 0 17 -10 29 -21z m-1311 -39 c0 -30 -35 -40 -55 -15 -10 12
-10 18 0 30 20 25 55 15 55 -15z m890 0 c0 -18 -6 -26 -23 -28 -24 -4 -38 18
-28 44 3 9 15 14 28 12 17 -2 23 -10 23 -28z m-564 -59 c-46 -72 -104 -121
-142 -121 -31 0 -31 0 -24 43 9 54 10 55 40 55 14 0 39 11 57 24 39 29 91 58
97 52 2 -2 -11 -26 -28 -53z m346 22 c-3 -10 -5 -4 -5 12 0 17 2 24 5 18 2 -7
2 -21 0 -30z m-144 16 c12 -6 31 -20 42 -30 36 -32 72 -41 91 -21 17 16 17 15
11 -17 -4 -18 -7 -46 -7 -62 0 -23 -5 -29 -20 -29 -27 0 -109 77 -138 129 -24
42 -18 50 21 30z m359 -196 c11 -14 11 -15 -2 -10 -8 3 -41 11 -72 18 -32 7
-58 16 -58 20 0 4 11 14 24 23 14 8 33 29 43 46 l18 31 17 -56 c9 -31 22 -63
30 -72z m-847 71 c26 -25 45 -47 43 -48 -2 -1 -33 -9 -69 -17 l-65 -15 18 37
c10 21 18 50 18 64 0 14 2 25 5 25 2 0 25 -21 50 -46z m-1310 -156 c-49 -170
-50 -178 -27 -178 16 0 23 15 43 90 12 50 25 90 28 90 3 -1 15 -15 26 -32 61
-95 172 -103 268 -18 20 18 37 30 37 28 0 -3 -9 -31 -20 -64 -18 -51 -60 -204
-60 -217 0 -3 9 -7 20 -10 16 -4 21 1 26 32 7 38 65 235 84 286 l11 29 18 -39
c10 -22 35 -56 55 -75 36 -34 40 -35 112 -35 l74 0 -6 -62 c-6 -58 -5 -63 13
-63 17 0 21 9 27 53 3 28 6 65 6 81 0 17 12 42 30 63 17 19 33 48 37 64 3 16
8 28 12 27 3 -2 23 -14 43 -28 42 -29 62 -63 59 -102 -2 -21 4 -31 22 -39 21
-9 24 -18 23 -53 -2 -55 -11 -66 -52 -66 -32 0 -34 2 -32 32 2 23 -2 33 -13
36 -12 2 -18 -7 -23 -32 -6 -33 -10 -36 -41 -36 l-35 0 0 -84 c0 -82 -1 -85
-29 -105 -80 -57 -137 1 -149 152 -6 65 -10 82 -24 85 -11 2 -18 -7 -23 -30
-18 -81 -103 -201 -166 -234 -37 -19 -66 -17 -117 6 -54 24 -81 79 -82 162 0
74 -23 82 -61 22 -34 -53 -97 -86 -142 -73 -42 12 -95 66 -112 115 -12 36 -11
42 15 94 26 52 147 240 154 240 2 0 -11 -51 -29 -112z m2046 74 c179 -42 389
-128 389 -158 0 -21 -22 -16 -125 29 -194 86 -358 117 -625 117 -266 0 -380
-22 -618 -117 -104 -42 -144 -47 -124 -17 15 23 216 102 343 134 135 35 184
39 434 35 199 -2 255 -6 326 -23z m1377 -64 c86 -134 111 -187 102 -220 -21
-72 -80 -128 -139 -130 -40 -1 -102 40 -125 84 -14 26 -24 34 -38 30 -15 -3
-18 -14 -18 -61 -1 -82 -28 -137 -82 -161 -51 -23 -80 -25 -117 -6 -63 33
-148 153 -166 234 -5 23 -12 32 -23 30 -14 -3 -18 -20 -24 -83 -7 -90 -18
-125 -48 -155 -26 -26 -64 -26 -101 1 -28 20 -29 23 -29 105 l0 84 -34 0 c-31
0 -34 3 -40 36 -5 26 -12 34 -24 32 -12 -3 -16 -12 -14 -36 2 -30 0 -32 -30
-32 -46 0 -64 21 -60 69 3 29 10 42 23 46 19 6 36 46 26 62 -9 15 17 51 60 82
24 17 45 31 47 31 2 0 7 -14 11 -31 4 -17 19 -45 35 -62 23 -27 29 -44 35
-114 6 -75 9 -83 27 -83 20 0 20 4 15 65 l-6 65 44 -7 c24 -3 59 -3 77 1 42 8
95 57 118 109 10 22 20 35 23 30 10 -16 75 -229 87 -284 11 -48 15 -56 32 -51
15 4 18 10 13 36 -6 30 -59 207 -72 243 -4 12 7 6 32 -16 98 -86 209 -79 270
17 11 17 23 31 26 32 4 0 17 -40 29 -90 18 -74 26 -90 41 -90 11 0 19 4 19 8
0 5 -16 66 -35 136 -19 71 -35 130 -35 132 0 13 14 -6 68 -88z m-1790 6 c-27
-13 -48 -28 -48 -33 0 -4 19 -17 42 -27 l43 -19 -105 -11 c-58 -6 -125 -15
-150 -19 -40 -7 -43 -6 -32 8 20 24 11 70 -16 83 -21 10 -14 13 60 23 119 16
137 18 198 19 l55 1 -47 -25z m325 4 c49 -8 64 -14 53 -20 -27 -15 -37 -44
-26 -73 10 -26 9 -27 -14 -21 -26 6 -192 25 -236 26 -22 1 -19 4 18 23 23 11
42 24 42 29 0 4 -21 19 -47 33 l-48 26 95 -6 c52 -3 126 -11 163 -17z m-710
-74 c-5 -31 -2 -40 18 -55 16 -13 19 -19 9 -19 -8 0 -63 -20 -122 -44 -60 -23
-108 -41 -108 -39 0 2 11 21 25 41 14 20 25 40 25 44 0 3 -26 5 -57 2 l-58 -4
65 31 c57 28 182 76 202 78 4 1 4 -15 1 -35z m112 20 c15 -16 15 -18 -2 -34
-26 -25 -56 -32 -77 -17 -21 15 -13 40 17 55 31 15 43 14 62 -4z m723 0 c50
-35 7 -77 -50 -48 -32 16 -36 38 -10 53 24 14 34 13 60 -5z m185 -34 c136 -55
145 -62 75 -57 -32 2 -58 -1 -58 -6 0 -5 8 -21 18 -35 10 -15 22 -32 25 -38 4
-7 -41 8 -101 32 -59 24 -116 44 -127 45 -19 0 -18 1 3 11 28 14 39 54 23 81
-12 18 -11 19 16 13 15 -4 72 -25 126 -46z m-283 -59 c153 -35 354 -113 347
-135 -6 -16 -23 -12 -112 28 -175 77 -382 113 -600 103 -185 -9 -338 -45 -502
-118 -40 -18 -65 -24 -69 -18 -9 15 1 22 96 62 100 42 213 75 325 93 115 19
403 11 515 -15z m35 -64 c50 -14 101 -30 115 -36 17 -7 -119 -10 -445 -10
l-470 0 55 21 c133 48 211 58 440 54 194 -3 224 -6 305 -29z m-2144 -131 l36
-41 -17 -50 c-9 -27 -20 -66 -24 -86 -5 -31 -3 -37 13 -42 16 -4 20 2 26 32 3
20 13 58 22 84 14 44 18 48 40 44 38 -7 89 11 127 44 l34 29 7 -37 c12 -66 45
-111 110 -148 16 -10 16 -15 1 -87 -20 -98 -20 -108 3 -108 14 0 20 10 25 40
18 111 27 140 47 140 57 0 139 61 191 142 25 38 34 46 36 32 8 -48 27 -88 54
-120 27 -31 30 -40 26 -84 -6 -56 1 -73 25 -64 13 5 17 19 17 60 0 45 3 54 18
54 9 0 30 7 46 15 l28 15 -4 -62 c-5 -76 -48 -178 -90 -213 -33 -28 -74 -32
-104 -10 -30 20 -61 99 -70 173 -5 50 -10 62 -24 62 -13 0 -19 -11 -24 -43
-14 -93 -85 -209 -143 -234 -32 -13 -38 -12 -78 7 -55 27 -91 95 -107 199 -8
57 -14 71 -28 71 -11 0 -20 -10 -23 -27 -14 -72 -127 -173 -192 -173 -67 0
-94 67 -95 236 0 137 22 246 44 210 6 -11 27 -38 47 -60z m3717 -120 c4 -148
-3 -195 -39 -240 -28 -35 -72 -34 -132 4 -51 32 -105 100 -114 143 -3 17 -12
27 -22 27 -14 0 -20 -16 -29 -76 -16 -104 -54 -171 -109 -196 -38 -17 -46 -17
-76 -4 -58 24 -129 141 -143 233 -5 32 -11 43 -24 43 -14 0 -19 -12 -24 -60
-14 -120 -54 -190 -110 -190 -47 0 -80 30 -118 107 -23 47 -33 84 -36 130 l-4
63 28 -15 c16 -8 37 -15 47 -15 13 0 17 -8 17 -34 0 -46 17 -89 33 -83 8 3 11
22 9 63 -3 55 -1 61 27 88 18 17 35 48 42 77 7 27 15 49 18 49 3 -1 22 -24 41
-52 44 -65 110 -116 160 -124 35 -6 39 -10 48 -48 6 -22 14 -62 17 -88 6 -38
11 -48 26 -48 24 0 24 19 3 113 -16 67 -16 72 1 82 65 38 98 82 110 148 l7 37
34 -29 c38 -33 89 -51 127 -44 22 4 26 0 40 -44 9 -26 19 -64 22 -84 6 -30 10
-36 27 -31 17 4 19 10 13 41 -4 20 -15 59 -24 88 l-18 52 30 28 c16 15 36 41
44 57 l15 30 17 -30 c12 -21 17 -65 19 -168z m-2562 155 c21 -16 22 -19 6 -23
-9 -3 -50 -3 -91 -1 -54 2 -79 -1 -90 -11 -14 -13 -16 -61 -15 -410 0 -218 -4
-396 -8 -396 -4 0 -8 8 -8 18 0 10 -7 27 -15 38 -12 16 -14 82 -15 412 l0 392
106 0 c89 0 110 -3 130 -19z m1245 -1 c29 -13 37 -20 24 -21 -76 -4 -1235 -3
-1235 1 0 3 17 12 38 22 33 14 98 16 583 17 525 1 549 0 590 -19z m319 -366
c0 -371 -1 -387 -20 -411 -11 -14 -20 -37 -20 -51 0 -14 -3 -22 -7 -19 -3 4
-7 187 -7 407 -1 343 -3 402 -16 410 -8 5 -56 8 -107 7 -51 -2 -93 -1 -93 0 0
2 8 12 18 22 15 17 32 19 135 20 l117 1 0 -386z m-1692 304 c7 -7 12 -25 12
-42 l0 -29 -25 23 c-27 25 -34 60 -12 60 7 0 18 -5 25 -12z m107 -10 c10 -15
11 -24 5 -26 -12 -4 -50 26 -50 40 0 17 29 7 45 -14z m67 5 c21 -18 23 -33 6
-33 -14 0 -48 30 -48 42 0 13 22 9 42 -9z m70 0 c21 -18 23 -33 6 -33 -14 0
-48 30 -48 42 0 13 22 9 42 -9z m73 -3 c10 -11 15 -23 12 -26 -10 -10 -35 3
-47 25 -15 28 10 29 35 1z m70 0 c10 -11 15 -23 12 -26 -10 -10 -35 3 -47 25
-15 28 10 29 35 1z m70 0 c10 -11 15 -23 12 -26 -10 -10 -35 3 -47 25 -15 28
10 29 35 1z m70 0 c10 -11 15 -23 12 -26 -10 -10 -35 3 -47 25 -15 28 10 29
35 1z m70 0 c10 -11 15 -23 12 -26 -10 -10 -35 3 -47 25 -15 28 10 29 35 1z
m70 0 c10 -11 15 -23 12 -26 -10 -10 -35 3 -47 25 -15 28 10 29 35 1z m70 0
c10 -11 15 -23 12 -26 -10 -10 -35 3 -47 25 -15 28 10 29 35 1z m70 0 c10 -11
15 -23 12 -26 -10 -10 -35 3 -47 25 -15 28 10 29 35 1z m67 3 c21 -18 23 -33
6 -33 -14 0 -48 30 -48 42 0 13 22 9 42 -9z m70 0 c21 -18 23 -33 6 -33 -14 0
-48 30 -48 42 0 13 22 9 42 -9z m73 -5 c10 -15 11 -24 5 -26 -12 -4 -50 26
-50 40 0 17 29 7 45 -14z m70 0 c10 -15 11 -24 5 -26 -12 -4 -50 26 -50 40 0
17 29 7 45 -14z m70 0 c10 -15 11 -24 5 -26 -12 -4 -50 26 -50 40 0 17 29 7
45 -14z m70 0 c10 -15 11 -24 5 -26 -12 -4 -50 26 -50 40 0 17 29 7 45 -14z
m70 0 c10 -15 11 -24 5 -26 -12 -4 -50 26 -50 40 0 17 29 7 45 -14z m70 0 c10
-15 11 -24 5 -26 -12 -4 -50 26 -50 40 0 17 29 7 45 -14z m70 0 c14 -21 14
-23 0 -26 -15 -3 -44 23 -45 41 0 16 30 6 45 -15z m70 0 c14 -21 14 -23 -2
-27 -16 -3 -43 23 -43 41 0 17 29 7 45 -14z m105 5 c0 -18 -28 -53 -42 -53 -9
0 -11 31 -2 54 8 21 44 21 44 -1z m-1562 -28 c-3 -3 -9 2 -12 12 -6 14 -5 15
5 6 7 -7 10 -15 7 -18z m1479 -39 c7 -7 7 -1468 0 -1536 -9 -83 -62 -265 -84
-288 -7 -7 -13 -18 -13 -23 0 -31 -169 -218 -222 -245 -15 -8 -28 -19 -28 -24
0 -6 -4 -10 -10 -10 -9 0 -72 -39 -97 -60 -7 -5 -19 -10 -26 -10 -8 0 -20 -7
-27 -15 -7 -8 -20 -15 -30 -15 -10 0 -23 -7 -30 -15 -7 -8 -20 -15 -29 -15 -9
0 -25 -6 -36 -13 -11 -7 -43 -23 -72 -34 l-52 -21 -43 24 c-42 24 -68 37 -98
48 -8 3 -22 10 -30 15 -8 5 -22 12 -30 15 -8 4 -28 15 -45 26 -16 11 -41 25
-55 30 -13 6 -27 14 -30 18 -3 4 -25 21 -50 37 -24 17 -52 37 -60 45 -9 8 -40
36 -68 62 -29 26 -52 50 -52 54 0 5 -17 28 -60 81 -6 7 -10 14 -10 17 0 3 -11
29 -24 58 -37 81 -44 106 -62 202 -14 77 -16 189 -15 835 0 410 0 749 1 753 0
3 8 8 17 10 30 6 1464 0 1470 -6z m-1520 -32 c9 -24 -5 -29 -27 -9 -28 25 -27
50 1 35 11 -6 23 -18 26 -26z m1587 -5 c-20 -23 -34 -25 -34 -5 0 19 44 50 48
36 2 -6 -4 -20 -14 -31z m-1602 -46 c18 -16 25 -43 11 -43 -12 0 -43 33 -43
47 0 17 10 17 32 -4z m1614 -10 c-3 -10 -15 -24 -26 -31 -17 -11 -20 -10 -20
7 0 11 10 27 22 35 25 18 32 15 24 -11z m-1599 -78 c10 -28 -2 -36 -25 -15
-29 28 -31 55 -1 40 11 -6 23 -18 26 -25z m1582 -18 c-23 -18 -24 -19 -28 -1
-2 10 7 26 20 37 23 18 24 19 28 1 2 -10 -7 -26 -20 -37z m-1579 -69 c0 -19
-2 -19 -22 -6 -13 9 -24 25 -26 37 -4 22 -3 22 22 6 14 -10 26 -26 26 -37z
m1579 -1 c-23 -18 -24 -18 -28 -2 -2 11 7 26 20 36 22 17 24 17 28 2 2 -10 -7
-26 -20 -36z m-2438 -99 c-24 -301 -25 -337 -7 -344 9 -4 18 -5 20 -3 2 2 9
87 16 189 10 160 26 289 29 239 1 -9 14 -34 29 -55 l29 -40 -10 -174 c-17
-298 16 -523 125 -850 40 -121 42 -130 46 -281 5 -187 -7 -243 -65 -309 l-38
-42 0 174 c0 190 -1 193 -75 378 -80 199 -125 345 -157 515 -20 108 -28 442
-14 575 11 97 14 107 43 137 17 18 34 31 36 28 2 -2 -1 -64 -7 -137z m3340
-18 c15 -130 6 -481 -15 -595 -26 -141 -63 -265 -138 -459 -90 -232 -101 -284
-96 -459 l4 -137 -24 22 c-13 13 -36 46 -50 73 -26 49 -27 54 -27 230 l1 180
37 110 c111 323 147 567 130 865 -9 160 -8 177 7 195 10 11 24 33 32 49 l15
29 6 -24 c3 -13 11 -111 18 -216 11 -176 14 -193 31 -193 23 0 23 27 3 275
-20 244 -22 226 20 184 33 -33 36 -41 46 -129z m-3598 -20 c-9 -110 -8 -388 1
-425 9 -34 49 -36 42 -2 -12 58 -15 245 -6 361 5 71 11 130 12 131 2 1 26 5
54 9 l50 6 -7 -57 c-4 -32 -8 -139 -8 -238 -1 -319 37 -511 170 -848 77 -195
89 -245 89 -392 0 -128 -15 -212 -46 -266 -21 -35 -52 -55 -41 -25 4 9 9 44
13 79 12 122 -30 269 -171 597 -150 348 -210 544 -234 772 -17 152 -15 208 9
234 16 16 24 45 33 113 11 91 11 92 29 69 16 -20 17 -35 11 -118z m963 -217
c-3 -7 -15 -13 -26 -13 -19 0 -20 6 -20 146 0 132 2 148 23 184 l22 39 3 -172
c1 -94 0 -177 -2 -184z m1905 140 c0 -80 -3 -149 -6 -154 -4 -5 -14 -5 -26 1
-18 10 -19 23 -19 192 l0 181 26 -38 c25 -37 26 -43 25 -182z m989 15 c16 -13
20 -29 20 -85 0 -241 -67 -513 -205 -833 -174 -402 -206 -500 -208 -635 -1
-49 1 -102 6 -117 6 -23 4 -26 -8 -22 -44 17 -75 142 -75 299 0 140 12 196 85
380 74 187 116 323 147 478 20 99 23 142 23 367 0 140 -3 269 -7 287 -7 31 -7
32 18 23 14 -6 38 -10 54 -10 27 0 29 -3 35 -55 9 -65 12 -304 6 -395 -4 -59
-3 -65 15 -65 17 0 20 11 28 105 6 68 5 162 -3 268 -10 149 -10 165 6 189 l17
26 13 -94 c10 -70 19 -98 33 -111z m-3208 21 c-5 -164 -4 -171 14 -167 17 3
20 16 25 138 4 74 7 144 8 155 1 17 4 15 20 -10 16 -26 19 -60 25 -275 3 -135
11 -288 17 -340 12 -107 0 -269 -31 -430 -31 -158 -34 -159 -53 -7 -9 74 -29
197 -44 273 -27 135 -28 148 -27 449 1 302 2 311 24 348 12 20 23 37 25 37 1
0 0 -77 -3 -171z m2508 134 c22 -36 23 -51 27 -328 5 -282 5 -293 -20 -415
-24 -116 -47 -263 -63 -405 l-7 -60 -13 36 c-38 112 -69 421 -54 540 6 46 13
197 17 334 5 196 9 255 21 273 8 12 17 20 21 17 3 -4 8 -70 11 -148 5 -129 7
-142 24 -145 18 -4 18 4 14 167 -2 94 -3 171 -2 171 1 0 12 -17 24 -37z
m-2040 -25 c0 -19 -2 -19 -22 -6 -13 9 -24 25 -26 37 -4 22 -3 22 22 6 14 -10
26 -26 26 -37z m1600 30 c0 -14 -30 -48 -42 -48 -13 0 -9 22 9 42 18 21 33 23
33 6z m-1618 -75 c18 -16 25 -43 11 -43 -12 0 -43 33 -43 47 0 17 10 17 32 -4z
m1618 5 c0 -14 -30 -48 -42 -48 -13 0 -9 22 9 42 18 21 33 23 33 6z m-1841
-170 c1 -188 -12 -276 -50 -349 l-23 -44 -8 45 c-4 25 -9 148 -10 274 -2 176
0 230 10 233 9 4 12 -18 12 -87 0 -82 2 -91 18 -88 14 3 17 16 20 83 3 87 6
105 21 105 6 0 10 -69 10 -172z m2061 76 c4 -74 8 -89 23 -92 15 -3 17 6 17
87 0 78 2 91 17 91 15 0 16 -20 9 -242 -4 -134 -10 -259 -15 -278 l-8 -35 -26
55 c-37 78 -48 169 -45 352 3 174 20 211 28 62z m-2378 -187 c-4 -251 -3 -281
17 -373 29 -133 59 -339 67 -450 8 -103 -5 -196 -39 -282 l-22 -57 -6 150 c-6
143 -8 156 -52 285 -25 74 -62 209 -83 300 l-38 165 1 247 c1 136 4 251 7 256
3 5 17 7 31 4 l26 -4 -7 -155 c-7 -149 -6 -155 12 -151 17 3 20 16 25 103 4
55 7 123 8 150 1 43 5 52 29 67 15 9 27 17 28 17 0 1 -2 -122 -4 -272z m2719
193 c1 -25 4 -92 8 -150 5 -92 8 -105 25 -108 18 -4 19 2 12 152 -5 132 -4
156 8 156 8 0 21 3 29 6 12 4 16 -24 22 -183 4 -117 3 -227 -4 -291 -13 -124
-66 -350 -123 -522 -37 -114 -41 -138 -47 -265 l-7 -140 -18 39 c-24 53 -46
159 -46 223 0 76 35 337 66 488 25 125 26 140 22 401 l-3 270 27 -15 c24 -14
28 -23 29 -61z m-2179 13 c18 -16 25 -43 11 -43 -12 0 -43 33 -43 47 0 17 10
17 32 -4z m1602 -24 c-20 -23 -34 -25 -34 -5 0 19 44 50 48 36 2 -6 -4 -20
-14 -31z m-1587 -65 c9 -24 -5 -29 -27 -9 -28 25 -27 50 1 35 11 -6 23 -18 26
-26z m1579 -12 c-25 -26 -26 -26 -26 -5 0 12 10 29 22 38 33 23 36 -1 4 -33z
m-1579 -57 c10 -28 -2 -36 -25 -15 -29 28 -31 55 -1 40 11 -6 23 -18 26 -25z
m1582 -18 c-23 -18 -24 -19 -28 -1 -2 10 7 26 20 37 23 18 24 19 28 1 2 -10
-7 -26 -20 -37z m-1579 -69 c0 -19 -2 -19 -22 -6 -13 9 -24 25 -26 37 -4 22
-3 22 22 6 14 -10 26 -26 26 -37z m1579 -1 c-23 -18 -24 -18 -28 -2 -2 11 7
26 20 36 22 17 24 17 28 2 2 -10 -7 -26 -20 -36z m-1596 -42 c10 -7 17 -21 15
-30 -3 -14 -5 -14 -25 0 -13 9 -23 23 -23 31 0 17 10 17 33 -1z m1617 3 c0
-14 -30 -48 -42 -48 -13 0 -9 22 9 42 18 21 33 23 33 6z m-1673 -40 c-3 -7 -5
-2 -5 12 0 14 2 19 5 13 2 -7 2 -19 0 -25z m1726 -75 c3 -5 0 -29 -8 -54 -7
-24 -14 -39 -15 -34 -3 16 -3 108 0 135 2 23 3 23 9 -6 4 -17 11 -35 14 -41z
m-1671 40 c18 -16 25 -43 11 -43 -12 0 -43 33 -43 47 0 17 10 17 32 -4z m1618
5 c0 -14 -30 -48 -42 -48 -13 0 -9 22 9 42 18 21 33 23 33 6z m-1673 -68 c0
-33 -3 -60 -6 -60 -14 0 -26 66 -17 97 14 47 24 31 23 -37z m71 -41 l4 -24
-26 24 c-14 14 -26 31 -26 39 0 25 44 -11 48 -39z m1581 0 c-22 -17 -24 -17
-28 -2 -2 10 7 26 20 36 23 18 24 18 28 2 2 -11 -7 -26 -20 -36z m-1582 -54
c10 -28 -2 -36 -25 -15 -29 28 -31 55 -1 40 11 -6 23 -18 26 -25z m1582 -18
c-23 -18 -24 -18 -28 -2 -2 11 7 26 20 36 22 17 24 17 28 2 2 -10 -7 -26 -20
-36z m-3176 -9 c-20 -129 -28 -153 -48 -153 -18 0 -20 8 -23 98 l-3 97 41 0
40 0 -7 -42z m80 35 c3 -5 10 -57 16 -118 60 -564 393 -1162 907 -1626 400
-360 845 -612 1268 -714 l100 -25 90 21 c513 120 1105 492 1513 951 397 447
623 913 674 1396 9 79 17 116 26 119 24 9 33 -10 50 -103 9 -49 22 -96 30
-105 11 -13 45 -18 165 -23 84 -4 154 -9 155 -10 2 -2 -6 -51 -17 -109 -85
-442 -304 -880 -652 -1309 -106 -131 -392 -420 -523 -529 -445 -372 -939 -641
-1389 -755 -119 -31 -143 -29 -313 20 -736 213 -1516 792 -2010 1491 -238 337
-415 732 -478 1065 -9 47 -18 94 -20 106 -4 20 1 21 93 27 53 4 122 7 153 7
73 0 84 13 103 123 8 48 18 92 21 97 7 12 32 13 38 3z m4735 -90 c-3 -90 -5
-98 -23 -98 -19 0 -24 15 -49 158 l-7 37 41 0 41 0 -3 -97z m-3291 55 c-3 -7
-5 -2 -5 12 0 14 2 19 5 13 2 -7 2 -19 0 -25z m73 -60 c0 -19 -2 -19 -22 -6
-13 9 -24 25 -26 37 -4 22 -3 22 22 6 14 -10 26 -26 26 -37z m1579 -1 c-23
-18 -24 -18 -28 -2 -2 11 7 26 20 36 22 17 24 17 28 2 2 -10 -7 -26 -20 -36z
m72 -37 c0 -8 -4 -31 -9 -50 -11 -39 -14 -27 -14 55 0 71 3 83 14 45 5 -19 9
-42 9 -50z m-1726 3 c-3 -74 -4 -75 -18 -33 -9 24 -9 45 -2 67 14 46 23 31 20
-34z m58 -8 c10 -7 17 -21 15 -30 -3 -14 -5 -14 -25 0 -13 9 -23 23 -23 31 0
17 10 17 33 -1z m1617 3 c0 -14 -30 -48 -42 -48 -13 0 -9 22 9 42 18 21 33 23
33 6z m-1618 -75 c18 -16 25 -43 11 -43 -12 0 -43 33 -43 47 0 17 10 17 32 -4z
m1618 5 c0 -14 -30 -48 -42 -48 -13 0 -9 22 9 42 18 21 33 23 33 6z m-1673
-40 c-3 -7 -5 -2 -5 12 0 14 2 19 5 13 2 -7 2 -19 0 -25z m1700 0 c-3 -8 -6
-5 -6 6 -1 11 2 17 5 13 3 -3 4 -12 1 -19z m-1630 -54 c9 -24 -5 -29 -27 -9
-28 25 -27 50 1 35 11 -6 23 -18 26 -26z m1599 9 c-3 -10 -15 -24 -26 -31 -17
-11 -20 -10 -20 7 0 11 10 27 22 35 25 18 32 15 24 -11z m68 -62 c19 -21 20
-71 6 -222 -31 -322 -169 -550 -444 -731 -123 -81 -193 -114 -233 -110 -36 4
-43 16 -15 26 9 3 26 11 37 17 27 16 44 26 80 44 43 22 52 28 175 112 14 9 66
58 116 109 76 77 98 107 136 185 25 52 51 114 58 139 7 25 16 56 20 70 17 52
23 110 25 265 4 185 4 191 15 147 4 -18 15 -41 24 -51z m-1736 -100 c1 -88 7
-182 13 -208 6 -26 13 -63 16 -81 3 -18 9 -35 14 -38 5 -3 9 -14 9 -25 0 -10
4 -27 9 -37 4 -9 17 -35 27 -57 37 -77 77 -134 154 -214 93 -98 179 -160 315
-231 96 -51 105 -56 98 -63 -17 -18 -81 -5 -142 30 -290 160 -461 363 -532
628 -27 102 -33 367 -9 427 8 20 17 35 20 33 3 -2 7 -76 8 -164z m70 68 l4
-24 -26 24 c-14 14 -26 31 -26 39 0 25 44 -11 48 -39z m1581 0 c-22 -17 -24
-17 -28 -2 -2 10 7 26 20 36 23 18 24 18 28 2 2 -11 -7 -26 -20 -36z m-1582
-54 c11 -30 -3 -39 -25 -17 -29 29 -30 57 -1 42 11 -6 23 -18 26 -25z m1582
-18 c-23 -18 -24 -18 -28 -2 -2 11 7 26 20 36 22 17 24 17 28 2 2 -10 -7 -26
-20 -36z m-1581 -56 c28 -34 4 -43 -28 -11 -11 11 -20 27 -20 36 0 14 3 14 18
3 9 -7 23 -20 30 -28z m1602 15 c0 -19 -44 -50 -48 -36 -4 12 26 50 40 50 4 0
8 -6 8 -14z m-1590 -97 c0 -15 -15 -10 -38 11 -33 31 -27 45 8 20 17 -12 30
-26 30 -31z m1584 26 c-8 -19 -43 -39 -52 -30 -7 7 34 45 49 45 5 0 6 -7 3
-15z m-1574 -85 c0 -14 -12 -12 -38 6 -33 23 -27 37 8 19 17 -9 30 -20 30 -25z
m1551 9 c-35 -28 -51 -22 -17 7 15 14 31 22 35 19 3 -4 -5 -15 -18 -26z
m-1541 -69 c0 -14 -12 -12 -38 6 -33 23 -27 37 8 19 17 -9 30 -20 30 -25z
m1544 10 c-16 -14 -54 -22 -54 -11 0 15 54 42 59 29 2 -5 -1 -13 -5 -18z
m-1526 -69 c7 -22 -39 -8 -56 17 l-15 23 33 -13 c19 -8 36 -20 38 -27z m1522
25 c0 -12 -34 -36 -51 -36 -26 0 -24 19 4 30 24 10 47 12 47 6z m-1499 -82 c9
-11 7 -14 -13 -14 -23 0 -48 16 -48 31 0 11 49 -2 61 -17z m1479 22 c0 -12
-34 -36 -52 -36 -27 0 -18 23 13 31 31 9 39 10 39 5z m-1452 -84 c2 -6 -4 -12
-13 -12 -21 0 -55 18 -55 29 0 13 63 -3 68 -17z m1408 2 c-23 -16 -56 -19 -56
-4 0 10 61 30 70 23 3 -3 -4 -11 -14 -19z m-1371 -55 c5 -5 -3 -9 -22 -9 -17
0 -37 7 -44 16 -12 15 -10 16 21 9 19 -4 39 -11 45 -16z m1355 11 c0 -14 -24
-22 -52 -18 l-23 5 25 11 c32 14 50 15 50 2z m-1322 -67 c2 -8 -5 -13 -16 -13
-28 0 -52 10 -52 22 0 14 63 5 68 -9z m1278 2 c-32 -24 -84 -17 -59 8 3 4 22
7 42 7 34 -1 35 -2 17 -15z m-1241 -44 c9 -15 -32 -23 -55 -11 -11 6 -20 13
-20 15 0 9 69 5 75 -4z m1203 -7 c-11 -11 -25 -15 -43 -10 -36 9 -22 26 23 26
34 0 35 -1 20 -16z m-1154 -43 c10 -15 -43 -19 -61 -5 -16 12 -14 13 19 14 20
0 39 -4 42 -9z m1116 0 c0 -5 -6 -11 -13 -14 -19 -7 -68 4 -61 14 7 12 74 12
74 0z m-1070 -40 c0 -5 -11 -12 -25 -15 -31 -8 -54 2 -34 15 18 11 59 11 59 0z
m1009 0 c20 -13 -3 -23 -33 -15 -14 3 -23 10 -20 15 7 11 35 11 53 0z m-959
-41 c0 -13 -46 -24 -60 -15 -9 6 -9 10 1 16 19 12 59 11 59 -1z m919 1 c21
-13 -4 -24 -39 -16 -17 4 -30 11 -30 16 0 11 50 12 69 0z m-873 -46 c-22 -17
-52 -20 -60 -6 -8 12 11 19 49 20 29 0 29 0 11 -14z m813 6 c10 -6 10 -10 1
-16 -14 -9 -60 2 -60 15 0 12 40 13 59 1z m-1467 -46 c-8 -15 -10 -13 -14 14
-4 28 -3 30 10 18 10 -11 11 -20 4 -32z m2070 14 c-4 -26 -6 -29 -14 -15 -6
11 -6 22 2 32 17 19 17 19 12 -17z m-2112 1 c0 -11 -2 -20 -4 -20 -2 0 -6 9
-9 20 -3 11 -1 20 4 20 5 0 9 -9 9 -20z m2153 0 c-3 -11 -7 -20 -9 -20 -2 0
-4 9 -4 20 0 11 4 20 9 20 5 0 7 -9 4 -20z m-2072 -31 c-9 -23 -10 -22 -10 11
-1 23 2 31 9 24 7 -7 7 -19 1 -35z m683 32 c7 -11 -53 -33 -67 -24 -13 8 20
33 44 33 10 0 20 -4 23 -9z m681 -4 c11 -9 14 -16 7 -21 -13 -8 -62 10 -62 24
0 14 33 12 55 -3z m624 -24 c0 -25 -1 -26 -9 -8 -12 27 -12 35 0 35 6 0 10
-12 9 -27z m-1931 -8 c-2 -14 -7 -26 -13 -26 -5 0 -11 12 -13 26 -2 18 1 25
13 25 12 0 15 -7 13 -25z m1890 -2 c-4 -39 -28 -42 -28 -4 0 21 5 31 16 31 11
0 14 -8 12 -27z m-2083 7 c3 -5 2 -10 -4 -10 -5 0 -13 5 -16 10 -3 6 -2 10 4
10 5 0 13 -4 16 -10z m868 3 c12 -11 -14 -33 -39 -33 -30 0 -31 14 -1 28 27
13 32 14 40 5z m591 -24 c-7 -12 -31 -11 -56 2 -15 8 -17 13 -8 19 16 10 72
-9 64 -21z m816 27 c0 -2 -7 -7 -16 -10 -8 -3 -12 -2 -9 4 6 10 25 14 25 6z
m-2030 -49 c0 -29 -1 -30 -16 -15 -10 10 -14 23 -9 37 9 30 25 16 25 -22z
m1779 -13 c-12 -14 -14 -14 -21 6 -5 15 -4 28 4 37 11 13 13 12 22 -6 6 -14 5
-25 -5 -37z m-2052 30 c-3 -3 -12 -4 -19 -1 -8 3 -5 6 6 6 11 1 17 -2 13 -5z
m2330 0 c-3 -3 -12 -4 -19 -1 -8 3 -5 6 6 6 11 1 17 -2 13 -5z m-2005 -11 c6
-32 3 -63 -6 -60 -14 5 -21 67 -7 67 6 0 12 -3 13 -7z m636 -5 c-6 -17 -43
-28 -59 -17 -12 8 -12 10 1 19 21 14 63 13 58 -2z m452 2 c13 -9 13 -11 1 -19
-15 -10 -61 6 -61 21 0 11 42 10 60 -2z m590 -19 c0 -16 -6 -31 -15 -35 -16
-6 -20 18 -9 48 10 26 24 18 24 -13z m-2005 -1 c3 -5 -1 -10 -9 -10 -9 0 -16
5 -16 10 0 6 4 10 9 10 6 0 13 -4 16 -10z m385 -37 c0 -22 -2 -24 -15 -13 -8
7 -15 24 -15 37 0 22 2 24 15 13 8 -7 15 -24 15 -37z m1556 -11 c-15 -15 -16
-14 -16 9 0 14 6 31 13 38 10 10 13 8 15 -10 2 -12 -3 -29 -12 -37z m389 48
c3 -5 -1 -10 -10 -10 -9 0 -13 5 -10 10 3 6 8 10 10 10 2 0 7 -4 10 -10z
m-1309 -15 c-11 -8 -31 -15 -45 -15 -25 1 -25 1 -7 15 11 8 31 15 45 15 25 -1
25 -1 7 -15z m330 0 c19 -14 19 -14 -2 -15 -11 0 -29 7 -40 15 -19 14 -19 14
2 15 11 0 29 -7 40 -15z m-915 -36 c4 -18 6 -35 4 -37 -8 -8 -35 33 -35 55 0
36 23 23 31 -18z m1469 17 c0 -30 -33 -69 -38 -44 -4 20 15 68 28 68 5 0 10
-11 10 -24z m-617 -3 c26 -14 29 -18 13 -21 -22 -5 -68 17 -60 30 7 11 10 11
47 -9z m-1283 3 c0 -2 -7 -7 -16 -10 -8 -3 -12 -2 -9 4 6 10 25 14 25 6z
m1078 -8 c-3 -7 -20 -14 -39 -16 -32 -2 -33 -1 -15 13 24 18 59 20 54 3z
m1247 2 c3 -6 -1 -7 -9 -4 -18 7 -21 14 -7 14 6 0 13 -4 16 -10z m-1835 -19
c5 -11 10 -27 10 -36 0 -13 -4 -14 -20 -5 -12 6 -20 21 -20 35 0 30 15 33 30
6z m1350 0 c0 -11 -8 -27 -17 -37 -17 -17 -18 -17 -21 5 -4 22 13 51 29 51 5
0 9 -9 9 -19z m-609 -11 l24 -19 -26 -1 c-14 0 -34 9 -44 20 -18 19 -17 20 2
20 12 0 31 -9 44 -20z m-1226 -9 c-3 -6 -11 -11 -17 -11 -6 0 -6 6 2 15 14 17
26 13 15 -4z m552 -19 c7 -18 10 -32 6 -32 -18 1 -32 17 -39 44 -10 40 16 30
33 -12z m601 15 c12 -13 20 -26 17 -29 -12 -11 -44 4 -60 28 -14 22 -14 24 3
24 10 0 28 -10 40 -23z m616 -4 c-7 -26 -20 -42 -36 -43 -8 0 2 41 15 58 17
21 28 13 21 -15z m531 16 c11 -17 -1 -21 -15 -4 -8 9 -8 15 -2 15 6 0 14 -5
17 -11z m-1685 -35 c15 -38 13 -46 -9 -35 -23 13 -35 61 -14 61 7 0 18 -12 23
-26z m477 1 l28 -24 -24 -1 c-24 0 -61 25 -61 42 0 16 29 8 57 -17z m615 0
c-4 -22 -38 -53 -47 -43 -2 2 3 18 10 36 17 39 45 44 37 7z m-1682 -10 c-7 -9
-15 -13 -18 -10 -3 2 1 11 8 20 7 9 15 13 18 10 3 -2 -1 -11 -8 -20z m661 -13
c5 -14 7 -28 3 -31 -8 -8 -44 37 -44 55 0 22 30 4 41 -24z m945 -7 c-9 -14
-21 -25 -27 -25 -15 0 -1 42 19 58 23 18 28 -2 8 -33z m654 13 c0 -6 -7 -5
-15 2 -8 7 -15 17 -15 22 0 6 7 5 15 -2 8 -7 15 -17 15 -22z m-1554 14 c14 -9
37 -52 31 -58 -13 -14 -57 34 -57 61 0 7 14 6 26 -3z m298 -17 c15 -23 15 -25
0 -25 -19 0 -54 28 -54 42 0 18 39 6 54 -17z m286 18 c0 -14 -34 -43 -52 -43
-22 0 -23 8 -1 32 15 17 53 25 53 11z m263 -12 c-6 -23 -40 -57 -49 -48 -7 6
14 49 30 59 18 13 24 9 19 -11z m-759 -16 c20 -30 20 -35 2 -35 -14 0 -46 36
-46 52 0 17 29 6 44 -17z m66 0 c13 -14 20 -28 16 -32 -9 -10 -36 8 -54 35
-13 19 -13 22 0 22 8 0 25 -11 38 -25z m78 -3 c15 -23 15 -24 -8 -20 -12 1
-30 14 -38 26 -15 23 -15 24 8 20 12 -1 30 -14 38 -26z m412 7 c-12 -22 -33
-33 -50 -27 -17 5 19 48 41 48 17 0 18 -3 9 -21z m68 -1 c-18 -27 -45 -45 -54
-35 -10 9 35 57 54 57 13 0 13 -3 0 -22z m72 14 c0 -16 -32 -52 -46 -52 -18 0
-18 5 2 35 15 23 44 34 44 17z m-1470 -27 c-7 -9 -15 -13 -17 -11 -6 6 20 36
26 30 2 -2 -2 -10 -9 -19z m2211 -2 c13 -16 12 -17 -3 -4 -10 7 -18 15 -18 17
0 8 8 3 21 -13z m-1085 -2 c5 -5 20 -11 34 -13 23 -4 22 -5 -14 -21 -37 -16
-42 -16 -85 0 l-45 17 32 7 c18 4 36 9 39 13 9 9 28 7 39 -3z m-1096 -26 c-7
-9 -15 -13 -18 -10 -3 2 1 11 8 20 7 9 15 13 18 10 3 -2 -1 -11 -8 -20z m2160
-7 c0 -6 -7 -5 -15 2 -8 7 -15 17 -15 22 0 6 7 5 15 -2 8 -7 15 -17 15 -22z
m-1152 -18 l71 -30 65 29 c35 16 73 28 83 26 10 -2 39 -7 66 -10 l47 -6 0 -55
c0 -92 -63 -246 -134 -331 -18 -21 -52 -75 -77 -120 -24 -46 -48 -83 -54 -83
-5 0 -30 37 -54 83 -24 45 -58 99 -76 119 -45 53 -113 193 -126 260 -6 31 -8
73 -5 92 7 37 13 41 81 49 17 2 33 5 36 6 4 0 39 -12 77 -29z m-983 -20 c-5
-16 -10 -19 -18 -11 -7 7 -6 15 3 26 17 20 24 13 15 -15z m2110 -10 c-9 -14
-25 5 -25 30 0 12 3 12 16 -2 9 -9 13 -21 9 -28z m-2032 17 c-52 -83 -71 -99
-80 -71 -5 14 56 84 73 84 10 0 12 -5 7 -13z m1988 -28 c21 -27 28 -44 22 -50
-7 -7 -20 2 -40 28 -42 54 -46 63 -29 63 8 0 29 -18 47 -41z m-1896 -20 c6 -9
-12 -40 -60 -104 -15 -19 -16 -19 -40 5 l-24 25 40 53 c34 44 43 51 59 42 10
-6 22 -15 25 -21z m1865 -60 c7 -12 3 -22 -15 -39 -14 -13 -26 -22 -28 -19 -1
2 -19 25 -40 51 -43 54 -45 62 -14 83 21 15 23 14 55 -22 18 -21 37 -45 42
-54z m-1673 -66 c34 -24 63 -49 65 -55 3 -7 -8 -25 -24 -41 -15 -17 -28 -33
-28 -37 0 -4 -9 -18 -21 -31 -11 -13 -25 -31 -29 -39 -7 -12 -24 -1 -80 55
-39 39 -81 83 -92 98 l-20 28 41 54 42 55 42 -21 c23 -12 70 -42 104 -66z
m1553 32 l42 -55 -30 -37 c-17 -21 -58 -65 -92 -98 -49 -48 -63 -57 -70 -45
-4 8 -18 26 -29 39 -12 13 -21 27 -21 31 0 4 -13 20 -28 37 -16 16 -27 34 -24
41 5 15 89 77 155 113 28 16 53 29 53 29 1 0 21 -25 44 -55z"/>
<path d="M6477 10157 c-2 -6 5 -22 16 -34 19 -21 19 -24 4 -41 -10 -10 -17
-28 -17 -40 0 -22 32 -62 50 -62 19 0 50 40 50 63 0 46 -91 147 -103 114z m68
-117 c0 -27 -22 -39 -31 -16 -8 22 3 49 19 43 6 -2 12 -14 12 -27z"/>
<path d="M4624 10106 c-3 -9 -17 -16 -29 -16 -13 0 -37 -12 -54 -26 -41 -34
-43 -89 -6 -124 22 -21 30 -22 99 -16 61 5 77 4 90 -9 22 -22 20 -32 -9 -60
-30 -31 -71 -32 -102 -3 -34 32 -40 14 -14 -39 19 -40 25 -45 34 -32 7 8 31
20 54 27 78 23 106 94 59 149 -25 29 -24 29 -155 20 -63 -4 -68 48 -8 83 24
13 28 13 57 -9 38 -27 47 -22 30 18 -17 42 -38 58 -46 37z"/>
<path d="M4267 9893 c-3 -5 10 -73 30 -152 30 -128 32 -146 19 -153 -18 -10
-21 -28 -5 -28 6 0 27 12 47 27 20 15 39 28 41 29 1 2 0 7 -4 13 -4 8 -12 8
-25 1 -15 -8 -19 -5 -24 16 -8 31 -6 34 44 69 36 25 44 27 67 16 20 -9 23 -15
15 -23 -14 -14 -15 -28 -3 -28 21 0 110 75 101 84 -6 6 -15 5 -23 -3 -14 -11
-77 20 -244 121 -17 10 -34 15 -36 11z m96 -107 l38 -23 -32 -28 c-36 -30 -38
-29 -53 43 -9 38 -3 39 47 8z"/>
<path d="M4011 9659 l-84 -89 28 -30 c40 -42 77 -41 39 1 -11 12 -14 27 -10
44 13 50 34 42 122 -46 75 -75 82 -85 69 -99 -8 -9 -15 -23 -15 -30 0 -8 27
12 60 45 33 33 60 63 60 67 0 13 -22 9 -39 -6 -14 -13 -26 -6 -101 64 -73 68
-83 81 -74 97 14 23 41 28 70 12 13 -7 27 -9 31 -6 8 9 -47 67 -61 66 -6 -1
-49 -41 -95 -90z"/>
<path d="M3813 9429 c-24 -32 -43 -64 -43 -69 0 -17 17 -11 32 12 14 21 15 20
110 -52 90 -70 95 -75 82 -94 -17 -25 -18 -36 -1 -35 13 0 97 112 97 129 0 17
-18 11 -34 -11 -14 -21 -16 -20 -109 52 -90 69 -95 74 -81 93 17 25 18 36 2
35 -7 0 -32 -27 -55 -60z"/>
<path d="M3680 9237 c0 -8 -11 -24 -25 -37 -73 -69 -11 -185 78 -145 18 8 51
28 73 46 35 26 45 29 63 20 29 -16 28 -61 -4 -91 -19 -18 -31 -22 -59 -17 -51
8 -53 -8 -7 -38 48 -30 64 -32 56 -6 -3 12 0 21 10 24 23 10 55 69 55 104 0
23 -8 38 -32 58 -38 32 -74 29 -126 -13 -68 -54 -69 -54 -91 -42 -27 14 -27
54 0 81 16 16 29 20 55 16 43 -7 46 12 5 36 -35 20 -51 22 -51 4z"/>
<path d="M3525 8939 c-32 -26 -100 -168 -86 -182 6 -6 14 0 23 16 l13 25 107
-51 c88 -43 106 -55 98 -67 -14 -21 -12 -40 3 -40 9 0 49 75 75 142 2 4 -3 8
-11 8 -9 0 -19 -9 -22 -20 -8 -25 -16 -25 -68 1 -54 28 -52 24 -32 55 14 22
22 25 48 20 107 -19 110 -19 124 0 7 10 13 23 13 28 0 20 -18 39 -29 31 -9 -5
-9 -10 0 -21 16 -19 -3 -19 -43 2 -29 15 -53 15 -90 0 -12 -6 -18 0 -23 23
-11 52 -55 65 -100 30z m58 -43 c18 -14 24 -71 8 -80 -12 -8 -91 27 -91 39 0
20 31 55 48 55 9 0 25 -7 35 -14z"/>
<path d="M3342 8547 c-39 -108 -41 -119 -26 -124 7 -2 15 8 18 22 5 20 11 25
24 20 9 -4 61 -23 114 -42 93 -33 96 -36 88 -59 -6 -15 -6 -26 1 -30 13 -8 9
-15 51 96 19 52 38 102 42 111 5 13 -3 20 -34 33 -22 9 -45 16 -50 16 -19 0
-10 -21 14 -32 33 -15 38 -30 22 -75 -15 -42 -28 -45 -92 -18 -31 13 -34 17
-24 36 8 14 18 19 31 16 39 -10 13 16 -34 33 -51 20 -68 14 -37 -13 26 -22 15
-51 -16 -43 -33 9 -74 25 -74 30 0 2 7 20 15 40 14 33 19 36 55 36 22 0 40 4
40 10 0 8 -61 30 -85 30 -5 0 -25 -42 -43 -93z"/>
<path d="M3276 8358 c-3 -7 -7 -25 -10 -40 -3 -14 -9 -33 -12 -42 -4 -11 -1
-16 10 -16 9 0 16 7 16 15 0 8 3 15 6 15 3 0 39 -26 80 -57 l75 -58 -38 -6
c-21 -4 -64 -9 -95 -13 -54 -6 -58 -5 -58 15 0 41 -24 12 -37 -46 -14 -63 -10
-81 13 -50 12 16 38 22 152 34 101 12 137 20 137 29 0 8 -47 51 -105 96 -81
63 -106 88 -108 109 -3 28 -20 37 -26 15z"/>
<path d="M3170 7933 c-6 -32 -14 -69 -17 -82 -4 -17 -2 -22 8 -19 8 3 15 14
17 26 4 27 3 27 135 0 l109 -22 -6 -28 c-4 -20 -1 -28 8 -28 8 0 18 22 25 58
6 31 14 67 17 80 5 16 2 22 -10 22 -9 0 -16 -8 -16 -19 0 -11 -4 -22 -9 -25
-4 -3 -58 4 -120 16 -110 22 -111 23 -111 50 0 48 -18 31 -30 -29z"/>
<path d="M3126 7703 c-8 -53 -7 -83 3 -83 5 0 11 9 14 21 5 19 10 20 74 14 37
-4 72 -11 77 -15 5 -5 -37 -31 -93 -59 -74 -38 -101 -56 -101 -70 0 -10 -3
-33 -6 -50 -5 -24 -3 -31 10 -31 10 0 16 8 16 23 l0 23 120 -15 120 -15 0 -28
c0 -50 18 -29 26 30 8 68 8 66 -5 70 -6 2 -11 -5 -11 -16 0 -28 -5 -30 -73
-20 -146 20 -146 12 -6 85 68 35 126 66 128 69 14 13 -27 25 -142 40 -117 16
-127 19 -125 37 6 38 -19 28 -26 -10z"/>
<path d="M3086 7373 c-3 -3 -6 -30 -6 -60 0 -53 13 -71 25 -34 6 19 11 17 87
-19 44 -22 83 -41 85 -44 2 -2 -37 -17 -86 -34 -86 -29 -91 -30 -91 -11 0 10
-7 19 -15 19 -12 0 -15 -13 -15 -60 0 -33 0 -63 -1 -67 -2 -19 20 -11 23 8 3
20 22 29 141 68 75 25 137 51 137 57 0 6 -58 39 -130 73 -99 47 -130 66 -130
81 0 20 -13 33 -24 23z"/>
<path d="M7115 10096 c-62 -28 -95 -85 -95 -163 0 -39 5 -50 39 -84 31 -31 46
-39 75 -39 25 0 36 -4 36 -15 0 -30 20 -14 45 34 28 56 17 79 -16 37 -29 -37
-89 -37 -118 0 -28 36 -27 50 12 125 38 75 71 98 116 79 38 -15 55 -50 47 -94
-10 -52 9 -45 39 13 23 45 21 72 -4 57 -4 -3 -17 4 -27 16 -21 23 -74 48 -101
48 -10 -1 -31 -7 -48 -14z"/>
<path d="M7380 9943 c-59 -22 -110 -94 -110 -155 0 -79 70 -144 144 -134 66 8
128 71 142 142 16 89 -91 179 -176 147z m93 -35 c27 -14 46 -38 47 -58 1 -40
-82 -153 -121 -165 -26 -9 -78 22 -85 49 -3 14 -3 35 1 48 12 36 67 108 95
124 31 17 36 17 63 2z"/>
<path d="M7660 9777 c0 -7 5 -18 12 -25 10 -10 -6 -31 -72 -97 -78 -78 -85
-83 -101 -69 -10 9 -23 13 -29 9 -8 -5 1 -20 26 -46 37 -38 60 -43 49 -10 -3
11 14 36 56 76 65 65 65 64 10 -58 -28 -62 -39 -107 -26 -107 2 0 50 18 105
40 55 22 102 40 104 40 2 0 -25 -28 -60 -61 -52 -50 -66 -60 -78 -50 -8 7 -17
8 -20 3 -6 -10 80 -102 95 -102 14 0 10 16 -6 30 -8 7 -15 15 -15 19 0 4 38
42 85 85 80 73 87 77 104 62 42 -38 42 -4 0 40 l-32 33 -61 -23 c-33 -13 -84
-33 -113 -44 l-51 -21 44 100 c24 55 44 104 44 110 0 14 -50 79 -61 79 -5 0
-9 -6 -9 -13z"/>
<path d="M7967 9444 c-3 -4 1 -17 9 -29 15 -23 13 -25 -77 -89 -51 -36 -95
-66 -99 -66 -4 0 -13 7 -20 15 -14 17 -30 20 -30 5 0 -5 16 -30 35 -55 19 -25
39 -53 43 -62 5 -9 15 -13 21 -8 9 5 8 13 -3 30 -14 22 -14 24 17 48 l33 25
42 -39 c48 -45 85 -50 126 -18 46 36 36 82 -43 199 -34 49 -42 56 -54 44z m78
-124 c20 -39 19 -47 -11 -75 -35 -32 -67 -32 -93 2 l-21 26 52 38 c29 21 54
39 55 39 1 0 9 -13 18 -30z"/>
<path d="M8145 9171 c6 -28 3 -31 -95 -87 -103 -58 -108 -59 -124 -19 -2 7 -7
7 -14 0 -7 -7 8 -40 44 -103 30 -51 54 -97 54 -102 0 -16 33 -11 68 10 35 21
36 48 2 30 -33 -18 -49 -11 -76 30 -19 29 -24 44 -17 51 6 6 53 35 105 65 87
50 94 52 102 33 8 -17 36 -28 36 -13 0 3 -16 35 -36 70 -38 68 -60 84 -49 35z"/>
<path d="M8255 8977 c5 -19 -11 -41 -89 -125 -53 -56 -96 -107 -96 -113 0 -9
38 -10 146 -5 134 6 147 5 159 -11 23 -31 28 -6 9 41 -19 45 -52 66 -41 27 4
-18 -3 -20 -67 -26 -125 -12 -126 -10 -55 68 56 62 63 67 79 52 29 -26 29 -6
2 55 -27 59 -58 84 -47 37z"/>
<path d="M8363 8683 c-52 -18 -58 -38 -8 -30 28 5 38 2 50 -16 8 -12 15 -26
15 -33 0 -6 -48 -29 -107 -51 -95 -36 -109 -39 -120 -25 -7 8 -14 19 -16 25
-2 6 -8 7 -14 4 -8 -5 -4 -25 12 -65 13 -31 26 -65 29 -74 9 -31 27 -20 24 14
l-3 32 100 37 c55 21 105 38 111 38 7 1 15 -11 19 -26 5 -22 2 -32 -19 -48
-41 -33 -32 -47 17 -25 23 10 42 23 42 27 0 11 -77 217 -84 224 -3 4 -25 0
-48 -8z"/>
<path d="M8496 8382 c6 -28 5 -28 -103 -60 -59 -18 -111 -32 -114 -32 -4 0
-10 11 -13 25 -6 25 -26 35 -26 14 0 -7 9 -42 19 -78 11 -36 25 -85 31 -108
12 -46 16 -48 73 -32 45 12 40 29 -9 29 -35 0 -44 10 -60 74 -5 20 0 24 50 38
49 13 56 13 61 0 3 -8 -4 -26 -16 -39 -26 -27 -20 -28 49 -8 29 9 50 20 47 26
-4 5 -10 7 -15 4 -15 -9 -40 7 -40 25 0 12 13 21 45 30 25 7 47 11 50 9 2 -3
7 -23 11 -46 6 -39 4 -42 -25 -58 -46 -23 -28 -36 25 -18 34 12 44 20 41 32
-3 9 -18 58 -33 109 -16 54 -33 92 -41 92 -8 0 -11 -9 -7 -28z"/>
<path d="M8578 8093 c-3 -25 -8 -28 -112 -51 -111 -24 -115 -24 -129 13 -3 6
-8 7 -12 3 -9 -9 14 -118 26 -118 5 0 9 11 9 25 0 17 7 26 23 30 113 26 160
35 163 33 1 -2 -40 -49 -92 -105 -89 -96 -108 -123 -84 -123 6 0 63 12 126 26
118 26 144 26 144 -1 0 -15 12 -20 22 -10 8 8 -16 112 -27 116 -5 2 -11 -8
-13 -23 -3 -24 -10 -28 -74 -42 -39 -9 -73 -14 -76 -11 -3 2 30 41 72 86 73
77 76 83 70 118 -3 20 -7 42 -9 49 -7 22 -24 13 -27 -15z"/>
<path d="M8552 7727 c-12 -13 -26 -45 -31 -73 -15 -79 -20 -85 -55 -82 -58 6
-62 94 -6 123 46 24 38 38 -17 30 -53 -7 -75 -21 -51 -30 13 -5 14 -13 8 -36
-19 -65 21 -129 82 -129 53 0 84 32 93 96 8 64 17 78 48 82 53 6 63 -87 12
-110 -35 -16 -31 -28 8 -28 44 0 52 9 51 55 -1 68 -3 75 -29 100 -32 33 -83
34 -113 2z"/>
<path d="M8690 7475 c0 -14 -1 -25 -2 -26 -2 0 -56 -6 -120 -13 l-117 -12 -3
25 c-2 13 -9 26 -16 29 -9 3 -11 -13 -6 -70 3 -40 8 -79 10 -86 6 -20 24 -4
24 22 0 26 12 29 163 42 l77 7 0 -27 c0 -15 6 -26 14 -26 11 0 13 14 9 68 -2
37 -6 73 -8 80 -7 22 -25 13 -25 -13z"/>
<path d="M8603 7248 c-12 -13 -29 -49 -38 -80 -13 -46 -21 -59 -41 -64 -37 -9
-56 12 -52 60 2 33 9 44 35 61 18 11 32 23 33 28 0 4 -22 7 -50 7 -38 0 -50
-4 -50 -15 0 -8 4 -15 9 -15 6 0 6 -12 -1 -30 -14 -43 -2 -95 29 -120 56 -44
122 -12 143 71 15 62 23 74 53 77 57 7 62 -90 7 -111 -44 -17 -36 -27 20 -27
47 0 60 7 43 24 -4 3 -6 29 -4 56 2 42 -2 53 -23 75 -33 33 -84 34 -113 3z"/>
<path d="M5203 7243 c3 -741 4 -760 25 -842 68 -259 260 -449 609 -600 l72
-31 117 55 c318 150 488 325 556 570 22 79 22 92 26 843 l3 762 -706 0 -706 0
4 -757z m467 507 l0 -220 -215 0 -215 0 0 220 0 220 215 0 215 0 0 -220z m900
0 l0 -220 -215 0 -215 0 0 220 0 220 215 0 215 0 0 -220z m-793 -254 c-32 -14
-67 -32 -78 -42 -18 -17 -19 -16 -19 24 l0 42 78 0 77 0 -58 -24z m353 -11 c0
-19 -2 -35 -4 -35 -3 0 -21 10 -41 21 -20 12 -53 28 -73 35 -36 13 -36 13 41
14 l77 0 0 -35z m-72 -30 c200 -109 272 -392 155 -608 -38 -69 -130 -151 -195
-173 -225 -77 -447 91 -474 360 -18 178 90 377 238 435 80 32 204 25 276 -14z
m-543 -422 c20 -127 72 -242 133 -297 17 -15 22 -31 22 -68 l0 -48 -215 0
-215 0 0 225 0 225 135 0 134 0 6 -37z m1055 -188 l0 -225 -215 0 -215 0 0 46
c0 41 5 53 41 91 53 58 95 149 111 240 l12 73 133 0 133 0 0 -225z m-440 -455
l0 -220 -225 0 -225 0 0 220 0 220 225 0 225 0 0 -220z m-460 -345 l0 -116
-22 12 c-80 42 -258 187 -258 210 0 5 63 9 140 9 l140 0 0 -115z m695 47 c-59
-57 -202 -162 -220 -162 -3 0 -5 52 -5 115 l0 115 148 0 147 -1 -70 -67z"/>
<path d="M5853 7452 c-19 -3 -21 -7 -12 -28 5 -14 7 -29 4 -33 -2 -4 24 -7 59
-7 62 1 63 2 61 27 -2 34 -13 49 -34 49 -14 0 -17 -6 -13 -29 3 -26 1 -29 -21
-28 -21 2 -23 5 -15 21 12 22 1 33 -29 28z"/>
<path d="M5986 7431 c-4 -5 0 -11 6 -14 10 -4 11 -7 1 -18 -7 -7 -13 -16 -13
-19 0 -11 51 -31 61 -25 5 4 9 0 9 -8 0 -7 13 -25 28 -40 l28 -27 23 20 c14
11 21 26 17 35 -6 17 -32 20 -41 5 -3 -5 -12 -10 -20 -10 -10 0 -12 7 -5 30 9
33 4 36 -35 18 -30 -14 -39 -7 -30 23 6 17 9 19 16 8 7 -11 9 -11 9 2 0 24
-43 39 -54 20z"/>
<path d="M5760 7415 c-8 -9 -8 -15 -2 -15 6 0 14 -12 19 -26 9 -26 9 -26 32
-7 21 17 22 21 10 41 -16 26 -41 28 -59 7z"/>
<path d="M5705 7379 c-4 -6 2 -17 14 -25 25 -18 28 -36 4 -27 -10 4 -14 2 -9
-5 3 -6 2 -13 -4 -17 -5 -3 -15 3 -22 14 -9 15 -15 17 -25 9 -14 -11 -18 -29
-5 -26 14 3 42 -14 36 -23 -13 -22 13 -6 42 26 l32 36 -24 24 c-28 28 -30 29
-39 14z"/>
<path d="M5894 7351 l-7 -34 -25 29 -24 29 7 -38 6 -38 -30 16 c-32 16 -42 7
-16 -15 23 -19 18 -28 -17 -32 l-33 -3 30 -17 30 -16 -28 -13 c-36 -16 -34
-29 3 -29 l30 0 -17 -27 c-14 -22 -15 -26 -3 -21 53 21 50 22 44 -13 l-6 -34
26 28 c14 15 26 22 26 15 0 -7 3 -23 6 -35 6 -21 3 -23 -40 -23 -45 0 -45 0
-39 -30 3 -19 1 -30 -6 -30 -6 0 -12 6 -12 13 -1 6 -2 19 -3 27 0 8 -13 16
-27 18 -24 3 -25 1 -21 -30 4 -29 3 -31 -10 -20 -9 7 -14 21 -11 32 4 16 0 20
-19 20 -21 0 -24 -4 -24 -35 l1 -35 83 0 c46 0 81 3 79 8 -3 4 3 15 13 25 17
17 18 17 24 -8 8 -32 24 -32 32 0 3 14 10 25 15 25 5 0 9 -11 9 -25 0 -15 6
-25 15 -25 9 0 12 6 9 18 -5 16 -5 16 6 0 17 -27 30 -22 30 12 0 17 5 30 11
30 7 0 9 -12 7 -31 -4 -28 -3 -30 26 -27 34 3 46 29 26 53 -15 18 -90 20 -90
3 0 -9 -3 -9 -12 0 -7 7 -23 12 -36 12 -18 0 -23 4 -18 16 3 9 6 25 6 37 0 20
2 20 26 -8 l25 -30 -5 33 c-6 35 -4 37 26 21 27 -15 35 -3 13 21 -18 20 -17
20 13 20 39 0 41 13 5 29 l-28 13 30 16 30 16 -33 6 c-31 5 -32 6 -18 25 23
31 19 37 -13 20 l-30 -15 6 38 5 37 -26 -30 c-22 -26 -25 -28 -26 -10 0 11 -5
27 -10 35 -7 12 -11 7 -16 -19z m34 -59 c14 11 15 10 9 -6 -6 -14 -4 -17 8
-12 10 4 14 2 9 -5 -4 -6 0 -15 7 -20 12 -7 11 -9 -1 -9 -11 -1 -10 -4 4 -15
18 -14 18 -15 2 -15 -9 0 -14 -4 -11 -10 3 -5 -1 -10 -10 -10 -10 0 -13 -5 -9
-12 5 -9 2 -9 -9 1 -15 12 -17 11 -18 -10 -1 -18 -2 -20 -6 -6 -3 11 -11 16
-19 13 -10 -4 -12 -2 -8 6 5 8 0 9 -15 5 -18 -4 -20 -3 -10 9 9 11 8 14 -7 14
-17 0 -17 1 2 15 14 11 15 14 4 15 -12 0 -13 2 -1 9 7 5 11 14 7 20 -5 7 -1 8
10 4 14 -5 16 -3 11 12 -6 15 -5 16 8 5 12 -10 15 -9 16 6 1 18 2 18 6 1 4
-15 7 -16 21 -5z m-18 -228 c0 -8 -5 -12 -10 -9 -6 4 -8 11 -5 16 9 14 15 11
15 -7z m150 -24 c0 -11 -4 -20 -10 -20 -5 0 -10 9 -10 20 0 11 5 20 10 20 6 0
10 -9 10 -20z"/>
<path d="M5618 7045 c-5 -42 14 -47 42 -12 20 25 11 47 -20 47 -13 0 -19 -10
-22 -35z"/>
<path d="M6085 7045 c0 -32 3 -35 29 -35 23 0 27 4 23 19 -3 12 1 22 10 25 12
5 14 1 11 -19 -4 -19 -1 -25 12 -25 13 0 16 6 12 26 -3 19 -1 25 7 20 6 -4 11
-1 11 8 0 13 -12 16 -57 16 l-58 0 0 -35z"/>
<path d="M5638 6943 c-37 -10 -31 -63 8 -63 32 0 49 33 28 54 -8 9 -16 15 -17
15 -1 -1 -9 -3 -19 -6z m32 -23 c0 -13 -28 -25 -38 -16 -3 4 0 11 8 16 20 13
30 12 30 0z"/>
<path d="M6132 6925 c-9 -20 -9 -25 3 -25 7 0 21 -7 30 -16 19 -19 21 -18 30
19 5 18 3 27 -5 27 -6 0 -8 -6 -5 -12 3 -7 -2 -3 -11 10 -21 28 -28 28 -42 -3z"/>
<path d="M5682 6869 c-7 -10 -20 -19 -30 -19 -15 -1 -15 -2 -1 -13 9 -7 21
-22 28 -34 6 -13 17 -23 23 -23 6 0 8 3 5 7 -4 3 5 14 20 24 23 15 24 19 11
24 -10 4 -22 4 -28 0 -7 -4 -9 2 -5 18 8 31 -7 42 -23 16z"/>
<path d="M6100 6869 c-9 -15 -8 -24 1 -35 15 -19 55 -18 63 2 9 22 8 24 -9 24
-8 0 -14 -3 -14 -7 3 -20 -2 -24 -16 -13 -19 16 -19 30 1 30 8 0 12 5 9 10
-10 16 -23 12 -35 -11z"/>
<path d="M6066 6832 c-4 -7 -2 -21 6 -30 12 -15 11 -16 -4 -4 -9 8 -22 11 -28
7 -7 -5 0 -14 19 -26 18 -10 34 -19 36 -19 8 0 5 24 -9 55 -8 20 -15 25 -20
17z"/>
<path d="M5752 6803 c1 -5 -3 -18 -10 -30 -7 -13 -8 -24 -3 -27 5 -4 12 0 14
6 3 8 6 6 6 -4 1 -24 17 -22 35 4 20 29 44 11 27 -20 -11 -20 -6 -32 14 -32 6
0 11 8 11 18 1 9 4 25 9 35 5 13 2 17 -13 17 -12 0 -24 5 -27 10 -10 15 -23
12 -28 -7 -3 -11 -5 -7 -6 10 -1 17 -7 27 -16 27 -8 0 -14 -3 -13 -7z"/>
<path d="M5977 6774 c-3 -4 1 -13 9 -21 8 -9 13 -22 10 -29 -3 -8 0 -14 7 -14
20 0 53 27 44 36 -4 5 -12 2 -16 -5 -7 -11 -11 -9 -20 6 -5 11 -7 23 -4 27 3
3 0 6 -9 6 -8 0 -17 -3 -21 -6z"/>
<path d="M5882 6726 c-16 -27 -18 -36 -7 -36 7 0 16 6 18 13 4 9 8 9 15 -2 20
-28 30 -6 13 28 l-18 33 -21 -36z"/>
<path d="M3593 6613 c6 -30 6 -30 -96 -68 -56 -21 -108 -40 -114 -43 -7 -2
-13 3 -13 11 0 17 -18 32 -27 24 -7 -8 28 -97 38 -97 5 0 9 6 9 14 0 19 4 21
87 52 l68 25 -79 -79 c-52 -53 -74 -82 -66 -87 6 -4 59 -10 117 -13 l105 -5
-77 -29 c-70 -28 -78 -29 -94 -14 -29 26 -30 9 -3 -59 27 -67 49 -88 39 -36
-6 29 -5 30 99 70 58 23 109 41 114 41 4 0 10 -9 13 -20 5 -20 27 -28 27 -10
0 5 -7 28 -16 50 l-16 40 -122 0 -121 1 89 83 88 82 -15 44 c-17 52 -43 69
-34 23z"/>
<path d="M8190 6613 c0 -10 -7 -27 -15 -37 -15 -20 -20 -81 -9 -111 9 -22 59
-43 90 -37 14 2 45 29 70 58 26 30 54 54 63 54 25 0 41 -20 41 -52 0 -39 -32
-68 -75 -68 -45 0 -45 -17 0 -36 47 -19 69 -18 61 3 -4 10 2 25 15 39 11 12
23 40 26 63 5 35 2 44 -25 71 -48 47 -76 41 -143 -31 -46 -49 -61 -60 -78 -54
-29 9 -37 49 -17 80 12 19 25 25 51 25 45 0 45 17 0 36 -45 18 -55 18 -55 -3z"/>
<path d="M7908 6009 c-21 -33 -38 -64 -38 -69 0 -17 18 -11 32 9 13 19 18 17
111 -41 94 -58 98 -62 92 -89 -10 -46 8 -34 53 36 26 41 37 67 30 71 -6 4 -18
-3 -27 -14 -16 -21 -16 -21 -114 40 -66 41 -96 65 -93 74 3 8 9 21 12 29 4 9
1 15 -7 15 -8 -1 -31 -28 -51 -61z"/>
<path d="M3866 5837 c-113 -24 -144 -27 -159 -18 -31 20 -32 4 -3 -39 29 -44
49 -52 44 -17 -2 17 2 23 24 25 22 3 32 -5 58 -43 31 -45 31 -46 14 -73 -10
-16 -19 -22 -22 -14 -2 6 -10 12 -19 12 -18 0 -17 -3 22 -63 17 -25 36 -46 43
-47 14 0 15 9 3 29 -6 9 15 51 66 133 41 66 73 125 71 132 -2 9 -39 5 -142
-17z m64 -22 c0 -3 -12 -24 -27 -46 -25 -38 -28 -40 -41 -22 -28 37 -33 53
-20 58 39 12 88 18 88 10z"/>
<path d="M7590 5575 c0 -8 -6 -15 -13 -15 -23 0 -57 -45 -63 -82 -5 -27 -1
-40 18 -63 32 -37 68 -37 142 1 44 22 60 26 74 18 44 -28 6 -104 -52 -104 -17
0 -37 5 -43 11 -6 6 -17 8 -23 4 -8 -5 -1 -18 21 -41 33 -34 66 -46 56 -20 -4
9 5 19 25 27 36 15 68 63 68 102 0 39 -40 77 -81 77 -18 0 -52 -12 -76 -26
-54 -31 -97 -30 -101 4 -7 47 64 92 95 61 6 -6 17 -8 23 -4 8 5 3 16 -16 36
-30 32 -54 38 -54 14z"/>
<path d="M4260 5455 c-36 -37 -24 -49 18 -19 21 14 25 14 47 0 14 -9 25 -20
25 -24 0 -4 -38 -45 -85 -92 -83 -83 -84 -84 -105 -65 -11 10 -23 15 -27 11
-4 -4 18 -32 50 -63 31 -32 59 -54 63 -50 4 4 0 15 -9 25 -15 17 -11 23 72
106 l89 88 17 -26 c16 -23 16 -30 4 -54 -7 -15 -15 -30 -17 -34 -10 -22 27 -2
50 26 l26 32 -85 87 c-47 48 -89 87 -92 87 -4 0 -22 -16 -41 -35z"/>
<path d="M7130 5140 c-43 -38 -49 -67 -9 -42 18 11 23 10 42 -14 38 -48 79
-104 75 -104 -1 0 -52 15 -112 34 l-110 33 -37 -26 c-39 -27 -54 -59 -21 -46
35 14 43 8 111 -80 67 -86 69 -90 49 -103 -12 -9 -16 -18 -10 -24 12 -12 100
50 101 71 1 9 -5 11 -16 6 -34 -14 -41 -10 -97 63 -32 39 -53 72 -49 72 5 0
66 -18 137 -40 70 -22 130 -40 132 -40 17 0 -7 41 -71 125 -41 53 -75 101 -75
105 0 4 7 13 15 20 14 12 12 31 -3 30 -4 -1 -27 -18 -52 -40z"/>
<path d="M4747 5073 c-4 -3 2 -16 13 -28 l20 -21 -61 -85 c-79 -108 -73 -103
-99 -89 -14 7 -26 8 -32 2 -6 -6 9 -21 41 -41 27 -18 55 -39 61 -47 7 -7 16
-14 21 -14 15 0 10 30 -6 36 -22 9 -18 25 18 67 31 36 33 37 55 22 27 -20 28
-52 2 -85 -27 -34 -26 -86 1 -100 22 -12 49 -7 49 9 0 5 -9 11 -21 13 -19 3
-19 4 6 38 21 28 26 43 22 73 -5 36 -4 37 27 37 40 0 56 15 56 55 0 33 -19 55
-112 128 -50 40 -51 40 -61 30z m113 -103 c24 -24 24 -29 4 -58 -17 -24 -51
-29 -77 -9 -16 11 -15 15 8 50 29 43 37 45 65 17z"/>
<path d="M6470 4708 c-89 -47 -117 -68 -90 -68 6 0 20 5 30 10 18 9 25 -1 74
-98 l55 -109 -26 -12 c-18 -8 -23 -15 -16 -22 7 -7 43 6 114 41 57 29 105 53
106 54 2 2 -5 21 -15 44 -22 54 -42 56 -35 3 5 -38 4 -40 -37 -61 -23 -12 -43
-20 -45 -18 -14 16 -44 91 -40 98 8 13 45 13 45 0 0 -5 7 -10 15 -10 12 0 10
10 -10 50 -26 52 -50 68 -39 26 4 -18 1 -27 -13 -35 -17 -9 -22 -4 -42 36 -12
25 -21 47 -19 48 6 5 67 35 72 35 3 0 16 -12 30 -27 14 -15 29 -24 33 -20 7 8
-31 81 -44 83 -4 1 -51 -21 -103 -48z"/>
<path d="M5280 4720 c0 -5 9 -14 20 -20 19 -10 17 -15 -33 -116 -50 -101 -53
-104 -79 -98 -49 10 -30 -12 40 -46 37 -19 69 -33 72 -33 15 4 7 21 -15 31
l-25 12 52 105 53 105 32 -6 c52 -10 38 9 -32 44 -69 34 -85 38 -85 22z"/>
<path d="M5780 4478 c0 -21 0 -41 -1 -45 0 -4 4 -9 10 -11 6 -2 11 7 11 20 0
32 18 48 52 48 l28 0 0 -119 0 -120 -27 -3 c-16 -2 -28 -7 -28 -13 0 -6 36
-11 83 -13 65 -2 83 0 80 10 -3 7 -17 14 -31 16 l-27 3 0 120 0 119 28 0 c34
0 52 -16 52 -47 0 -15 6 -23 16 -23 13 0 15 7 10 31 -3 17 -6 39 -6 48 0 14
-16 16 -125 16 l-125 0 0 -37z"/>
<path d="M6524 3726 c-89 -39 -141 -126 -131 -220 11 -113 79 -181 221 -223
87 -25 132 -57 151 -107 14 -36 15 -51 6 -79 -36 -109 -198 -133 -282 -41 -28
31 -49 82 -49 120 0 29 -16 39 -36 23 -12 -10 -14 -36 -12 -133 3 -117 4 -121
26 -124 16 -3 22 2 22 17 0 32 15 33 66 4 68 -38 167 -38 239 -1 28 14 58 34
67 45 31 34 58 107 58 158 0 120 -74 193 -246 244 -39 12 -83 30 -96 41 -59
46 -63 140 -9 194 29 29 36 31 102 31 68 0 72 -1 104 -37 21 -22 36 -51 40
-75 10 -58 13 -65 32 -61 16 3 18 17 18 118 0 103 -2 115 -18 118 -12 3 -20
-4 -24 -17 -7 -26 -9 -26 -58 -1 -46 24 -143 27 -191 6z"/>
<path d="M8185 3373 l-140 -368 -48 -3 c-43 -3 -48 -5 -45 -25 3 -21 7 -22
123 -22 117 0 120 1 123 23 3 20 -1 22 -42 22 -25 0 -46 3 -46 8 0 4 15 45 33
92 l33 85 141 3 140 3 32 -87 c17 -47 31 -90 31 -94 0 -5 -19 -10 -42 -12 -35
-2 -43 -7 -43 -23 0 -19 7 -20 150 -20 143 0 150 1 150 20 0 17 -8 21 -48 25
l-49 5 -133 365 c-121 331 -135 365 -157 368 -22 3 -31 -18 -163 -365z m242
-119 c-2 -3 -54 -3 -114 -2 l-110 3 48 130 c27 72 54 141 60 155 10 23 16 11
66 -128 30 -84 53 -155 50 -158z"/>
<path d="M2368 3713 c-17 -21 10 -43 53 -43 l39 0 0 -272 c0 -162 4 -289 11
-311 14 -53 71 -112 127 -134 56 -21 160 -23 215 -4 52 18 106 67 128 116 17
36 19 71 19 323 l0 282 34 0 c47 0 66 9 66 31 0 10 -3 19 -7 19 -5 1 -60 1
-123 2 l-115 1 0 -24 c0 -22 5 -24 48 -27 l48 -3 -3 -277 c-3 -298 -5 -309
-60 -358 -54 -50 -154 -55 -220 -11 -57 39 -58 45 -58 359 l0 287 43 3 c37 3
42 6 42 27 l0 24 -138 1 c-100 1 -142 -2 -149 -11z"/>
<path d="M3133 3713 c-11 -29 6 -43 52 -43 l45 0 -2 -332 -3 -333 -47 -3 c-43
-3 -48 -6 -48 -26 0 -24 0 -24 123 -22 115 1 122 2 122 21 0 17 -8 20 -47 23
l-48 3 0 291 c0 160 2 289 4 287 2 -2 93 -146 201 -319 134 -215 202 -316 216
-318 18 -3 19 6 19 362 l0 365 48 3 c42 3 47 5 47 27 l0 24 -115 -1 c-63 -1
-118 -1 -122 -2 -5 0 -8 -9 -8 -19 0 -22 19 -31 66 -31 l34 0 0 -252 0 -252
-165 264 c-91 145 -171 270 -178 276 -18 18 -188 24 -194 7z"/>
<path d="M3913 3713 c-11 -29 6 -43 52 -43 l45 0 -2 -332 -3 -333 -47 -3 c-42
-3 -48 -6 -48 -26 0 -23 0 -23 148 -22 140 1 147 2 147 21 0 17 -8 20 -47 23
l-48 3 0 335 0 334 34 0 c47 0 66 9 66 31 0 10 -3 19 -7 19 -139 7 -286 3
-290 -7z"/>
<path d="M4253 3713 c-11 -28 6 -43 50 -43 l43 0 130 -367 c112 -316 133 -368
151 -371 17 -2 24 6 37 40 9 24 70 189 135 368 l119 325 40 3 c44 3 72 26 54
44 -6 6 -56 10 -124 10 -112 0 -113 0 -113 -23 0 -21 6 -25 41 -29 l41 -5
-100 -273 c-55 -150 -102 -271 -103 -269 -2 2 -46 125 -98 273 l-94 269 42 5
c35 4 41 8 41 29 l0 23 -144 2 c-107 1 -145 -2 -148 -11z"/>
<path d="M5063 3713 c-11 -28 6 -43 47 -43 l40 0 0 -335 0 -335 -45 0 c-40 0
-45 -2 -45 -22 l0 -23 273 0 272 0 7 105 c5 61 4 108 -1 113 -15 15 -41 -1
-41 -25 0 -39 -20 -98 -41 -119 -17 -17 -34 -19 -144 -19 l-125 0 0 160 0 160
58 0 c73 0 100 -18 108 -71 5 -29 11 -39 26 -39 17 0 18 8 16 132 -3 113 -5
133 -19 136 -12 2 -18 -7 -22 -34 -10 -59 -30 -74 -104 -74 l-63 0 0 145 0
145 104 0 c89 0 107 -3 129 -20 27 -21 47 -74 47 -122 0 -21 5 -28 20 -28 29
0 31 12 22 124 l-7 98 -254 2 c-195 1 -255 -2 -258 -11z"/>
<path d="M5698 3713 c-17 -21 10 -43 53 -43 l39 0 0 -335 0 -335 -44 0 c-47 0
-60 -8 -51 -32 4 -11 36 -14 153 -13 140 0 147 1 147 20 0 17 -8 20 -47 23
l-48 3 0 165 0 164 55 0 c119 0 161 -41 171 -167 9 -128 15 -153 40 -183 30
-35 81 -48 123 -30 48 20 65 90 21 90 -11 0 -20 -10 -24 -26 -5 -19 -12 -25
-29 -22 -21 3 -22 7 -22 113 0 87 -4 118 -19 147 -19 39 -88 108 -108 108 -6
0 8 14 31 30 57 42 81 84 81 143 0 93 -52 153 -150 176 -69 16 -359 19 -372 4z
m335 -54 c50 -14 70 -47 71 -117 1 -103 -44 -153 -144 -160 l-60 -4 0 146 0
146 48 0 c26 0 64 -5 85 -11z"/>
<path d="M6928 3713 c-17 -21 10 -43 53 -43 l39 0 0 -334 0 -335 -47 -3 c-40
-3 -48 -6 -48 -23 0 -19 7 -20 148 -20 147 -1 147 -1 147 22 0 21 -5 23 -45
23 l-45 0 0 334 0 335 43 3 c37 3 42 6 42 26 0 24 0 24 -138 25 -101 2 -142
-1 -149 -10z"/>
<path d="M7318 3713 c-17 -21 10 -43 53 -43 l39 0 0 -334 0 -335 -47 -3 c-40
-3 -48 -6 -48 -23 0 -19 7 -20 215 -20 214 0 215 0 266 27 258 136 252 594 -9
713 -48 22 -67 24 -255 27 -154 2 -206 0 -214 -9z m407 -54 c93 -26 137 -126
138 -314 1 -173 -25 -256 -96 -309 -24 -18 -46 -22 -138 -24 l-109 -4 0 331 0
331 83 0 c45 0 100 -5 122 -11z"/>
<path d="M8783 3713 c-11 -28 6 -43 47 -43 l40 0 0 -335 0 -335 -45 0 c-40 0
-45 -2 -45 -23 l0 -23 213 1 c210 0 212 0 262 27 276 147 249 646 -40 727 -59
17 -426 20 -432 4z m402 -54 c99 -28 139 -121 139 -319 0 -142 -17 -218 -61
-271 -40 -47 -79 -59 -188 -59 l-95 0 0 330 0 330 83 0 c45 0 100 -5 122 -11z"/>
<path d="M401 2564 c-253 -68 -416 -348 -398 -684 13 -226 99 -405 248 -515
91 -67 167 -88 297 -83 117 4 158 19 238 84 48 38 58 34 72 -31 9 -46 33 -65
56 -46 24 20 24 442 0 462 -28 23 -48 -2 -57 -72 -22 -181 -155 -312 -317
-313 -94 -1 -152 19 -211 72 -97 87 -129 192 -136 442 -8 279 27 430 122 526
60 60 120 84 215 84 87 0 149 -22 208 -75 74 -66 115 -158 125 -280 1 -22 8
-31 23 -33 41 -6 45 13 42 244 l-3 219 -29 0 c-26 0 -30 -5 -41 -48 -7 -26
-15 -50 -19 -54 -3 -4 -19 3 -34 15 -119 95 -257 125 -401 86z"/>
<path d="M1481 2564 c-84 -22 -150 -63 -223 -136 -79 -79 -136 -188 -164 -313
-25 -110 -23 -293 4 -396 48 -179 161 -328 301 -397 75 -37 77 -37 201 -37
124 0 126 0 204 38 106 50 189 135 245 249 53 108 71 180 78 308 6 120 -7 223
-42 323 -95 275 -353 429 -604 361z m253 -95 c143 -53 205 -214 206 -535 0
-272 -37 -413 -131 -498 -58 -53 -117 -71 -221 -70 -165 2 -261 93 -304 291
-21 101 -29 320 -15 442 33 281 126 389 333 391 54 0 94 -6 132 -21z"/>
<path d="M10324 2571 c-100 -24 -190 -96 -235 -187 -28 -57 -32 -74 -32 -147
1 -190 107 -316 320 -381 146 -45 192 -67 236 -110 108 -105 81 -271 -56 -344
-44 -23 -64 -27 -132 -27 -67 0 -89 5 -137 28 -93 46 -143 123 -156 240 -7 61
-8 62 -37 62 l-30 0 0 -210 0 -210 27 -3 c23 -3 28 1 33 25 4 15 11 38 17 50
11 21 11 21 63 -13 71 -47 132 -64 232 -64 227 0 386 150 387 365 0 96 -24
163 -85 229 -61 67 -149 114 -311 166 -178 57 -238 116 -238 235 0 95 65 182
152 206 62 16 158 6 210 -22 55 -31 105 -104 113 -167 12 -90 13 -94 43 -90
l27 3 3 183 c2 162 1 183 -14 189 -21 8 -48 -9 -53 -33 -7 -41 -20 -44 -68
-14 -70 45 -189 62 -279 41z"/>
<path d="M6763 2548 c-6 -7 -14 -88 -18 -180 -7 -164 -6 -166 15 -173 29 -9
50 11 50 51 0 60 21 134 48 166 39 46 78 58 187 58 l95 0 0 -545 0 -545 -70 0
c-59 0 -71 -3 -80 -20 -7 -13 -7 -26 -2 -36 8 -14 38 -16 237 -16 199 0 229 2
237 16 5 10 5 23 -2 36 -9 17 -21 20 -80 20 l-70 0 0 545 0 545 97 0 c163 0
216 -44 230 -194 6 -71 20 -92 54 -81 21 7 21 9 14 173 -4 93 -12 173 -18 180
-7 9 -22 11 -44 7 -18 -3 -207 -6 -418 -6 -211 0 -400 3 -418 6 -22 4 -37 2
-44 -7z"/>
<path d="M8590 2554 c-8 -2 -184 -5 -390 -7 l-375 -2 0 -30 0 -30 73 -3 72 -3
0 -549 0 -549 -72 -3 -73 -3 0 -33 0 -33 433 -1 c239 0 437 4 442 8 4 5 9 83
11 174 l4 165 -31 3 c-35 3 -44 -12 -44 -78 0 -58 -20 -110 -55 -148 l-33 -37
-206 -3 -206 -3 0 266 0 267 105 -4 c98 -3 106 -5 131 -29 18 -18 30 -46 38
-85 11 -53 14 -59 36 -59 l25 0 0 210 0 210 -25 0 c-22 0 -25 -6 -36 -58 -7
-34 -21 -68 -34 -82 -22 -24 -30 -25 -132 -25 l-108 0 0 236 0 235 174 -3
c158 -3 177 -5 203 -24 41 -30 71 -96 79 -175 7 -71 18 -85 56 -73 19 6 19 13
13 172 -4 92 -12 173 -17 180 -10 12 -28 14 -58 6z"/>
<path d="M11680 2554 c-8 -2 -184 -5 -390 -7 l-375 -2 0 -30 0 -30 75 -5 75
-5 3 -547 2 -547 -77 -3 -78 -3 -3 -32 c-2 -18 0 -33 5 -33 4 0 204 -1 443 -1
l435 -2 8 163 c4 90 6 169 3 177 -4 9 -16 13 -33 11 -26 -3 -28 -7 -39 -81
-15 -96 -40 -147 -85 -169 -29 -15 -63 -18 -227 -18 l-192 0 2 263 3 262 80 3
c140 6 178 -19 194 -127 5 -41 9 -46 31 -46 l25 0 0 210 0 210 -25 0 c-22 0
-26 -5 -31 -46 -8 -55 -32 -104 -54 -113 -9 -3 -64 -6 -121 -6 l-104 0 2 233
3 232 175 0 c153 0 178 -2 202 -18 38 -26 67 -93 75 -171 6 -71 20 -92 54 -81
22 7 22 8 15 178 -8 191 -11 198 -76 181z"/>
<path d="M2225 2539 c-4 -5 -4 -21 -1 -35 6 -23 10 -24 81 -24 l75 0 0 -550 0
-549 -71 -3 c-55 -2 -74 -7 -83 -20 -8 -13 -8 -23 -1 -34 10 -15 35 -17 193
-17 117 0 187 4 194 11 6 6 8 22 4 36 -6 25 -9 26 -81 26 l-75 0 0 433 c0 244
4 425 9 417 5 -8 84 -222 176 -475 93 -253 174 -466 181 -474 7 -8 22 -11 36
-8 21 6 44 60 203 479 98 260 182 477 187 482 4 6 8 -184 8 -422 l0 -431 -77
-3 -78 -3 -3 -32 c-2 -18 0 -33 5 -33 4 -1 109 -1 233 -2 197 -1 226 1 235 16
7 11 7 21 -1 34 -9 13 -28 18 -83 20 l-71 3 0 549 0 550 75 0 c71 0 75 1 81
24 3 14 3 30 -1 35 -7 12 -133 14 -237 5 -57 -6 -69 -10 -74 -28 -10 -34 -355
-940 -363 -954 -7 -12 -116 278 -308 819 l-55 156 -91 7 c-132 9 -215 7 -222
-5z"/>
<path d="M3724 2535 c-3 -7 -4 -22 -2 -32 3 -15 15 -18 81 -21 l77 -3 0 -549
0 -549 -71 -3 c-55 -2 -74 -7 -83 -20 -7 -12 -8 -23 -1 -34 9 -14 40 -16 234
-16 133 0 227 4 233 10 5 5 8 20 6 33 -3 23 -8 24 -80 27 l-78 3 0 219 0 220
99 0 c122 0 188 12 267 49 76 35 129 88 163 160 23 49 26 69 26 156 0 93 -2
105 -33 167 -48 98 -131 156 -261 184 -96 20 -569 20 -577 -1z m576 -88 c89
-38 125 -129 118 -293 -6 -129 -31 -186 -98 -224 -39 -21 -61 -25 -162 -28
l-118 -4 0 279 c0 154 3 283 8 287 12 13 214 0 252 -17z"/>
<path d="M4654 2539 c-3 -6 -3 -21 0 -35 6 -23 10 -24 81 -24 l75 0 0 -550 0
-549 -71 -3 c-55 -2 -74 -7 -83 -20 -7 -12 -8 -23 -1 -34 9 -13 61 -15 433
-16 233 0 427 4 432 8 4 5 9 83 11 174 l4 165 -32 3 c-22 2 -33 -1 -33 -10 -1
-53 -24 -157 -42 -189 -35 -63 -60 -69 -272 -69 l-186 0 2 543 3 542 75 5 75
5 0 30 0 30 -232 2 c-149 1 -235 -1 -239 -8z"/>
<path d="M5544 2535 c-3 -8 -4 -22 -2 -32 3 -15 16 -19 78 -23 l75 -5 5 -475
5 -475 24 -49 c34 -68 91 -122 169 -159 65 -31 72 -32 197 -32 112 0 138 4
187 23 80 32 148 97 184 174 l29 63 3 468 3 467 73 0 c78 0 94 10 80 52 -5 17
-17 18 -197 16 l-192 -3 0 -30 0 -30 75 -5 75 -5 0 -445 c0 -517 0 -517 -85
-593 -135 -122 -380 -84 -451 68 -17 37 -19 74 -19 508 l0 467 74 0 c78 0 94
10 81 51 -6 17 -23 18 -236 18 -186 0 -231 -3 -235 -14z"/>
<path d="M8835 2531 c-13 -41 3 -51 81 -51 l74 0 0 -550 0 -549 -71 -3 c-55
-2 -74 -7 -83 -20 -8 -13 -8 -23 -1 -34 9 -15 35 -17 200 -17 l190 0 0 34 0
34 -77 3 -78 3 0 482 c0 403 2 479 13 467 8 -8 155 -242 327 -520 172 -278
320 -511 329 -518 8 -7 22 -11 31 -10 13 3 16 77 20 598 l5 595 72 3 c77 3 99
16 88 52 -6 19 -14 20 -200 20 -186 0 -194 -1 -200 -20 -12 -37 11 -50 87 -50
46 0 70 -4 73 -13 3 -6 4 -197 3 -422 l-3 -410 -279 445 c-153 245 -285 451
-294 458 -11 8 -59 12 -158 12 -130 0 -143 -2 -149 -19z"/>
<path d="M5106 448 c-49 -128 -102 -268 -118 -310 l-30 -78 -39 0 c-32 0 -39
-3 -39 -20 0 -19 7 -20 105 -20 98 0 105 1 105 20 0 17 -7 20 -39 20 l-39 0
30 80 31 80 117 0 116 0 24 -67 c13 -38 25 -74 28 -80 3 -9 -7 -13 -32 -13
-29 0 -36 -4 -36 -20 0 -19 7 -20 125 -20 118 0 125 1 125 20 0 17 -7 20 -39
20 -36 0 -40 3 -53 38 -8 20 -59 160 -114 309 -86 236 -102 273 -120 273 -17
0 -33 -33 -108 -232z m177 -180 c-5 -9 -177 -11 -185 -3 -3 4 14 59 38 123 25
64 47 124 50 132 3 8 27 -43 53 -115 27 -72 46 -133 44 -137z"/>
<path d="M4134 659 c-10 -16 7 -27 46 -31 l35 -3 3 -282 2 -282 -42 -3 c-30
-2 -43 -7 -43 -18 0 -12 18 -15 105 -15 87 0 105 3 105 15 0 10 -13 16 -42 18
l-43 3 0 212 c0 118 4 207 9 202 4 -6 45 -111 90 -234 44 -124 85 -229 90
-234 5 -5 16 -7 23 -5 7 3 49 100 92 214 44 115 85 223 92 239 11 26 13 1 14
-182 l0 -213 -40 0 c-33 0 -40 -3 -40 -20 0 -19 7 -20 125 -20 118 0 125 1
125 20 0 17 -7 20 -40 20 l-40 0 0 285 0 285 40 0 c33 0 40 3 40 20 0 18 -7
20 -74 20 -47 0 -77 -4 -83 -12 -5 -7 -49 -119 -98 -248 -48 -129 -91 -239
-95 -243 -6 -7 -104 252 -166 438 -10 28 -22 53 -28 57 -17 12 -154 9 -162 -3z"/>
<path d="M5580 651 c0 -16 8 -20 38 -23 l37 -3 3 -282 2 -283 -40 0 c-33 0
-40 -3 -40 -20 0 -19 7 -20 178 -20 197 0 228 8 290 70 62 62 85 123 90 235 3
83 0 109 -17 155 -26 70 -69 122 -129 158 -46 26 -51 27 -229 30 -178 3 -183
3 -183 -17z m353 -45 c80 -34 112 -125 105 -296 -9 -198 -60 -253 -230 -242
l-58 4 0 274 0 274 75 0 c42 0 90 -6 108 -14z"/>
<path d="M6198 664 c-20 -20 -6 -34 32 -34 l40 0 0 -284 0 -285 -37 -3 c-27
-2 -39 -8 -41 -20 -3 -16 8 -18 122 -18 119 0 126 1 126 20 0 17 -7 20 -40 20
l-40 0 0 135 0 135 64 0 c53 0 70 -4 92 -23 23 -20 27 -33 35 -117 11 -107 22
-144 53 -165 29 -21 89 -19 109 3 24 26 22 62 -3 62 -11 0 -20 -7 -20 -15 0
-21 -30 -31 -41 -14 -4 8 -6 46 -2 85 7 85 -15 146 -70 190 l-36 28 39 34 c66
56 75 157 18 209 -53 48 -86 56 -243 61 -82 2 -153 1 -157 -4z m314 -72 c17
-16 22 -34 22 -75 1 -93 -40 -137 -129 -137 l-45 0 0 121 0 121 65 -4 c50 -3
70 -9 87 -26z"/>
<path d="M6780 650 c0 -17 7 -20 40 -20 l40 0 0 -285 0 -285 -40 0 c-33 0 -40
-3 -40 -20 0 -19 7 -20 125 -20 118 0 125 1 125 20 0 17 -7 20 -40 20 l-40 0
2 283 3 282 38 3 c29 3 37 7 37 23 0 18 -8 19 -125 19 -118 0 -125 -1 -125
-20z"/>
<path d="M7110 651 c0 -18 6 -21 40 -21 l40 0 0 -285 0 -285 -40 0 c-34 0 -40
-3 -40 -21 0 -20 4 -20 188 -17 l189 3 49 30 c54 34 107 104 126 168 7 23 12
80 12 127 0 71 -5 95 -28 145 -31 69 -74 118 -131 148 -36 20 -58 22 -222 25
-180 4 -183 3 -183 -17z m370 -49 c23 -12 43 -35 60 -68 22 -43 25 -65 28
-170 7 -241 -43 -306 -230 -296 l-58 3 0 274 0 275 83 0 c60 0 92 -5 117 -18z"/>
</g>
</svg>
